<svg xmlns="http://www.w3.org/2000/svg" width="303" height="311" fill="none"><path fill="#EAC0C4" d="M300.097 281.425a.85.85 0 0 0-.859-.618.854.854 0 0 0-.81.685c-4.089 19.382-18.508 34.83-28.994 44.759-3.872 3.668-7.952 7.28-11.89 10.777-9.53 8.453-19.379 17.189-27.282 27.468-12.296 16-20.289 37.066-21.763 57.051-.403-.971-.814-1.938-1.219-2.898a968 968 0 0 0-10.762-24.508c4.343-18.239 12.594-26.558 23.994-38.034a453 453 0 0 0 6.045-6.16c3.845-4.001 7.899-7.958 11.822-11.793 10.842-10.591 22.053-21.54 30.194-34.615 3.637-5.839 6.631-12.165 8.932-18.787a84 84 0 0 0 1.371-2.924.425.425 0 0 0-.218-.566l-.011-.002a99 99 0 0 0 3.732-18.165c1.576-14.478-.081-29.162-4.795-42.461a.855.855 0 0 0-.894-.57.87.87 0 0 0-.77.736c-2.516 17.382-12.17 34.37-30.378 53.467-4.584 4.805-9.441 9.529-14.138 14.094-10.169 9.888-20.681 20.11-29.102 31.835-13.078 18.205-18.57 35.505-16.39 51.541-.037-.069-.069-.142-.101-.21a749.88 749.88 0 0 0-13.547-26.279l-.174-.323a.9.9 0 0 0 .029-.5c-3.375-13.726 3.164-24.247 10.758-34.693 5.562-7.651 12.76-12.716 20.376-18.07 3.411-2.4 6.943-4.883 10.353-7.636 11.247-9.086 21.94-18.226 29.199-30.132 10.347-16.976 12.356-39.047 5.24-57.612a.866.866 0 0 0-.902-.548.866.866 0 0 0-.754.744c-.044.348-.1.694-.149 1.041-.034-.01-.067-.02-.108-.019a.43.43 0 0 0-.41.451q.048 1.049.071 2.094c-2.761 13.87-11.013 27.55-25.145 41.691-5.466 5.469-11.395 10.666-17.129 15.69-7.492 6.568-15.243 13.358-22.078 20.86-14.259 15.648-21.208 29.921-21.736 44.717-.64-1.077-1.273-2.159-1.923-3.237a628 628 0 0 0-4.445-7.324 624 624 0 0 0-8.947-14.06c2.9-13.593 11.559-22.757 20.719-32.449 2.144-2.265 4.356-4.614 6.54-7.053a674 674 0 0 1 5.997-6.601c9.798-10.711 19.932-21.791 26.621-34.916 10.624-20.861 11.7-46.263 2.878-67.944a.864.864 0 0 0-.977-.517.86.86 0 0 0-.682.863c.318 12.546-5.332 25.739-16.787 39.211-4.384 5.154-9.267 10.037-13.99 14.755-5.552 5.551-11.289 11.287-16.286 17.534-13.305 16.619-22.003 40.051-23.521 63.133-.191-.273-.377-.545-.569-.812a545 545 0 0 0-11.32-15.518c-3.835-19.105 6.344-34.794 17.119-51.403.769-1.182 1.539-2.376 2.308-3.564 5.337-8.288 11.487-16.241 17.437-23.93 6.917-8.94 14.065-18.191 20.011-28.046 13.159-21.825 17.436-43.755 12.047-61.736a.858.858 0 0 0-1.525-.25c-8.461 11.899-18.19 23.163-27.6 34.056-9.769 11.306-19.865 22.999-28.592 35.443-9.172 13.084-16.265 27.211-20.519 40.852-4.547 14.589-5.93 28.553-4.132 41.564a318 318 0 0 0-3.045-3.651c-.005-.006-.016-.013-.02-.025l-.01-.013a471 471 0 0 0-17.638-19.837q-.031-.032-.057-.053a404 404 0 0 0-4.682-4.9c-.347-16.388 9.012-26.466 19.843-38.118 2.693-2.896 5.474-5.891 8.204-9.089 4.968-5.827 10.371-11.484 15.594-16.955 9.16-9.599 18.633-19.524 26.153-30.755 15.583-23.284 22.51-52.573 18.993-80.375a.865.865 0 0 0-.745-.748l-.011-.002a.86.86 0 0 0-.904.558c-8.129 21.865-25.066 38.916-40.302 53.184a1219 1219 0 0 1-6.499 6.034c-14.313 13.237-29.111 26.924-39.451 43.75-10.587 17.223-17.25 43.008-9.6 63.753a435 435 0 0 0-14.395-13.446c-.025-.026-.057-.047-.084-.068a148 148 0 0 0-1.999-1.764l-.156-.136c-1.989-21.169 5.338-43.825 21.779-67.343 6.21-8.878 13.178-17.44 19.914-25.724 8.621-10.6 17.541-21.556 24.983-33.312 11.07-17.48 22.9-43.984 16.416-70.98a.87.87 0 0 0-.643-.636.85.85 0 0 0-.858.29l-1.012 1.227c-.011-.001-.016-.007-.028-.009a.443.443 0 0 0-.511.335c-.031.152-.066.298-.097.45L85.607 67.136c-13.967 16.952-28.412 34.481-37.023 55.26-4.289 10.343-6.593 23.027-6.494 35.707.091 11.817 2.215 22.577 6.163 31.401a385 385 0 0 0-17.548-13.584c-1.119-1.409-2.241-2.831-3.37-4.253-14.146-17.878-28.771-36.367-46.3-50.614-22.293-18.127-43.44-30.4-64.646-37.528-25.477-8.559-51.795-9.403-74.104-2.363a.86.86 0 0 0 .039 1.655l.593.162a.42.42 0 0 0-.076.28.434.434 0 0 0 .473.384q.78-.073 1.568-.138c33.304 9.173 63.72 28.425 93.159 47.067 28.962 18.339 58.905 37.294 91.67 46.751a380 380 0 0 1 13.495 10.31c-32.636-1.961-65.378 4.697-97.074 11.141-5.441 1.106-11.06 2.249-16.585 3.328-38.061 7.439-78.423 12.752-115.69 1.37a.863.863 0 0 0-.733 1.54c17.548 11.899 38.123 20.36 59.502 24.475 3.407.657 6.84 1.201 10.28 1.636 18.149 2.295 36.644 1.53 54.054-2.285 13.642-2.988 26.979-7.809 39.884-12.477 7.078-2.562 14.404-5.208 21.681-7.518 19.643-6.23 40.565-11.905 61.505-7.017a429 429 0 0 1 14.845 13.908c-14.951-5.885-34.989-6.236-58.365-.964-21.47 4.841-44.98 14.189-66.203 26.328-6.338 3.622-12.565 7.646-18.59 11.533-6.629 4.28-13.478 8.7-20.475 12.592-15.844 8.813-29.908 13.218-42.99 13.463a.86.86 0 0 0-.829.7.856.856 0 0 0 .51.956c8.306 3.516 17.064 5.84 25.961 6.965 16.451 2.08 33.397.065 48.913-6.073 16.175-6.397 30.414-16.987 44.186-27.23l2.109-1.569c15.022-11.157 29.893-21.62 46.653-27.063 20.133-6.538 39.056-5.286 51.935 3.44a474 474 0 0 1 15.888 17.798c-21.813-4.623-41.627-4.823-60.484-.596-17.273 3.873-33.93 11.563-50.92 23.507-5.45 3.827-10.7 8.09-15.776 12.208-5.345 4.332-10.872 8.815-16.611 12.785-13.38 9.245-25.574 13.818-37.28 13.982a.864.864 0 0 0-.353 1.646c5.264 2.455 10.644 3.893 15.998 4.57 20.103 2.542 39.81-5.701 51.134-11.778 9.934-5.333 19.356-11.837 28.473-18.124 9.593-6.615 19.51-13.461 29.985-18.905 11.764-6.12 41.752-18.963 66.446-6.374a487 487 0 0 1 7.341 9.462 558 558 0 0 1 8.707 11.829c-17.257-10.397-41.39-10.536-58.703-5.708-15.705 4.377-30.31 12.27-44.434 19.898-3.56 1.924-7.243 3.913-10.874 5.81-16.687 8.711-36.553 17.577-57.328 17.283a.86.86 0 0 0-.846.652.856.856 0 0 0 .432.975 83 83 0 0 0 28.237 8.879 82.8 82.8 0 0 0 25.338-.693c14.511-2.669 28.02-9.183 41.087-15.486 9.664-4.661 19.654-9.477 29.97-12.706 19.903-6.22 37.342-9.215 57.656-3.63.647.973 1.298 1.959 1.949 2.939a613.673 613.673 0 0 1 9.145 14.368 507 507 0 0 1 2.675 4.385c-17.316-9.704-38.95-12.167-61.352-6.911-14.363 3.372-28.29 8.894-41.762 14.231-7.055 2.796-14.348 5.69-21.61 8.234-26.335 9.228-47.108 11.442-65.381 6.972a.864.864 0 0 0-.72 1.531c14.935 11.14 32.56 18.174 50.913 20.494 5.827.737 11.732.997 17.647.766 20.747-.816 40.762-7.653 60.123-14.26 10.488-3.584 21.333-7.285 32.174-9.99 14.324-3.574 29.26-6.178 41.561-1.114a550 550 0 0 1 4.605 8.387 745 745 0 0 1 12.298 23.758c-23.318-12.165-51.45-16.613-75.815-11.901-11.616 2.248-22.919 6.325-33.852 10.27-5.13 1.852-10.43 3.764-15.692 5.461-12.93 4.173-32.24 9.194-50.566 4.729a.85.85 0 0 0-.926.364.86.86 0 0 0 .037.995c7.68 10.066 20.597 16.985 35.438 18.978l.553.07c14.582 1.843 28.999-.902 39.96-3.517 5.013-1.196 10.065-2.56 14.954-3.882 7.946-2.151 16.162-4.372 24.376-5.898 27.968-5.201 48.855-4.789 69.748 1.384a933 933 0 0 1 12.648 28.273c-13.026-12.231-32.653-19.043-54.655-18.825-14.498.147-28.996 2.754-43.013 5.272-6.39 1.149-13.005 2.34-19.518 3.276-26.078 3.755-45.597 2.046-61.438-5.365a.861.861 0 0 0-1.128 1.184c7.6 14.317 21.465 25.456 37.073 29.808a63.5 63.5 0 0 0 9.105 1.817c14.959 1.892 30.223-1.105 42.434-4.165 3.867-.97 7.792-2.031 11.585-3.057 12.595-3.404 25.617-6.928 38.777-7.661 15.586-.866 36.477 2.945 48.355 16.24a.9.9 0 0 0 .222.173q.59 1.437 1.182 2.917a.84.84 0 0 0 .229.567c9.409 23.399 18.616 48.354 28.956 78.494a.86.86 0 0 0 .708.576c.126.016.26.004.387-.038a.87.87 0 0 0 .538-1.096c-10.373-30.243-19.605-55.275-29.057-78.749 1.854-14.935 11.203-25.617 21.098-36.918l1.117-1.277c5.399-6.172 10.918-10.83 16.262-15.331 5.072-4.274 10.312-8.689 15.55-14.459 8.255-9.083 20.043-23.08 27.135-39.668 6.942-16.278 8.465-33.125 4.292-47.501m-157.008 14.98c-.025-.032-.043-.069-.068-.101a.4.4 0 0 0 .124-.112c-.021.073-.035.141-.056.213m33.297-45.287a873 873 0 0 0-6.01 6.617c-2.17 2.423-4.375 4.756-6.513 7.016-8.839 9.35-17.217 18.22-20.631 31.076-.009-5.832 2.114-12.1 6.148-18.138 3.655-5.472 8.402-10.204 12.997-14.776l28.463-28.344c-4.574 5.744-9.558 11.193-14.454 16.549m26.353-34.539c-2.309 4.531-5.051 8.828-8.05 12.953l-32.913 32.778c-4.622 4.603-9.402 9.36-13.107 14.907-4.018 6.011-6.18 12.263-6.285 18.126a35 35 0 0 0-.355-.531.4.4 0 0 0-.065-.083c-.564-.847-1.134-1.69-1.704-2.538a.4.4 0 0 0 .044-.168c.814-14.956 7.473-30.638 20.37-47.957 4.281-5.753 8.95-11.375 13.468-16.807 6.622-7.975 13.469-16.217 19.244-25.046 7.168-10.968 15.145-27.138 14.835-44.459 5.59 19.367 3.688 40.82-5.482 58.825m-42.959 5.761c4.942-6.173 10.646-11.873 16.158-17.388 4.744-4.744 9.653-9.653 14.079-14.86 10.407-12.232 16.134-24.298 17.071-35.921.033.103.067.2.101.302 1.479 18.327-6.975 35.71-14.529 47.261-5.741 8.786-12.575 17.012-19.182 24.966-4.52 5.444-9.196 11.077-13.496 16.844-12.737 17.108-19.438 32.663-20.477 47.522a610 610 0 0 0-3-4.375c1.076-23.434 9.764-47.475 23.275-64.351m18.641-62.113c-5.889 9.776-13.008 18.979-19.897 27.881-5.971 7.721-12.142 15.701-17.522 24.053q-1.154 1.784-2.307 3.558c-6.333 9.76-12.459 19.21-15.749 29.262 1.812-14.425 8.994-29.346 22.335-46.516 3.476-4.476 7.181-8.918 10.757-13.219 8.495-10.199 17.283-20.748 23.783-32.565 6.861-12.473 11.155-26.392 12.565-40.561.84 14.824-3.939 31.473-13.965 48.107m-42.788 9.395c8.678-12.376 18.746-24.037 28.482-35.306 8.867-10.262 18.009-20.859 26.14-32.03.102 13.155-5.535 27.114-16.771 41.511-4.731 6.06-10.052 11.802-15.193 17.359-5.382 5.81-10.951 11.822-15.863 18.212-16.113 20.977-25.626 50.078-26.169 79.96-.28-.354-.564-.714-.844-1.062l-.005-.006-.015-.02a321 321 0 0 0-3.666-4.556c-6.149-34.677 12.325-67.543 23.904-84.062m-9.119-12.414c-5.237 5.487-10.654 11.165-15.655 17.028-2.704 3.167-5.472 6.152-8.151 9.033-10.69 11.501-19.977 21.507-20.306 37.521l-.661-.675a.43.43 0 0 0 .025-.338c-2.67-7.581-1.254-16.816 3.887-25.342 4.63-7.683 11.392-13.793 17.932-19.706 3.091-2.793 6.145-5.528 9.186-8.247 11.126-9.958 21.744-19.46 33.359-31.134-6.106 7.698-12.944 14.864-19.616 21.86m25.967-30.524a125 125 0 0 1-2.312 3.315c-13.466 13.907-25.395 24.58-37.983 35.848a2267 2267 0 0 0-9.186 8.247c-6.586 5.953-13.4 12.108-18.09 19.899-4.943 8.205-6.522 17.072-4.428 24.591-.006-.001-.005-.006-.011-.007-.107-.025-.214-.045-.321-.07l-.698-.702c-.015-.019-.037-.033-.058-.047-.026-.027-.057-.054-.082-.086-2.072-18.124 4.854-34.681 11.114-45.469 8.066-13.906 19.155-25.902 30.758-37.983l2.286-2.374c10.46-10.865 21.273-22.102 29.711-34.873 8.967-13.566 15.32-29.114 18.468-45.089 2.249 26.06-4.634 53.085-19.168 74.8m-66.024 24.267c10.216-16.622 24.929-30.232 39.151-43.389 2.176-2.012 4.352-4.024 6.506-6.044 14.98-14.028 29.838-29.513 38.336-48.072-3.237 15.258-9.409 30.064-17.989 43.048-8.396 12.707-19.182 23.913-29.616 34.752l-2.285 2.374c-11.643 12.123-22.766 24.16-30.883 38.147-6.165 10.626-12.96 26.789-11.368 44.591-9.426-20.657-2.766-47.652 8.148-65.407m-7.33-20.896c-16.228 23.209-23.705 45.643-22.231 66.713a441 441 0 0 0-2.882-2.478c-6.446-26.284-.162-59.047 15.764-81.837 6.069-8.681 13.616-16.418 20.915-23.89 4.474-4.581 9.095-9.318 13.352-14.24 17.165-19.865 29.257-43.817 35.063-69.415l.902-1.096a120.7 120.7 0 0 1-5.855 37.525c-7.236 22.4-20.605 43.267-34.86 62.684l-.165.205c-6.768 8.309-13.758 16.903-20.003 25.829m44.855-58.972c-4.752 7.505-10.13 14.705-15.643 21.691 11.016-16.086 20.798-33.128 26.627-51.173a121.6 121.6 0 0 0 5.895-36.917c4.692 25.28-6.438 49.91-16.879 66.4m-73.8 51.949c8.511-20.543 22.874-37.967 36.759-54.82l50.923-61.8c-5.916 24.82-17.78 48.03-34.477 67.348-4.237 4.9-8.85 9.627-13.313 14.204-7.32 7.504-14.898 15.26-21.004 24-7.963 11.395-13.67 25.264-16.513 40.114-2.732 14.28-2.602 28.498.343 41.278-.465-.394-.93-.795-1.396-1.184-9.65-17.97-10.225-47.657-1.323-69.14M-84.157 85.134c21.007 7.057 41.98 19.238 64.11 37.229 17.382 14.13 31.948 32.542 46.04 50.35.355.444.704.888 1.058 1.338L-38.3 128.867c-17.52-12.116-35.643-24.643-55.382-33.676-20.647-9.448-40.397-13.722-58.785-12.753-.608-.175-1.211-.355-1.82-.525 21.323-5.971 46.091-4.855 70.13 3.221m-65.755-1.933c17.53-.464 36.284 3.818 55.865 12.772 19.674 9.001 37.764 21.507 55.252 33.601l64.798 44.801c-30.91-9.749-59.43-27.801-87.047-45.286-28.142-17.819-57.181-36.196-88.868-45.888m79.79 120.569c5.531-1.078 11.157-2.226 16.598-3.333 32.374-6.583 65.852-13.391 99.07-10.946a450 450 0 0 1 4.65 3.824q.03.031.062.055c.408.341.81.687 1.218 1.028-22.07-2.263-44.433 3.142-61.456 8.105-5.913 1.725-11.886 3.604-17.667 5.427-13.706 4.317-27.883 8.784-42.227 11.463-34.534 6.455-70.954 2.562-103.388-10.929 33.763 6.827 69.358 1.908 103.14-4.694m68.116 3.407c-7.313 2.317-14.652 4.973-21.747 7.538-12.851 4.646-26.132 9.446-39.662 12.413-39.678 8.694-83.255 1.031-117.749-20.474 1.177.305 2.349.598 3.53.875 16.321 7.268 33.73 12.075 51.468 14.317 18.753 2.371 37.873 1.876 56.45-1.594 14.392-2.69 28.592-7.165 42.323-11.491 5.774-1.818 11.747-3.697 17.648-5.423 16.97-4.953 39.261-10.338 61.21-8.067a.43.43 0 0 0 .47-.386c.005-.035-.004-.059-.01-.095a398 398 0 0 1 5.424 4.658l.047.041c-20.33-3.804-40.464 1.675-59.402 7.688m-85.927 59.516c7.047-3.92 13.923-8.36 20.57-12.649 6.006-3.879 12.213-7.882 18.508-11.486 38.804-22.19 90.996-37.992 123.223-25.198-32.526-5.63-67.494 1.888-94.687 20.59-5.977 4.108-11.68 8.794-17.2 13.324-7.666 6.292-15.595 12.798-24.314 17.81-18.46 10.606-40.676 14.392-61.611 10.605 10.993-1.575 22.693-5.862 35.511-12.996m123.146-42.994c-17.008 5.527-32.006 16.079-47.149 27.319l-2.114 1.568c-13.683 10.174-27.832 20.694-43.793 27.007-22.272 8.804-47.526 8.975-69.916.581.521-.045 1.043-.1 1.571-.155 2.418.514 4.86.927 7.309 1.237 19.715 2.492 40.223-1.515 57.473-11.429 8.78-5.044 16.737-11.577 24.434-17.893 5.502-4.521 11.197-9.191 17.143-13.28 28.03-19.279 64.372-26.582 97.695-19.758.158.078.316.15.469.227a347 347 0 0 1 4.302 4.377l.845.871c-12.943-6.251-30.151-6.556-48.269-.672m-74.45 72.194c5.796-4.003 11.348-8.506 16.72-12.864 5.055-4.097 10.28-8.34 15.679-12.133 15.505-10.899 30.878-18.329 46.831-22.432a172 172 0 0 0-36.806 19.079c-4.877 3.326-9.648 6.961-14.266 10.477-4.591 3.495-9.336 7.104-14.175 10.412-7.672 5.243-15.556 10.615-24.192 13.732 3.334-1.79 6.734-3.873 10.21-6.271m-14.89 8.597c10.75-2.63 20.201-9.089 29.356-15.348 4.858-3.317 9.61-6.937 14.214-10.437 4.61-3.505 9.369-7.135 14.226-10.447a170.8 170.8 0 0 1 43.62-21.425c18.168-3.487 37.201-2.788 58.114 1.9.514.603 1.042 1.237 1.579 1.884-21.951-8.194-48.626 1.697-59.47 6.544-11.526 5.149-22.376 11.999-32.872 18.621-6.912 4.361-14.056 8.871-21.325 12.85-20.221 11.078-42.002 18.514-64.753 22.14a49 49 0 0 1-2.26-.795c6.345-.576 12.838-2.401 19.571-5.487m101.074-40.163c-10.568 5.496-20.535 12.371-30.167 19.015-9.079 6.263-18.463 12.737-28.31 18.023-12.61 6.772-35.817 16.286-58.024 9.975a200.7 200.7 0 0 0 63.289-21.954c7.293-3.994 14.45-8.508 21.369-12.879 10.471-6.608 21.295-13.438 32.76-18.566 10.986-4.91 38.346-15.051 60.245-5.977.671.82 1.369 1.661 2.1 2.564l.045.058c.487.588.992 1.214 1.523 1.871-24.725-10.386-53.327 1.891-64.83 7.87m70.125-3.975a.4.4 0 0 0 .03-.147c.373-30.002 9.855-59.274 26.011-80.31 4.884-6.359 10.44-12.355 15.809-18.155 5.16-5.566 10.495-11.324 15.24-17.411 11.148-14.287 16.839-28.175 16.948-41.31a53 53 0 0 1 .783 4.204c-.817 15.709-5.245 31.273-12.827 45.056-6.462 11.746-15.222 22.259-23.691 32.432-3.582 4.3-7.287 8.753-10.777 13.239-14.834 19.095-22.118 35.462-22.909 51.47-1.187 5.037-1.585 10.25-.897 15.744a300 300 0 0 0-3.72-4.812M17.023 302.3c3.644-1.902 7.334-3.896 10.899-5.819 14.039-7.587 28.555-15.426 44.074-19.752 17.63-4.916 44.224-4.506 61.027 7.976q.822 1.173 1.636 2.344l.27.387c.235.336.469.684.704 1.021-18.8-8.034-40.641-9.185-60.163-3.131-11.06 3.43-21.397 9.071-31.394 14.535-8.268 4.513-16.81 9.182-25.717 12.566a104.6 104.6 0 0 1-46.375 6.411c16.307-2.501 31.687-9.571 45.04-16.538m-5.268 23.865c-16.644 3.06-34.007.778-49.283-6.428a77 77 0 0 0 5.841-.425 105.54 105.54 0 0 0 50.345-6.089c8.961-3.406 17.534-8.089 25.827-12.616 9.959-5.439 20.26-11.062 31.24-14.467 19.77-6.128 41.935-4.796 60.828 3.649.317.463.641.926.958 1.395-17.944-6.113-38.317-5.597-55.92 1.435-8.643 3.452-16.671 8.401-24.441 13.191l-18.793 11.589c-8.588 3.795-17.412 7.079-26.602 8.766m70.854-28.143c-10.437 3.266-20.488 8.109-30.208 12.798-2.557 1.234-5.134 2.477-7.73 3.695l12.924-7.971c7.733-4.772 15.73-9.701 24.306-13.127 17.456-6.97 37.66-7.473 55.438-1.381a.44.44 0 0 0 .549-.266l.002-.017q.716 1.056 1.422 2.119c-19.901-5.005-37.138-1.968-56.703 4.15m119.665-7.769c-7.738 5.443-15.048 10.58-20.78 18.471-6.762 9.306-13.135 19.385-11.798 31.794a832 832 0 0 0-2.187-3.942c-.005-.006-.009-.018-.014-.025-.01-.013-.02-.031-.029-.044-.005-.006-.005-.012-.01-.013-.887-1.594-1.8-3.209-2.729-4.832a.4.4 0 0 0 .112-.246c1.292-16.349 9.035-32.004 21.247-42.943 4.921-4.409 10.572-8.089 16.033-11.648 4.276-2.783 8.692-5.664 12.756-8.879 19.307-15.293 31.14-39.353 31.776-63.931.12-.442.228-.886.335-1.324 2.501 14.229.989 29.213-4.369 42.616-3.343 8.36-7.844 15.995-13.188 22.557-5.186 5.221-10.957 10.032-16.9 14.833-3.363 2.707-6.869 5.17-10.255 7.556M13.498 360.03a.425.425 0 0 0-.459.289 106.3 106.3 0 0 1-44.427-17.185c5.822 2.103 11.985 3.576 18.547 4.406 13.392 1.693 28.416.733 45.395-2.876 11.287-2.394 22.54-5.707 33.42-8.906 9.792-2.878 19.92-5.859 30.032-8.158 25.545-5.809 46.597-5.833 64.349-.08a672 672 0 0 1 4.315 7.528c-17.805-4.469-34.522-4.851-51.077-1.166-12.328 2.749-24.23 7.578-35.74 12.248-4.423 1.792-8.993 3.651-13.52 5.36-14.01 5.298-32.468 11.03-50.835 8.54m227.846-107.039c-1.919 3.145-4.092 6.095-6.456 8.905a89.2 89.2 0 0 0 8.53-16.285c5.67-14.18 7.082-30.109 4.043-45.072.032-.158.069-.315.095-.474 5.563 17.378 3.275 37.358-6.212 52.926m-79.946 72.229c-.118-15.138 6.658-29.682 21.321-45.776 6.773-7.429 14.486-14.189 21.944-20.721 5.754-5.045 11.709-10.261 17.214-15.766 12.012-12.018 19.854-23.735 23.761-35.556-1.586 23.121-13.076 45.429-31.29 59.859-4.033 3.196-8.435 6.061-12.692 8.834-5.493 3.579-11.169 7.273-16.136 11.728-12.16 10.899-19.949 26.41-21.455 42.668a503 503 0 0 0-2.788-4.817 1 1 0 0 0 .121-.453m-130.991 9.695c7.291-2.558 14.603-5.455 21.676-8.26 13.41-5.316 27.284-10.816 41.52-14.158 23.16-5.432 45.455-2.474 62.818 8.33a722 722 0 0 1 3.299 5.582c-17.708-5.51-38.626-5.399-63.891.352-10.137 2.308-20.277 5.287-30.087 8.175-10.867 3.194-22.102 6.498-33.354 8.891-23.52 4.993-43.219 4.888-60.036-.342 16.564 2.199 35.274-.589 58.055-8.57m93.772 2.204c-10.912 2.726-21.793 6.439-32.317 10.03-19.24 6.57-39.14 13.359-59.631 14.172-1.856.072-3.704.093-5.559.067 13.93-.722 27.242-5.037 37.968-9.083 4.54-1.713 9.115-3.572 13.539-5.369 11.48-4.657 23.346-9.474 35.602-12.208 11.856-2.641 23.805-3.168 36.182-1.598-8.393.057-17.202 1.849-25.784 3.989m107.45 28.419c7.8-10.148 17.591-18.834 27.056-27.231 3.95-3.507 8.037-7.13 11.929-10.818 10.046-9.51 23.64-24.015 28.674-42.276.024.09.035.184.058.28-2.866 15.797-11.33 31.934-25.844 49.28-5.624 6.717-11.736 13.217-17.646 19.498-7.154 7.607-14.555 15.471-21.153 23.802-13.725 17.331-21.55 34.319-23.275 50.52-.469-1.142-.939-2.278-1.399-3.396.704-20.679 8.772-42.968 21.6-59.659m35.496-62.905c-8.032 12.897-19.165 23.775-29.939 34.288-3.935 3.839-7.996 7.813-11.861 11.828-2.086 2.174-4.089 4.19-6.025 6.14-11.155 11.234-19.346 19.491-23.919 36.752-.535-1.168-1.077-2.331-1.613-3.487 7.541-21.424 24.508-38.582 41.281-54.334 1.871-1.756 3.74-3.488 5.595-5.21 11.061-10.257 21.67-20.107 29.928-32.049a90 90 0 0 1-3.447 6.072m6.279-12.089c-8.574 14.444-20.671 25.67-33.351 37.435a1126 1126 0 0 0-5.602 5.215c-16.64 15.618-33.473 32.625-41.213 53.839-.192-.406-.382-.824-.574-1.23-.009-.019-.017-.043-.027-.062-.365-.775-.736-1.546-1.101-2.322 5.52-22.281 13.451-39.696 24.945-54.755 6.417-8.412 13.814-16.248 20.965-23.826 6.897-7.309 14.026-14.861 20.285-22.939 10.289-13.261 21.858-33.359 20.02-55.031 5.82 20.757 4.166 43.817-4.347 63.676m-69.69 30.658c8.33-11.597 18.789-21.768 28.905-31.605 4.711-4.581 9.581-9.315 14.184-14.14 16.846-17.66 26.472-33.598 29.988-49.735 2.364 21.86-9.342 42.259-19.722 55.647-6.237 8.041-13.354 15.583-20.23 22.871-7.171 7.599-14.582 15.45-21.027 23.899-11.39 14.928-19.302 32.148-24.839 54.063-.668-1.405-1.323-2.814-1.997-4.213-4.826-17.354.13-36.459 14.738-56.787M13.562 381.315q1.605.202 3.211.325 1.939.325 3.887.573c13.466 1.702 27.293.735 40.38-2.856 8.634-2.371 17.02-5.896 25.137-9.31 4.677-1.968 9.51-3.997 14.339-5.79 11.524-4.269 21.402-6.366 30.305-6.387 2.415.08 4.844.236 7.267.473 1.19.162 2.364.351 3.526.59a.44.44 0 0 0 .418-.149c14.696 1.904 29.34 6.558 42.344 13.702.981 1.994 1.954 4.005 2.927 6.009l.078.167c.004.006.004.012.009.018 0 0-.001.006.005.007.229.474.451.96.681 1.435-19.523-8.502-34.849-12.199-49.545-11.956-14.94.248-29.228 4.729-43.77 9.694l-3.14 1.079c-12.928 4.439-26.298 9.025-40.039 10.408-15.264 1.538-29.074-1.383-39.35-8.218.443.062.886.13 1.33.186m44.67-6.019c5.285-1.705 10.604-3.627 15.746-5.478 10.867-3.923 22.11-7.979 33.594-10.198a99 99 0 0 1 11.793-1.542c-5.895 1.032-12.226 2.813-19.147 5.377-4.846 1.796-9.687 3.83-14.37 5.803-8.086 3.401-16.448 6.918-25.027 9.272-11.578 3.18-23.731 4.278-35.7 3.28 12.478-.42 24.266-3.66 33.11-6.514m62.979 8.507c-8.28 1.541-16.531 3.769-24.507 5.928-4.877 1.317-9.917 2.683-14.905 3.871-10.957 2.615-25.418 5.355-39.885 3.416-13.43-1.803-25.215-7.739-32.747-16.415q.525.1 1.052.191c6.773 4.927 15.207 8.071 24.658 9.266 5.314.672 10.955.731 16.795.138 13.834-1.395 27.253-5.998 40.23-10.448l3.139-1.074c14.474-4.944 28.69-9.399 43.502-9.645 14.789-.25 30.243 3.539 50.089 12.273.553 1.17 1.111 2.334 1.664 3.504-20.685-5.851-41.484-6.136-69.085-1.005m-34.23 22.786c6.543-.945 13.169-2.133 19.577-3.286 13.952-2.509 28.378-5.102 42.726-5.245 23.335-.234 43.913 7.567 56.474 21.412a1108 1108 0 0 1 1.931 4.598c-8.407-9.951-22.145-16.325-37.928-17.551-14.712-1.142-29.579 1.958-43.54 5.23l-3.884.916c-12.766 3.018-25.963 6.143-39.22 6.401-18.977.368-37.852-5.203-53.603-15.751-.065-.078-.136-.157-.201-.234 20.061 7.625 42.265 5.725 57.667 3.51m-25.276 22.256c-14.043-3.912-26.624-13.487-34.272-25.917.49.34.985.68 1.476 1.009 12.083 13.923 29.242 23.677 47.403 27.16-4.903-.226-9.816-.917-14.607-2.252m101.336-13.126c-13.335.74-26.446 4.287-39.131 7.715-3.787 1.021-7.701 2.083-11.55 3.05-8.828 2.213-19.271 4.389-29.996 4.666-19.049-2.177-37.496-11.445-50.657-25.406a94.6 94.6 0 0 0 37.96 13.46 93 93 0 0 0 13.463.718c13.35-.257 26.594-3.394 39.402-6.424l3.884-.916c13.896-3.257 28.686-6.343 43.277-5.21 16.093 1.247 30.004 7.904 38.168 18.263.13.162.345.2.524.113.55 1.326 1.104 2.664 1.661 4.025-12.549-11.516-32.137-14.878-47.005-14.054m131.189-87.525c-6.986 16.347-18.656 30.191-26.824 39.186-5.164 5.682-10.359 10.062-15.391 14.3-5.39 4.541-10.967 9.238-16.447 15.51l-1.117 1.278c-9.436 10.78-18.385 21.002-21.052 34.954-.429-1.05-.847-2.087-1.268-3.107 1.343-16.528 9.162-33.922 23.245-51.705 6.576-8.299 13.965-16.154 21.105-23.745 5.918-6.292 12.042-12.801 17.68-19.54 13.982-16.707 22.387-32.33 25.622-47.618 2.217 12.63.307 26.776-5.553 40.487"/></svg>