<svg xmlns="http://www.w3.org/2000/svg" width="148" height="40" fill="none"><path fill="#B71237" stroke="#231F20" stroke-width=".302" d="M16.515.987.666.99.633 13.67c0 15.543 15.586 25.444 15.743 25.544l.05.032c.04-.003.139-.07.139-.07 2.649-1.733 15.86-11.105 15.86-25.428l.004-12.733C32.394.982 16.515.987 16.515.987Zm15.82 11.234H.949v-1.83h31.388z"/><path fill="#fff" d="m7.442 13.687-.039.196c-.024.122-.104.207-.226.186l-.448-.077c-.185-.05-.343-.09-.491-.04a1.5 1.5 0 0 0-.254.228l.073.034c.127.048.336.128.39.383.007.195.12.352.22.49l.078.114a.24.24 0 0 1 .054.136q.002.053-.045.107l-.21.243-.12.13c0 .006-.097.246-.154.388.046.086.098.164.157.175.188-.047.363-.023.505.012l.296.036a.2.2 0 0 1 .056-.002l.118-.01c.131-.02.312-.045.456.072l.143.308c.029.09.05.18.05.26 0 .118-.021.225-.04.32l-.027.17a.4.4 0 0 1-.039.11c-.28.411-.664.737-1.106.949l.033-.02a.1.1 0 0 0-.01.051q.002.013.005.026c.06.047.23.029.352.015l.12-.014c.205-.01.383-.075.571-.146l.609-.165c.105-.028.18.03.23.126.114.23.25.395.372.456-.01-.01.009-.015.112-.103.117-.1.314-.267.611-.155q.031.014.059.033c.2.154.262.373.312.55.038.129.07.242.145.32a.24.24 0 0 1 .065.129 1 1 0 0 1 .005.063c0 .23-.198.316-.266.345l-.038.018c-.02.009-.039.028-.06.031l-.498.083a1.2 1.2 0 0 0-.426.095c.018.023.023.041.06.06.236.126.53.173.841.221l.17.027c-.008-.001.39-.012.39-.012l.627.017c.083.003.131.045.17.118.04.074.01.157-.034.228l-.105.164a.3.3 0 0 1-.066.07l-1.014.683c-.041.023-.6.22-.6.22l-.783.309c-.01.003-.045.02-.054.02-.458.119-.769-.134-1.02-.336-.179-.145-.333-.27-.51-.257a.6.6 0 0 0-.446.173c-.047.046-.064.126-.064.208 0 .027.006.054.01.08l.048.021c.093.033.312.113.312.387-.012.353-.16.632-.302.904-.123.235-.24.457-.258.706q-.004.025-.003.05c0 .051.01.1.04.111l.03.014a.12.12 0 0 0 .077-.023l.061-.095c.056-.102.15-.273.388-.32a.2.2 0 0 1 .071-.003c.406.047.631.003.778-.154a.24.24 0 0 1 .131-.07.45.45 0 0 1 .355.104.45.45 0 0 1 .164.33l.01.109c.242-.044.417-.27.618-.611l.08-.136c.03-.052.1-.09.157-.108l.165-.046c.188-.062.448-.147.703.018a.23.23 0 0 1 .101.142 1 1 0 0 1 .021.178c0 .217-.092.398-.169.55l-.075.188c.39-.09.665-.427.95-.794l.173-.216c.053-.124.175-.374.49-.374q.035 0 .067.01c.133.041.193-.001.38-.265l.307-.344c.043-.049.07-.043.134-.043h.125c.062 0 .115-.007.16.037.044.043.062.07.062.13l-.001.297-.002.013.306-.114.43-.266a.27.27 0 0 1 .19-.024l1.575.409c.32.12.382.342.382.528 0 .07-.009.134-.015.186q-.014.09-.014.145-.001.065.028.092a.23.23 0 0 1 .05.253c-.064.15-.229.328-.648.328l-.8.045c-.658.012-1.28.023-1.733.45 0 .002-.43.43-.43.43a.24.24 0 0 1-.156.068c-.306.01-.534.156-.798.326-.239.154-.486.308-.805.367-.23.127-.489.128-.702.12-.188-.008-.3-.004-.378.034.205.246.585.362.935.457.034.012.197.033.197.033.169.01.425.023.55.274a.3.3 0 0 1 .023.08c.021.212.06.297.142.33l.036-.02c.08-.048.292-.174.51.013.034.037.373.368.373.368l.414.426c.07.072.057.146.01.237-.185.34-.55.28-.768.244l-.18-.021c-.018-.021-.236.014-.236.014-.34.06-.806.143-1.123-.243l.04.039-.314-.263c-.255-.228-.478-.42-.787-.428-.324.092-.47.191-.5.36l-.002.012.079.085.136.15c.036.04.05.08.05.13q0 .02-.003.04c-.008.066-.056.113-.112.15-.266.176-.562.445-.562.762q0 .061.015.125c0-.003.014.026.025.048.028-.007.1-.029.1-.029.12-.045.3-.113.508 0 .07.038.112.094.118.172l.018.244c.01.268.043.392.131.458l.125-.05c.18-.093.453-.233.772 0 .056.022.14-.016.324-.12l.299-.142c.03-.015.033-.01.068-.01.557 0 .782.484.93.804l.001.003.02.015c.246.192.453.328.632.278.008-.024.021-.045.021-.077q-.001-.078-.022-.192c-.012-.07-.027-.157-.027-.247 0-.192.065-.404.353-.542.036-.014.55-.05.55-.05l.328-.01.07-.005c.483.045.865.053 1.034-.287.007-.014.345-.59.401-.684l.076-.394a.23.23 0 0 1 .158-.178c.178-.056.353.01.494.06l.12.037a3 3 0 0 1-.141-.824q0-.21.03-.43c.104-.398.275-.713.5-.938a.23.23 0 0 1 .25-.051l.104.042a.21.21 0 0 1 .138.16l.1.518c.06.338.114.655.254.946.023.048.035.068.021.12l-.19.77-.161.608a1.98 1.98 0 0 1-1.058 1.293c.006.003-.026.048-.016.074.007.01.117.005.206.002l.216.006a2.5 2.5 0 0 0 1.533-.794.23.23 0 0 1 .231-.067c.118.032.209-.015.36-.1.184-.105.461-.262.795-.061.133.098.32.083.52.066.31-.026.83-.07.973.534.004.014.001.082.003.097l.013.28c.035.288.1.822-.47.977-.046.012-.049.023-.094.005l-.589-.219c-.459-.225-.667-.29-.898-.023-.056.056-.124.14-.092.2.078.137.278.484-.015.733a.3.3 0 0 0 .05-.059l-.032.055c-.148.252-.248.444-.18.613-.001-.007.03.05.233.006.238-.099.487-.002.688.077l.287.084c.029.01.101.03.125.047l.09.072c.19.148.37.277.564.3l.018-.045.127-.25c.03-.03.386-.208.386-.208.239-.083.263-.114.263-.204.07-.38.332-.719.705-.948a.4.4 0 0 1 .137-.032c.083-.004.347-.089.504-.2l-.027-.026-.095-.101a.4.4 0 0 1-.082-.132.8.8 0 0 1-.018-.16c0-.264.142-.487.261-.67.118-.184.184-.3.184-.41a.35.35 0 0 0-.078-.206c-.02-.027-.029-.036-.035-.07l-.068-.378c-.03-.242-.055-.451-.223-.58-.008-.006-.41-.211-.41-.211l-.444-.211c-.08-.04-.106-.106-.106-.195q0-.305.382-.352l.056-.009c.29-.08.53.012.723.086.195.074.262.076.315.047-.029-.161-.19-.338-.338-.485-.253-.182-.57-.258-.906-.338-.51-.122-1.038-.249-1.388-.74a.23.23 0 0 1 .025-.297l.062-.061a.23.23 0 0 1 .213-.062c.636.139 1.265.003 1.683-.363.25-.327.568-.723 1.054-.887.345-.275.42-.726.42-1.32.025-.298.149-.555.357-.763.008-.008.453-.22.453-.22.146-.046.2-.072.23-.097-.266-.131-.56-.252-.869-.22a.24.24 0 0 1-.135-.028.34.34 0 0 1-.19-.253l-.002-.044c0-.155.115-.269.187-.338l.036-.036c.015-.015.04-.044.058-.055l.496-.284c.654-.348 1.055-.602 1.055-1.14v-.019l-.022-.054a1 1 0 0 0-.239.139l-.342.23c-.316.18-.68.257-1.031.333-.348.075-.678.145-.951.315a.23.23 0 0 1-.123.035.3.3 0 0 1-.288-.187.3.3 0 0 1-.026-.133c0-.11.046-.219.11-.282.106-.15.281-.248.437-.335.185-.104.302-.175.362-.316l.064-.181c.095-.28.218-.623.567-.773l.316-.164c.069-.026.086-.055.128-.079-.021-.012-.017-.016-.047-.027-.552-.172-1.087.255-1.357.524a.2.2 0 0 1-.072.05l-.207.086c-.36.148-.732.302-.978.563a.23.23 0 0 1-.095.06.36.36 0 0 1-.322-.051.36.36 0 0 1-.148-.292c-.086-.854.595-1.473 1.141-1.972l.132-.121c.015-.014.08-.044.098-.053l.335-.174c.262-.166.59-.372 1-.185.32.17.574.287.844.198.177-.064.292-.22.424-.402.129-.175.274-.371.502-.509.238-.084.431-.022.587.026.065.021.187.06.22.048l.03-.051a.4.4 0 0 0 .008-.068c0-.154-.107-.299-.27-.507l-.196-.269a.2.2 0 0 1-.038-.113q0-.044.018-.092.095-.248.095-.507c0-.403-.172-.8-.486-1.078a1.06 1.06 0 0 0-.507-.134c.025.042.07.111.07.111l.198.432q.007.08.006.153c0 .947-.82 1.358-1.483 1.69l-.572.313c-1.342.673-3.108 1.753-3.206 3.522.02.91.397 1.779 1.094 2.497l.035.045.246.387c.276.415.58.874.58 1.423q0 .2-.06.417c-.233.54-.842.54-1.07.54-1.32-.087-2.039-1.42-2.564-2.392l-.08-.15-.109-.232c-.145-.308-.296-.627-.332-1.015a.23.23 0 0 1 .066-.185c.062-.064.236-.192.479-.029.027.021.264.399.264.399a1 1 0 0 0 .07.136c.02-.067.06-.129.06-.2 0-.23-.097-.483-.192-.729l-.029-.077c-.07-.117-.212-.244-.363-.379-.198-.176-.402-.357-.521-.623a.2.2 0 0 1-.02-.08l-.001-.038c0-.314.28-.39.386-.42l.067-.02a3.9 3.9 0 0 1-.121-1.594l.001-.014c0-.017-.006-.017-.006-.02 0-.001.005-.004.017-.02l.299-.32c.093-.057.098-.069.1-.09a4.5 4.5 0 0 1-.132-1.15q.001-.232.01-.457c.004-.034.11-.38.11-.38.057-.156.099-.277.099-.383 0-.039-.014-.074-.027-.11-.208-.127-.242-.35-.252-.47l-.02-.12-.013-.006c.027.012.036.01.064.01-.553 0-.993-.205-1.418-.403l-.485-.212c-.112-.03-.222.012-.39.083l-.259.09-.273.05c-.285.047-.531.086-.688.255-.09.11-.091.242-.087.482l.004.147q0 .038-.013.074a.34.34 0 0 1-.199.224c-.15.059-.291-.018-.367-.059l-.033-.018c-.413-.228-.578-.64-.463-1.066.02-.072-.043-.133-.07-.155a.56.56 0 0 0-.455-.064c-.13.046-.197.181-.292.4l-.056.123-.003.051c0 .145.037.297.094.39.181.185.447.332.727.488l.672.43c.045.03.056.056.074.106a.7.7 0 0 1 .035.21c0 .246-.129.444-.239.592l.017.013c.075.055.225.163.225.358a.4.4 0 0 1-.01.083.24.24 0 0 1-.17.18 1.25 1.25 0 0 1-1.115-.233c-.005-.004-.201-.264-.201-.264-.063-.108-.098-.15-.139-.166a.7.7 0 0 0-.092.178l-.094.198c.015-.027-.02.163-.02.163-.019.17-.041.383-.21.53a.22.22 0 0 1-.177.056l-.187-.021c-.852-.286-1.621-.711-2.473-1.35-.371-.282-.647-.661-.914-1.028l-.207-.28a.2.2 0 0 1-.036-.07l-.077-.269c-.142-.513-.27-.857-.636-.969zM6.32 16.399c.032-.013.06-.01.093-.018a.3.3 0 0 0-.093.018m7.66.273c.037-.045.06-.05.06-.081v-.003c-.021.026-.044.065-.06.084m4.122 2.838c0 .008.016.003.03.047-.008-.024-.005-.053-.01-.077a.1.1 0 0 0-.02.03m-5.06 3.526.008-.003c-.008-.001-.014-.001-.03-.016zm.018.044q.005-.039.006-.04l-.001-.002zm-4.52 1.351.014-.002c-.004 0-.006.002-.015.002m7.57 4.49q.001.037.017.08c-.009-.028-.006-.058-.015-.087zm.253 2.238.063.001z"/><path stroke="#000" stroke-width=".113" d="M.82 13.664c0-3.7.002-7.82 0-12.64H32.45s-.005 1.885-.005 12.719c0 16.016-15.947 25.405-15.947 25.405S.82 29.287.82 13.664Z"/><path fill="#000" d="M22.898 32.1h.003l-.01-.007h.023-.006.006-.003.002c-.104-.085-.231-.257-.3-.313-.126-.558.744-.931.309-1.532-.103-.352-.02-.807-.373-1.076-.247-.207-.58-.248-.87-.435 0-.145.188-.104.29-.145.456-.123.87.435 1.202.021.04-.31-.25-.58-.456-.786-.684-.475-1.718-.29-2.235-1.014l.061-.062c.663.145 1.388.021 1.884-.414.29-.373.58-.745 1.034-.87.456-.352.518-.93.518-1.512a.98.98 0 0 1 .29-.599c.249-.228.89-.145.765-.62-.352-.186-.724-.352-1.138-.311-.187-.103.04-.248.104-.33.663-.435 1.698-.704 1.656-1.678-.062-.102-.04-.268-.207-.29-.29.043-.456.311-.724.435-.62.352-1.407.29-2.008.663-.125 0-.083-.165-.042-.207.228-.31.682-.33.848-.724.124-.311.186-.725.537-.849.207-.164.54-.164.663-.413-.021-.145-.187-.228-.31-.27-.6-.186-1.18.165-1.593.58-.435.186-.932.35-1.264.704-.062.02-.164-.021-.164-.125-.083-.828.662-1.428 1.2-1.925.394-.104.724-.58 1.18-.371.31.164.642.329 1.015.207.455-.166.558-.684.972-.932.31-.104.744.352.93-.083.105-.456-.268-.724-.475-1.056a1.67 1.67 0 0 0-.455-1.842c-.248-.145-.559-.249-.849-.166-.228.29.207.477.228.765.104 1.18-1.18 1.45-1.944 1.946-1.449.725-3.209 1.842-3.312 3.704.021 1.034.456 1.946 1.16 2.67.372.642.972 1.241.744 2.05-.145.33-.538.373-.848.373-1.243-.083-1.925-1.469-2.443-2.421-.166-.373-.373-.725-.413-1.16.062-.061.123-.04.187 0 .228.207.207.704.599.642.31-.434.083-.952-.083-1.387-.228-.392-.703-.6-.89-1.014-.022-.311.434-.124.455-.433a3.8 3.8 0 0 1-.125-1.594c.083-.228.415-.207.415-.496-.145-.517-.145-1.035-.124-1.594.062-.33.33-.682.145-1.033-.371-.105-.062-.559-.413-.663-.704 0-1.221-.373-1.822-.6-.311-.082-.538.105-.787.165-.392.083-.807.083-1.076.373-.187.226-.145.475-.145.786-.062.186-.228.021-.31 0-.289-.164-.393-.475-.31-.786.04-.145-.021-.29-.145-.394-.187-.124-.456-.186-.682-.103-.29.103-.373.434-.497.683-.021.206.021.456.124.62.413.435.993.6 1.449.972.083.25-.083.497-.248.704-.02.227.311.227.269.434-.33.083-.663.021-.912-.186-.166-.144-.207-.455-.475-.496-.25 0-.29.332-.394.496-.083.186-.021.497-.186.642l-.187-.02c-.848-.29-1.614-.745-2.36-1.304-.434-.332-.745-.828-1.075-1.263-.165-.518-.248-1.24-.91-1.407-.146.021-.333.04-.352.207l-.043.207c-.33 0-.662-.228-1.014-.104-.166.104-.33.227-.435.393-.02.373.435.228.497.518 0 .269.207.497.33.683-.082.146-.247.227-.33.372l-.208.518c.084.166.187.373.394.394.29-.125.537.083.848.042.186.02.497-.146.518.165.104.247 0 .475-.021.703-.27.393-.622.684-1.015.87-.125.083-.125.268-.083.392.145.208.476.124.704.104.434-.02.765-.269 1.178-.31.105.206.27.455.477.558.331.083.414-.373.745-.25.268.207.187.602.434.849.021.145-.123.145-.207.207-.351.124-.848 0-1.116.29-.043.166.102.31.227.372.311.165.704.207 1.077.27.33.041.682-.082.993 0l-.104.165-1.015.682c-.455.188-.952.29-1.366.518-.641.165-.911-.643-1.49-.6a.81.81 0 0 0-.58.227c-.144.145-.164.373-.123.559.083.187.352.104.352.31-.021.58-.518.994-.559 1.595-.02.143.021.329.188.392.104.062.268.021.351-.062.124-.123.124-.31.33-.351.352.04.725.04.973-.228.124-.02.249.104.249.207 0 .144 0 .31.145.372.518.021.767-.516.993-.889.228-.04.477-.208.703-.062.083.352-.206.6-.268.932.02.083.123.164.228.185.62-.083.972-.66 1.345-1.117.062-.125.123-.29.31-.29.476.144.6-.434.89-.643h.125c.042.145-.062.25 0 .395.207.226.435-.022.641-.062l.435-.27c.518.164 1.055.29 1.594.413.435.166 0 .62.269.89-.062.146-.25.188-.435.188-.91.122-1.965-.125-2.69.558l-.434.435c-.683.021-1.034.6-1.656.703-.414.29-1.055-.123-1.326.352.207.435.725.58 1.18.703.188.084.497-.02.601.186.022.207.062.456.311.537.186.06.29-.206.456-.061.228.31.559.455.746.745-.147.269-.498.104-.746.104l-.04-.02c-.373.041-.849.227-1.139-.124-.394-.29-.703-.745-1.263-.745-.31.083-.642.207-.703.559-.041.207.164.29.247.413-.373.25-.765.642-.641 1.137.04.104.083.228.228.228.187 0 .33-.165.517-.063.043.312-.04.788.33.932.29-.042.497-.353.808-.125.311.145.559-.145.83-.228.434 0 .598.415.745.725.268.207.641.537 1.013.33.249-.352-.228-.807.249-1.034.29-.083.537.02.827-.042.456.042 1.014.083 1.263-.414l.414-.704.083-.434c.27-.083.662.352.786-.062a2.7 2.7 0 0 1-.123-1.283c.082-.31.227-.6.434-.809l.104.043c.124.516.144 1.034.372 1.51-.041.477-.29.89-.352 1.367-.125.496-.477.889-.931 1.118-.104.083-.186.228-.124.371.124.228.435.105.661.145a2.76 2.76 0 0 0 1.677-.868c.456.124.682-.434 1.097-.187.435.332 1.221-.247 1.387.456-.061.33.248.93-.29 1.076-.538-.083-1.158-.786-1.696-.164-.125.123-.207.29-.125.454.083.145.187.33.04.455-.144.248-.351.558-.226.869.103.186.311.186.497.145.31-.124.6.145.91.166.269.207.539.456.89.433.145-.082.124-.269.228-.392.228-.188.704-.147.704-.559.062-.31.326-.586.595-.752.058.028.664-.12.827-.415"/><path stroke="#000" stroke-width=".022" d="M22.9 32.093h-.008l.009.007h-.003c-.163.295-.769.443-.827.415-.27.166-.533.441-.595.752 0 .412-.476.371-.704.559-.104.123-.083.31-.227.392-.352.023-.622-.226-.891-.433-.31-.021-.6-.29-.91-.166-.186.04-.394.04-.497-.145-.125-.311.082-.62.227-.87.146-.123.042-.309-.041-.454-.082-.164 0-.33.125-.454.538-.622 1.158.081 1.697.164.537-.146.228-.745.29-1.076-.167-.703-.953-.124-1.388-.456-.415-.247-.641.311-1.097.187a2.76 2.76 0 0 1-1.677.868c-.226-.04-.537.083-.661-.145-.062-.143.02-.288.124-.37.454-.23.806-.623.931-1.12.062-.476.31-.889.352-1.365-.228-.477-.248-.995-.372-1.511l-.104-.043c-.207.209-.351.498-.434.81a2.7 2.7 0 0 0 .123 1.282c-.123.414-.516-.02-.786.062l-.083.433-.414.705c-.249.497-.807.456-1.263.414-.29.062-.537-.04-.827.042-.477.227 0 .682-.25 1.034-.37.207-.744-.123-1.012-.33-.147-.31-.311-.725-.746-.725-.27.083-.518.373-.829.228-.31-.228-.517.083-.807.125-.371-.144-.288-.62-.33-.932-.188-.102-.331.063-.518.063-.145 0-.188-.124-.228-.228-.124-.495.268-.888.641-1.137-.083-.123-.288-.206-.247-.413.061-.352.392-.476.703-.559.56 0 .87.455 1.263.745.29.351.766.165 1.139.125l.04.02c.248 0 .6.164.746-.105-.187-.29-.518-.434-.746-.745-.166-.145-.27.122-.456.061-.249-.081-.29-.33-.31-.537-.105-.207-.414-.102-.601-.186-.456-.123-.974-.268-1.18-.703.27-.475.911-.062 1.325-.352.621-.104.973-.682 1.656-.703l.434-.435c.725-.684 1.78-.436 2.69-.558.186 0 .373-.042.435-.187-.269-.27.166-.725-.269-.891a20 20 0 0 1-1.594-.414l-.435.27c-.206.041-.434.289-.641.063-.062-.145.042-.25 0-.395h-.125c-.29.209-.414.787-.89.643-.187 0-.248.165-.31.29-.373.456-.725 1.034-1.345 1.117-.104-.02-.207-.102-.228-.185.062-.332.351-.58.268-.932-.226-.146-.475.021-.703.062-.226.373-.475.91-.993.89-.145-.063-.145-.229-.145-.373 0-.103-.125-.227-.25-.207-.247.268-.62.268-.971.228-.207.04-.207.227-.33.351-.084.083-.248.124-.352.062-.167-.063-.209-.249-.188-.392.041-.601.538-1.015.559-1.594 0-.207-.269-.124-.352-.311-.04-.186-.021-.414.124-.559a.81.81 0 0 1 .58-.226c.578-.044.848.764 1.49.6.413-.229.91-.331 1.365-.519l1.015-.682.104-.164c-.311-.083-.663.04-.993 0-.373-.064-.766-.106-1.077-.27-.125-.062-.27-.207-.227-.373.268-.29.765-.166 1.117-.29.083-.062.227-.062.206-.207-.247-.247-.166-.642-.434-.848-.331-.124-.414.332-.745.249-.208-.103-.372-.352-.477-.559-.413.042-.744.29-1.178.311-.228.02-.559.104-.704-.104-.042-.124-.042-.31.083-.392a2.56 2.56 0 0 0 1.015-.87c.02-.228.125-.456.02-.703-.02-.311-.331-.145-.517-.165-.311.041-.559-.167-.848-.042-.207-.021-.31-.228-.394-.394l.208-.518c.083-.145.248-.226.33-.372-.123-.186-.33-.414-.33-.683-.062-.29-.518-.145-.497-.518.105-.166.269-.29.435-.394.352-.123.684.105 1.014.105l.043-.207c.02-.166.206-.186.351-.207.663.166.746.89.91 1.407.331.435.642.931 1.077 1.263.745.559 1.51 1.015 2.36 1.304l.186.02c.165-.145.103-.456.186-.642.104-.164.145-.496.394-.496.268.04.31.352.475.496.25.207.581.27.912.186.042-.207-.29-.207-.269-.434.165-.207.33-.455.248-.704-.456-.373-1.036-.537-1.45-.972a1.05 1.05 0 0 1-.123-.62c.124-.25.207-.58.497-.683.226-.083.495-.02.682.103.124.104.186.25.145.394-.083.31.021.622.31.786.082.021.248.186.31 0 0-.31-.042-.56.145-.786.269-.29.684-.29 1.076-.373.25-.06.476-.247.787-.164.6.226 1.118.599 1.822.599.351.104.042.558.413.662.186.352-.083.704-.145 1.034-.02.559-.02 1.077.124 1.594 0 .289-.332.268-.415.495a3.8 3.8 0 0 0 .125 1.595c-.02.309-.477.122-.456.433.188.415.663.622.891 1.014.166.435.392.953.083 1.387-.392.062-.371-.434-.6-.641-.063-.041-.124-.062-.186 0 .04.434.247.786.413 1.159.518.952 1.2 2.338 2.443 2.421.31 0 .703-.042.848-.373.228-.809-.372-1.408-.744-2.05-.704-.724-1.139-1.636-1.16-2.67.103-1.862 1.863-2.98 3.312-3.704.764-.496 2.048-.765 1.944-1.946-.02-.288-.456-.475-.228-.765.29-.083.601.021.849.166.517.456.703 1.2.455 1.842.207.332.58.6.476 1.056-.187.435-.62-.02-.931.083-.414.248-.517.766-.973.932-.372.122-.704-.043-1.014-.207-.456-.209-.786.267-1.18.371-.538.497-1.283 1.098-1.2 1.925 0 .104.102.145.164.125.332-.353.829-.518 1.264-.705.413-.414.993-.765 1.592-.58.124.043.29.126.311.27-.124.25-.456.25-.663.414-.351.124-.413.538-.537.849-.166.393-.62.413-.848.724-.04.042-.083.207.042.207.6-.373 1.387-.311 2.008-.663.268-.124.434-.392.724-.434.166.02.145.187.207.29.042.973-.993 1.242-1.656 1.676-.063.083-.291.228-.104.33.414-.04.786.126 1.138.312.125.475-.516.392-.765.62a.98.98 0 0 0-.29.6c0 .58-.062 1.159-.518 1.512-.454.124-.744.496-1.034.87-.496.434-1.22.558-1.884.413l-.061.062c.517.724 1.551.539 2.235 1.014.207.207.497.476.456.786-.332.414-.746-.144-1.202-.02-.102.04-.29 0-.29.144.29.188.623.228.87.435.353.269.27.724.373 1.076.435.601-.435.974-.31 1.532.07.056.197.228.3.313m-.011 0h-.003m.003 0h.013m0 0h-.003m.003 0h-.006.003"/><path fill="#fff" d="M13.427 13.983c-.062.27-.04.517.124.745.434.477 1.097.622 1.366 1.18l-.166-.02c-.516-.331-.993-.725-1.53-.974-.208-.145-.353-.373-.312-.642.042-.185.104-.392.311-.433.104-.021.207.04.207.143"/><path fill="#fff" d="M17.853 14.481c.083.124.02.393.268.414.062 0 .124.062.124.123a3.5 3.5 0 0 1-.124.642c-.062.166-.29.228-.29.456 0 .124.186.186.207.31l-.02.83c-.519.164-.27.807-.312 1.138-.062.268 0 .537-.02.807-.125.062-.351.042-.415.228 0 .311.145.559.248.808.187.268.58.33.6.683-.268.021-.517-.166-.764-.249-.394-.206-.663-.62-.89-.993-.061-.062-.144-.062-.206.02-.043.249-.062.6-.29.765-.269-.165-.248-.827-.684-.62-.145.889-.744 1.594-1.262 2.338-.124.042-.145.228-.31.185.268-.682.476-1.51.206-2.276-.062-.145-.207-.104-.31-.04-.125.08-.187.29-.374.226-.145-.227.145-.58-.187-.725-.29.062-.454.31-.703.435-.62.373-1.366.518-2.11.539a.6.6 0 0 1-.352-.104c.186-.186.456-.227.682-.352.87-.518 1.45-1.469 2.153-2.174-.062-.309-.331-.682-.041-.972.228-.02.31.248.496.311.311.166.704.269 1.036.124a.68.68 0 0 0 .518-.6c.02-.124-.062-.186-.145-.229-.083 0-.187 0-.228-.083 0-.145.104-.249.228-.268.351.02.703.765.95.145.146-.497-.309-.87-.66-1.18-.083-.103-.145-.208-.105-.35.269-.167-.061-.393.145-.58.352-.27.89-.105 1.262-.373.643.02 1.099.496 1.679.641M8 14.294c.021.104.04.206 0 .29-.083.082-.187 0-.249-.041-.124-.105-.186-.27-.145-.373.021-.435.394-.043.394.123"/><path fill="#fff" d="M7.713 14.914c.558.27.973.827 1.366 1.304.89.746 1.842 1.387 2.92 1.677.04.166-.084.311-.208.435-.351.373-.641.807-1.014 1.138-.083.021-.164.021-.228-.021-.373-.352-.33-1.076-.972-1.098-.207-.02-.373.25-.58.104-.206-.165.062-.538-.247-.621-.352.145-.642.538-1.057.475.27-.454.746-.95.497-1.552-.062-.27-.228-.558-.476-.66-.247-.022-.392.268-.641.144-.104-.228-.559-.124-.373-.413.145-.25.765-.29.518-.704-.166-.228-.56-.104-.601-.415.042-.186-.124-.435 0-.558.497-.041.806.455 1.096.765M25.88 15.163c.062.33-.25.537-.166.848.083.166.352.207.332.393-.787.02-.931 1.056-1.718 1.035-.33-.062-.58-.413-.973-.249-1.015.476-2.11 1.18-2.38 2.38-.123.456-.082.973.248 1.346a.31.31 0 0 0 .269 0c.207-.373.373-.869.87-.973.29-.104.579-.206.848-.372.04 0 .102-.043.123.04-.123.352-.29.787-.682.912-.29.248-.56.537-.6.912-.022.185-.043.433.102.578.145.124.311-.04.435-.124.539-.663 1.345-.746 2.152-.786.041.061-.062.185-.145.206-.682.228-1.325.787-1.551 1.47a.32.32 0 0 0 .166.227c.33-.04.599-.247.952-.207.082.228-.27.228-.351.414-.642.558 0 1.822-1.077 2.007-.31.085-.268.456-.475.642-.352.456-.931.58-1.511.518-.414.04-.765-.559-1.117-.166.04.413.373.641.58.993.517.496 1.242.537 1.903.745a.3.3 0 0 1 .187.165c0 .145-.187.104-.31.083-.415.062-.892.124-1.305-.042-.062-.02-.124.063-.145.123.062.456.58.622.89.87.31.145.725.104.87.477v.475c.145.228.228.518.166.81-.29.328-.496.763-.27 1.2-.124.102-.311 0-.435.083-.145.309-.537.35-.641.66-.021.25-.165.478-.414.518-.207-.02-.352.083-.539.043-.125-.145.062-.375-.166-.456-.29-.062-.392.392-.703.228-.145-.083-.29-.147-.352-.29-.021-.186.166-.248.29-.33.682-.084 1.573-.208 1.82-.952.041-.351-.123-.641-.062-.952-.102-.394-.496-.643-.889-.685-.373-.103-.786.042-1.055-.227-.104-.084-.228-.166-.351-.104-.105.02-.145.165-.27.104-.103-.104-.247-.249-.372-.104-.247.497-.622 1.034-1.221 1.138-.082-.145.083-.31.145-.475.186-.394.33-.828.413-1.262.166-.228.352-.518.228-.827-.247-.704-.539-1.47-.33-2.278.145-.953-.083-1.842-.787-2.483-.394-.228-.724-.62-1.2-.703-.31-.105-.765.02-.931-.29.042-.332.394-.518.539-.808l.539-.827c.228-.042.164.29.392.269.435 0 .414-.725.87-.497.206.29.537.392.744.641.29 1.18.724 2.317 1.532 3.271.62.808 1.573 1.407 2.566 1.117.269-.228.641-.475.703-.868.269-1.885-2.131-2.815-1.945-4.677.166-1.76 1.966-2.711 3.394-3.395.787-.415 1.78-.973 1.842-1.988-.021-.104 0-.164.04-.269.289.105.268.456.289.725M13.032 20.751c.228.042.497-.247.601.062-.042.433-.062.931-.269 1.304-.207.207-.517.043-.744.145-.31.083-.373.85-.767.352-.164-.062-.268.104-.351.185-.166.394-.33.787-.62 1.098-.063.04-.167.083-.229.02-.04-.27.165-.745-.228-.828-.164-.02-.31.083-.455.145-.311-.02-.725-.02-.891.29-.04.145-.062.352-.248.373-.185-.083-.434-.145-.516-.393-.083-.062-.207-.145-.31-.042-.167.166-.229.454-.497.454-.207 0-.393-.06-.559-.145.041-.476.58-.537.91-.724.663-.145 1.16-.559 1.822-.684 1.034-.392 1.863-1.159 2.67-1.945.124-.041.25-.103.373-.103.08.168.08.394.308.436M7.982 22.654c-.187.124-.477.207-.704.105-.125-.124-.062-.352-.083-.54.062-.146.248-.104.352-.042.143.147.435.23.435.477"/><path fill="#fff" d="M16.842 25.325c-.021.31-.041.537-.207.807-.352.33-.684.765-.808 1.262 0 .352-.042.684-.062 1.015-.104.082-.187-.043-.249-.105-.166-.249-.123-.807-.558-.724-.228.249-.456.622-.311.952.187.27.558.477.352.829-.31.166-.227.641-.642.682-.62.083-1.262-.187-1.758.25-.166.144-.27.35-.352.558-.29.04-.207-.352-.352-.518-.104-.164-.31-.062-.456-.143-.228-.085-.456-.332-.724-.147-.228.124-.497.414-.765.187l-.373-.104c-.021-.124.123-.29.02-.415l-.724-.33c-.042-.062.021-.145.062-.188.6-.392 1.283.062 1.987-.062.455-.163.89-.081 1.385-.061.27.02.601.083.766-.144.104-.146.144-.351.042-.517-.207-.455-.87-.559-.953-1.098a.45.45 0 0 0-.228-.247c-.164-.06-.268.123-.434.042-.041-.145-.083-.33-.25-.394-.309 0-.682.145-.95-.062.04-.165.247-.125.373-.207.434-.083.807-.373 1.2-.558l.6-.083c.6-.972 1.82-.91 2.856-.951l1.014-.311c.354.081.437.495.499.785"/><path fill="#fff" d="M10.237 28.677c-.187.124-.435.04-.642.02-.123-.103-.166-.331-.144-.453.309-.147.641.164.786.433M19.484 32.03c.02.104-.124.083-.165.083-.083.02-.083-.042-.124-.083.021-.186.248-.083.289 0"/><path fill="#000" d="M16.798 14.811c.04.145-.062.27-.207.29-.25.021-.477 0-.663-.187-.187-.145-.083-.392-.04-.58.082-.104.226-.104.33-.042.228.125.415.332.58.52M17.981 15.163c0 .165-.083.33-.187.456-.104.062-.187.021-.228-.083a.5.5 0 0 1 .145-.456c.083-.062.249-.04.27.083M16.65 16.654l-.019.352c-.352.393-.352.993-.89 1.22-.145.022-.27-.061-.29-.206-.021-.228-.062-.518.02-.746.229-.124.29.33.476.125.083-.332.352-.58.518-.85.083-.02.145.041.186.105"/><path fill="#000" stroke="#000" stroke-width=".022" d="M.836 10.214h31.599v2.175H.834z"/><path fill="#fff" d="M24.336 10.603h3.59v1.396h-3.59zM16.527 10.603h3.588v1.396h-3.588zM8.672 10.601h3.59V12h-3.59zM1.219 10.602h3.263v1.397H1.22z"/><path fill="#000" stroke="#000" stroke-width=".022" d="M30.995 2.414c.257.322.086.772.15 1.157.277.235.878-.021.943.513.042.214-.086.365-.193.493-.194.194-.536 0-.707.215-.065.643 0 1.35 0 2.078.193.129.45.107.664.215.107.128.215.258.215.428a.43.43 0 0 1-.3.364c-.171.086-.472 0-.558.236-.086.342.023.729-.042 1.092-.235.108-.515.108-.771.108l-2.529-.022c-.235.129-.492.364-.813.236-.536-.343-1.265-.236-1.885-.257l-1.886-.02c-.342-.3-.086-.814-.193-1.18-.128-.214-.47-.128-.685-.235-.193-.086-.236-.3-.215-.471.022-.214.215-.322.408-.365.15-.086.429.064.494-.171 0-.664-.044-1.307-.022-1.928-.042-.384-.557-.15-.77-.3-.194-.128-.215-.364-.172-.578.171-.364.6-.278.921-.386l.044-.108.042-1.114.107-.086 2.935.065c.343 0 .643.15.964.257.622-.471 1.543-.236 2.293-.364.51.107 1.046.021 1.561.128ZM20.488 2.336c.129-.02.257.086.364.15.107.407-.02.75.086 1.135.278.107.686.02.835.364.065.149.065.407-.042.535-.215.278-.707.022-.858.343-.043.771-.065 1.307 0 2.036.215.215.6.043.793.322.107.128.15.278.107.45-.172.279-.536.279-.835.342-.128.107 0 .3-.063.45-.107.278.15.622-.172.793-.879.128-1.713-.044-2.615.02l-.857.022c-.235.15-.515.385-.815.214l-.536-.235c-.643.02-1.242-.021-1.885 0-.429-.021-1.028.172-1.307-.236 0-.342.065-.685-.022-1.028-.321-.107-.857.043-1.027-.364-.043-.128 0-.3.042-.428.235-.343.771-.042 1.007-.322l-.022-.943c.064-.45-.02-.814-.02-1.242-.322-.129-.88.042-.943-.45-.042-.257.108-.471.343-.513.215-.065.515.042.622-.15l.063-1.007c.257-.428.879-.172 1.265-.235l1.95.021c.3.042.58.343.879.15 1.156-.471 2.463-.065 3.663-.194ZM6.014 2.572c1.049-.45 2.228-.129 3.386-.194.298.065.75-.149.941.172 0 .343 0 .665.022 1.007.107.236.45.043.643.172.107.064.235.129.258.257.063.15.02.321-.065.47-.214.236-.492.15-.771.215l-.087.129c.044.621-.128 1.178 0 1.778-.02.128-.063.3.087.385.3 0 .599 0 .813.193.086.15.086.342.042.513-.128.643-1.114-.086-1.006.664 0 .28.063.664-.043.92-1.157 0-2.335-.085-3.428-.02-.193.172-.45.279-.729.3-.235-.042-.407-.172-.599-.3-1.05-.043-2.078-.043-3.085-.064-.322-.279-.086-.729-.193-1.136-.172-.193-.43-.043-.62-.151-.152-.021-.194-.17-.28-.278 0-.235 0-.429.172-.578.172-.128.408-.107.622-.128L2.2 6.79c-.065-.706.107-1.37-.042-2.12-.107-.15-.3-.021-.429-.129-.193-.042-.385-.107-.45-.321-.042-.172-.086-.343.086-.492.236-.257.643.042.858-.215l.086-1.027c.172-.3.578-.15.878-.15.513-.107 1.157-.021 1.713 0 .384.021.77.086 1.113.236Z"/><path fill="#fff" d="m5.865 2.84.086.194c.043 1.435.043 2.892.043 4.392l-.043.557c-.363.021-.729-.172-1.135-.128-.407-.044-.857.042-1.22-.065-.215-.492-.064-.986-.108-1.522.021-1.071.042-2.379.042-3.535 0-.086.107-.128.17-.15.752.064 1.566-.13 2.165.257"/><path fill="#fff" d="M3.015 2.71c-.194.15-.45.43-.364.686.086 1.8 0 3.405.086 5.099l.15.172c.837 0 1.758-.086 2.571.065.043.021.043.086.022.128-.215.086-.473.042-.708.042L2.586 8.86c-.15-.128-.086-.428-.086-.6 0-.215.063-.472-.172-.6-.3-.065-.6.021-.793-.214.15-.429.837-.086.965-.557.063-.793-.063-1.585-.021-2.335-.086-.429-.557-.3-.858-.364-.042-.042-.107-.107-.086-.193.258-.257.772.042.965-.322.086-.342.021-.664.063-.985.107-.108.3-.108.45-.065v.086zM9.056 2.732c0 1.735 0 3.385-.021 5.077-.857.086-1.82-.063-2.678.172-.193-.172-.042-.45-.086-.685-.042-.557 0-1.179-.02-1.757.02-.836-.043-1.778.02-2.593.129-.257.429-.343.708-.343l2.014.021z"/><path fill="#fff" d="M10.043 2.71c.064.343-.086.793.129 1.135.214.129.535.064.75.108.086.086.063.214.02.3-.235.235-.728-.065-.857.321 0 .835-.042 1.65.022 2.508l.128.107c.278.042.62-.065.814.15.02.128 0 .257-.129.3-.279.063-.685-.086-.836.214-.065.343.042.685-.065 1.028l-.15.065-3.021-.042c-.064-.043 0-.086.02-.129l.301-.107 2.443.023c.256-.065.256-.385.277-.58-.02-1.2 0-2.249-.02-3.407-.022-.578.085-1.135-.043-1.692-.021-.128-.214-.214-.236-.364.132-.066.369-.066.453.062M23.84 2.69c-.041.17-.256.298-.32.47.02 1.757 0 3.665.064 5.485l.15.086c.943.022 1.95-.193 2.763.194.044.02.022.02 0 .042-1.029-.021-2.057.065-3.064-.021l-.086-.107c-.044-.385.043-.75-.128-1.093-.237-.215-.922.063-.75-.429.256-.193.664.065.815-.256 0-.9.042-1.694-.021-2.529-.193-.256-.557-.086-.814-.15-.086-.085-.15-.214-.065-.32.28-.236 1.093.064.944-.6.086-.278-.13-.814.256-.835.086-.001.194-.024.257.062M30.824 2.732c.086.407-.086.813.15 1.179.256.064.664-.086.792.172-.02.514-.727.107-.878.514.065.814-.064 1.478.021 2.357-.086.065-.107.15-.044.237.236.193.536-.129.772.086.149.042.064.172.064.258-.193.277-.664-.044-.792.321l-.044 1.072-.15.063-2.848-.02c-.043-.045-.02-.064.022-.087l.342-.128h2.163c.107-.021.258-.107.258-.258-.022-1.692-.043-3.45-.043-5.292l-.257-.514c.107-.11.407-.13.472.04"/><path fill="#fff" d="M24.162 3.397v4.607c-.042.128-.193.192-.28.278l-.085-.065c-.021-.494.02-1.05-.021-1.522v-.363a52 52 0 0 1 .02-3.149c.087-.086.173-.257.28-.3.086.193.044.321.086.514M30.417 3.162c-.042 1.2-.021 2.333.021 3.47-.021.536-.021 1.007-.021 1.5-.021.043-.021.064-.064.086-.365-.149-.237-.557-.258-.878.021-.45-.042-.963.044-1.414l-.065-.15.021-2.806c.086-.195.259.085.322.192M3.228 2.904c.086 1.735-.021 3.406.021 5.056-.021.086-.107.193-.214.193-.129-.535-.107-1.05-.064-1.586-.042-1.091-.02-2.314-.02-3.407a.54.54 0 0 1 .277-.256M9.61 3.097c-.022 1.736.02 3.449-.043 5.013-.042.086-.128-.022-.193-.064-.107-.258-.021-.578-.021-.835-.065-1.393 0-2.807 0-4.221.086-.108.214.02.257.107M27.27 5.283c-.042.107-.235.107-.343.063l-.107-.042c.065-.236 0-.515.194-.685.193.128.172.427.256.664M9.376 8.345c-.064.128-.257.065-.385.107h-.686c-.557-.023-1.114-.063-1.606.042-.086-.02-.172-.086-.172-.191.065-.194.3-.129.471-.194.664.021 1.457-.02 2.1 0a.6.6 0 0 1 .278.236M5.777 8.26c.021.108-.086.215-.193.257-.685-.193-1.435-.063-2.164-.149l-.022-.021c.043-.128.15-.236.3-.236.73-.001 1.436-.001 2.08.15M26.82 8.324c.066.042.066.15 0 .17-.256.301-.577-.064-.92 0-.557-.064-1.179 0-1.736-.064.15-.471.814-.192 1.179-.278.494.065 1.05-.085 1.478.172M29.964 8.217c.107.065.215.172.236.278-.879.107-1.736-.107-2.57.128-.13-.021-.173-.172-.13-.256.173-.194.45-.151.709-.194zM6.485 8.667c.042.172.02.385-.129.472-.086.107-.256.128-.386.063-.128-.02-.15-.172-.172-.277-.042-.236.193-.322.321-.494.173.021.28.128.366.236M27.44 8.797c.02.193.02.47-.236.47-.17.022-.322-.064-.364-.214a.475.475 0 0 1 .236-.492c.191-.022.277.129.363.236M19.608 2.775c-.021 1.671.021 3.386-.021 5.057l-.086.042c-.92.086-1.82-.15-2.657.151-.15-.086-.02-.343-.065-.492V3.076a.35.35 0 0 1 .236-.322c.235-.172.557-.107.857-.15l1.692.043z"/><path fill="#fff" d="M20.612 2.732c0 .386-.021.73.065 1.114.256.236.985-.107.834.471-.235.15-.556.042-.813.086l-.064.086c-.107.857.064 1.736 0 2.507.023.086.064.236.194.257.235.021.599-.15.685.15-.042.515-.707.045-.879.45-.064.387.108.728-.042 1.093l-.107.065c-1.093-.02-2.165-.02-3.192-.043-.043-.022-.022-.086.02-.108l.192-.107c.858-.086 1.801 0 2.7-.086.13-.021.236-.128.215-.256 0-1.63.021-3.321.021-5.143-.042-.257-.3-.408-.342-.643.149.001.427-.085.513.107M13.503 2.647c-.042.193-.214.258-.3.408-.128.342.021.685-.042 1.049.02 1.477 0 2.87.02 4.327 0 .107.087.236.194.258l2.293.043c.128.02.278.064.364.149-.043.128-.215.086-.322.107-.857-.02-1.778.042-2.613-.063l-.086-.065c-.02-.385.022-.793-.15-1.137-.257-.107-.579 0-.858-.086-.128-.065-.086-.235 0-.321.278-.15.814.086.964-.3-.02-.835.043-1.63 0-2.487-.235-.342-.729-.02-.943-.342.086-.492.772-.064.965-.471l.063-1.007c.13-.127.3-.083.451-.062"/><path fill="#fff" d="M13.823 2.946c.064 1.48-.086 2.807 0 4.285-.128.343.15.836-.342.92-.086-1.478-.021-3.063-.064-4.67-.042-.256.107-.493.322-.621zM20.184 3.204c-.021 1.629.044 3.386-.065 4.97-.086.022-.193-.086-.214-.17-.021-.664-.086-1.328-.043-2.036.043-.921-.064-2.014.043-2.957.108-.065.279.065.279.193M16.263 8.26c.086.022.193.108.128.215l-.172.15c-.75-.28-1.692-.086-2.485-.215.064-.107.129-.214.236-.3.75.065 1.564-.042 2.293.15M19.672 8.153c.108.064.236.172.236.278l-.107.044c-.9.021-1.82-.107-2.657.107-.128.021-.278 0-.3-.15.086-.193.342-.258.557-.279.771-.065 1.521 0 2.271 0M16.912 8.86c0 .17-.021.385-.215.385-.149.02-.384 0-.384-.215.042-.15.172-.277.321-.363.148-.043.234.107.278.193M16.482 6.161c.086-.857.021-1.822.044-2.635 0-.257.021-.557-.172-.73-.622-.277-1.457-.128-2.163-.171-.043.02-.129-.021-.107.065 0 1.692-.021 3.278-.021 4.949l.042.193c.515.086 1.028.043 1.565.043.278.043.557.128.814.172.02-.579.064-1.03.02-1.587z"/><path fill="#000" d="M16.27 6.097c-.256-.215-.321-.536-.535-.793.086-.128.235-.15.344-.256.17-.173.342-.408.256-.665-.02-.214-.128-.428-.342-.535-.45-.173-1.03-.108-1.48-.064-.086.042-.107.128-.042.193.17.065.236.194.257.343-.021.578-.021 1.158-.086 1.736l-.236.256c.236.215.557.044.901.108.086-.151-.15-.259-.193-.43.044-.171 0-.407.107-.556.322.278.429.729.814.986l.503.036-.012-.272c-.065.04-.192-.066-.256-.087m-.665-1.051c-.15 0-.385.107-.427-.086.02-.278-.108-.643 0-.9.193-.15.493-.086.643.108.086.149.086.342.086.514-.088.151-.13.322-.302.364"/><path fill="#fff" d="M29.859 3.225c0-.193.02-.429-.086-.6L29 2.606c-.557.086-1.178-.087-1.628.193-.215.256-.107.557-.151.857q.079.272.155.548l-.098.226-.33-.058-.085-.188q.058-.197.103-.4c-.021-.363.107-.92-.364-1.071a23 23 0 0 0-2.1-.086c-.042 0-.107.02-.128.065.021 1.65 0 3.064.021 4.69 0 .194-.065.45.15.537.62-.086 1.178.02 1.778-.021.235 0 .385.214.622.149.064-.664.064-1.457.042-2.186-.02-.059.009-.203-.086-.228l.003-.137.368.044.038.124c-.014.01-.024.025-.045.046l-.043 2.207c.021.064.021.236.151.215.664-.385 1.478-.129 2.25-.215l.171-.063c.086-.364.043-1.671.043-1.671.042-.965.02-1.93.02-2.957"/><path fill="#000" d="M27.377 5.646c.086.128.15.258.128.429l-.17.237.107.086c.257-.022.6.065.836-.043-.065-.128-.214-.172-.3-.258-.299-.79-.512-1.62-.747-2.431l-.26.119c-.15.727-.45 1.391-.622 2.142-.042.15-.192.17-.3.256-.15.044-.215-.128-.278-.214-.021-.643.063-1.179.021-1.864-.02-.107.107-.236.214-.129.173.087.15.3.215.45.042.065.15.065.172-.042l.107-.664c-.086-.214-.278.021-.45 0-.321-.021-.771.065-1.071-.128-.257.086-.192.45-.236.685-.021.042 0 .086.021.107.213-.128.322-.47.62-.385l.023.643-.065 1.392c-.086.107-.298.15-.279.3.365.107.815 0 1.179.044.214.021.45.063.622 0 .042-.044.021-.107-.021-.151-.128-.065-.278-.172-.236-.343.064-.107.086-.321.278-.256.047 0 .068.025.08.059l.306.036v-.01c.041-.046.041-.067.106-.067m-.45-.3-.107-.043c.065-.235 0-.514.193-.685.192.128.17.429.257.664-.044.106-.237.106-.343.064M29.333 3.888c0 .153.109.436-.021.547-.154-.132-.174-.262-.415-.327-.131 0-.261.022-.284.176-.044.458.415.458.676.763.24.24.35.634.24.94-.1.245-.219.395-.459.395-.218.043-.371-.11-.546-.023-.044 0-.13.044-.175-.021l.023-.853a.12.12 0 0 1 .108-.065c.131.284.042.61.435.633.131-.023.24-.037.261-.212.044-.765-.96-.573-.937-1.361.022-.175.043-.328.131-.482.175-.284.567-.108.83-.284.112-.045.112.11.133.174M18.576 3.847c-.214.107-.45.28-.386.578-.063.515-.042 1.05-.021 1.606l.344.3-.021.044c-.364 0-.707.064-1.072 0-.15-.172.193-.258.258-.385.064-.6.129-1.22.064-1.885-.064-.193-.385-.107-.3-.321.32-.043.75-.043 1.071 0zM8.177 4.253c-.214.257-.256-.235-.47-.256-.129-.022-.322-.065-.43.042-.041.277-.085.536 0 .792.087.065.257.042.365.042.128-.086.193-.321.363-.3.108.107-.042.28.021.385-.042.172.108.364-.086.429-.128-.064-.193-.3-.363-.3l-.3.02c-.108.385-.064.73 0 1.093.171.172.384.021.577.021.278-.064.215-.45.45-.407.065.15.086.385.042.557l-.128.086-1.521-.021c-.065-.021-.215-.021-.15-.129.492-.3.215-.878.278-1.349-.063-.343.193-.857-.257-1.072-.02-.128.129-.086.172-.128.385 0 .9.15 1.2-.172.237.131.216.432.237.667M5.842 3.91c-.428.343-.45.944-.643 1.436-.172.277-.086.685-.363.92-.107.043-.194-.064-.215-.149a15 15 0 0 0-.578-1.95c-.02-.193-.47-.236-.214-.385.321-.042.557.042.857.021.064.193-.235.3-.15.536.193.28.128.708.363.986l.107-.108c.021-.492.578-.943.107-1.37.108-.193.43-.064.643-.128.044.042.194.084.086.191M37.98 11.891c.456-.117.727-.507.727-.845V2.694c0-.321-.253-.71-.727-.845v-.423c.287 0 1.336.034 1.59.034.286 0 1.368-.034 1.673-.034v.423c-.456.118-.727.507-.727.845v3.381h5.832v-3.38c0-.355-.237-.71-.71-.846v-.423c.288 0 1.37.034 1.658.034.254 0 1.285-.034 1.59-.034v.423c-.456.118-.728.507-.728.845v8.352c0 .322.253.71.727.845v.423c-.286 0-1.335-.033-1.589-.033-.287 0-1.352.033-1.657.033v-.423c.455-.117.71-.49.71-.845V7.038h-5.833v4.006c0 .339.237.71.727.846v.422c-.287 0-1.385-.033-1.674-.033-.253 0-1.284.033-1.59.033zM51.284 5.517c.777-.22 1.538-.372 2.552-.372 2.13 0 2.637 1.083 2.637 2.231v3.416c0 .372.068.507.202.507a.8.8 0 0 0 .474-.135l.203.439s-.49.253-.829.474c-.27.169-.728.524-.728.524-.305-.27-.575-.524-.76-.897-.524.456-1.285.727-2.113.727-1.353 0-2.367-.624-2.367-2.045 0-1.352 1.336-1.995 2.587-2.198.305-.05 1.132-.068 1.59-.068v-.93c0-.642-.339-1.284-1.269-1.284-.76 0-1.403.371-1.758 1.116h-.423zm3.447 3.348h-.76c-.947 0-1.573.54-1.573 1.453 0 .66.49 1.066 1.03 1.066.423 0 .964-.27 1.302-.744V8.865zM58.534 11.891c.39-.169.676-.305.676-.558V7.106c0-.406-.153-.625-.794-.76v-.423l2.029-.778h.354l.052.93c.474-.558 1.047-.93 1.86-.93.422 0 .811.118 1.25.287V7.09h-.422c-.27-.54-.744-.879-1.217-.879-.896 0-1.369.76-1.369 1.454v3.668c0 .27.27.389.71.558v.423c-.39 0-1.37-.034-1.59-.034s-1.166.034-1.538.034v-.423zM65.177 6.515c-.203-.44-.372-.592-.879-.761v-.423c.39 0 1.251.034 1.47.034S66.9 5.33 67.29 5.33v.423c-.406.051-.474.27-.474.39 0 .135.118.354.169.473l1.623 3.668 1.59-3.618a.8.8 0 0 0 .05-.507c-.033-.118-.185-.321-.624-.406v-.423c.37 0 1.115.034 1.319.034.202 0 .946-.034 1.319-.034v.423c-.524.186-.812.44-1.031.93l-2.587 5.781h-.76zM73.514 5.517c.777-.22 1.538-.372 2.552-.372 2.13 0 2.637 1.083 2.637 2.231v3.416c0 .372.068.507.202.507a.8.8 0 0 0 .474-.135l.203.439s-.491.253-.83.474c-.27.169-.727.524-.727.524-.305-.27-.575-.524-.76-.897-.524.456-1.285.727-2.114.727-1.352 0-2.367-.624-2.367-2.045 0-1.352 1.336-1.995 2.588-2.198.305-.05 1.132-.067 1.59-.067v-.93c0-.643-.339-1.285-1.269-1.285-.76 0-1.404.372-1.758 1.116h-.423zm3.449 3.348h-.761c-.947 0-1.573.54-1.573 1.453 0 .66.49 1.066 1.031 1.066.423 0 .963-.27 1.301-.744zM80.767 11.891c.39-.169.676-.305.676-.558V7.106c0-.406-.152-.625-.794-.76v-.423l2.029-.778h.355l.05.93c.475-.558 1.048-.93 1.86-.93.423 0 .813.118 1.252.287V7.09h-.423c-.27-.54-.744-.879-1.217-.879-.896 0-1.369.76-1.369 1.454v3.668c0 .27.27.389.71.558v.423c-.39 0-1.37-.034-1.59-.034s-1.166.034-1.538.034zM94.273 11.603s-.49.254-.829.474c-.27.169-.727.524-.727.524-.305-.27-.576-.524-.761-.913-.559.473-1.454.744-2.418.744-1.86 0-3.095-1.724-3.095-3.618 0-1.996 1.252-3.668 3.33-3.668.744 0 1.386.237 1.86.625V2.746c0-.423-.136-.66-.778-.794v-.423l2.097-.777h.423v10.04c0 .372.084.508.22.508a.8.8 0 0 0 .474-.136zm-2.637-4.328c-.101-.709-.829-1.2-1.657-1.2-1.1 0-1.708 1.235-1.708 2.57 0 1.437.643 2.738 1.893 2.738.575 0 1.183-.322 1.47-.829V7.275zM100.597 11.891c.456-.117.728-.507.728-.845V2.694c0-.321-.254-.71-.728-.845v-.423c.287 0 1.336.034 1.589.034.287 0 1.369-.034 1.674-.034v.423c-.455.118-.727.507-.727.845v3.381h5.832v-3.38c0-.355-.237-.71-.709-.846v-.423c.287 0 1.369.034 1.657.034.254 0 1.285-.034 1.59-.034v.423c-.456.118-.728.507-.728.845v8.352c0 .322.254.71.728.845v.423c-.287 0-1.336-.033-1.59-.033-.287 0-1.352.033-1.657.033v-.423c.456-.117.709-.49.709-.845V7.038h-5.832v4.006c0 .339.237.71.727.846v.422c-.286 0-1.385-.033-1.674-.033-.253 0-1.284.033-1.589.033zM119.599 11.232c-.49.558-1.284 1.2-2.688 1.2-2.485 0-3.821-1.47-3.821-3.652 0-2.214 1.607-3.635 3.551-3.635 1.876 0 3.127 1.184 3.043 2.672 0 .136-.017.287-.101.49h-4.633c-.136 1.724.744 3.077 2.181 3.077.728 0 1.505-.136 2.012-.625zm-1.742-3.703c.034-.71-.253-1.623-1.2-1.623-.997 0-1.385.879-1.589 1.623zM121.577 5.517c.777-.22 1.538-.372 2.552-.372 2.13 0 2.637 1.083 2.637 2.231v3.416c0 .372.068.507.202.507a.8.8 0 0 0 .474-.135l.203.439s-.491.253-.829.474c-.27.169-.728.524-.728.524-.304-.27-.575-.524-.76-.897-.524.456-1.285.727-2.114.727-1.352 0-2.366-.624-2.366-2.045 0-1.352 1.336-1.995 2.587-2.198.305-.05 1.132-.068 1.589-.068v-.93c0-.642-.338-1.284-1.268-1.284-.76 0-1.403.371-1.758 1.116h-.423zm3.449 3.348h-.761c-.946 0-1.573.54-1.573 1.453 0 .66.491 1.066 1.031 1.066.423 0 .963-.27 1.301-.744zM128.827 11.891c.389-.169.676-.321.676-.575v-8.57c0-.423-.152-.66-.794-.794v-.423l2.113-.777h.423v10.566c0 .27.27.406.709.575v.422c-.389 0-1.369-.033-1.589-.033-.221 0-1.167.034-1.538.034zM133.952 6.075h-.998v-.558l.998-.287c.422-.39.744-1.031.896-1.911h.845v1.944h2.012v.812h-2.012v4.243c0 .829.287 1.031.609 1.031.439 0 .727-.186 1.047-.524l.372.322c-.254.456-.947 1.284-1.945 1.284-.896 0-1.826-.439-1.826-2.062zM138.937 11.891c.39-.169.677-.321.677-.575v-8.57c0-.423-.153-.66-.794-.794v-.423l2.113-.777h.423v5.207c.591-.49 1.319-.812 2.197-.812 1.691 0 2.52 1.015 2.52 2.215v3.956c0 .27.27.406.709.575v.422c-.39 0-1.369-.033-1.59-.033-.22 0-1.166.034-1.538.034v-.423c.39-.17.677-.322.677-.575V7.937c0-1.2-.39-1.742-1.437-1.742-.592 0-1.151.27-1.538.878v4.243c0 .27.27.406.709.575v.423c-.389 0-1.369-.033-1.589-.033-.221 0-1.167.033-1.539.033zM37.995 25.627c.558-.118.794-.524.794-.862V16.43c0-.322-.22-.71-.812-.845v-.423c.37 0 1.42.033 1.707.033.49 0 1.876-.1 2.435-.1 1.96 0 3.956.929 3.956 3.263 0 1.944-1.674 3.212-4.006 3.212-.54 0-1.031 0-1.47-.052v3.246c0 .338.253.727.828.861v.423c-.371 0-1.505-.033-1.792-.033-.253 0-1.25.033-1.639.033v-.421zm2.604-5.039c.304.034.744.085 1.183.085 1.674 0 2.35-1.082 2.35-2.334 0-1.437-.845-2.45-2.451-2.45-.322 0-.744.032-1.082.1zM48.002 20.842c0-.406-.136-.625-.777-.76v-.423l2.096-.777h.423v4.26c0 1.15.22 1.977 1.251 1.977.608 0 1.167-.355 1.505-.693v-3.584c0-.406-.136-.625-.777-.76v-.423l2.096-.777h.423v5.646c0 .372.068.508.202.508a.8.8 0 0 0 .474-.136l.203.439s-.524.254-.862.474c-.27.169-.728.524-.728.524-.305-.27-.693-.625-.829-1.1-.591.508-1.385.93-2.366.93-1.555 0-2.334-.98-2.334-2.13zM56.876 16.482c0-.423-.152-.66-.794-.794v-.423l2.113-.777h.423v5.207a3.42 3.42 0 0 1 2.214-.812c2.062 0 3.161 1.724 3.161 3.482 0 2.181-1.64 3.837-3.686 3.837-1.066 0-1.522-.27-2.418-.27-.27 0-.693.051-1.116.118.052-.76.101-.947.101-1.893v-7.675zm1.74 8.333c.456.44.93.625 1.59.625 1.03 0 1.927-1.183 1.927-2.806 0-1.707-.845-2.823-1.843-2.823-.643 0-1.216.355-1.674.998zM65.33 25.627c.39-.169.677-.321.677-.575v-8.57c0-.423-.153-.66-.794-.794v-.423l2.113-.777h.423v10.566c0 .27.27.406.71.575v.422c-.39 0-1.37-.033-1.59-.033s-1.167.033-1.538.033zM69.846 25.627c.389-.17.676-.322.676-.575v-4.175c0-.423-.153-.66-.794-.794v-.423l2.113-.777h.423v6.17c0 .27.27.406.71.575v.423c-.39 0-1.37-.033-1.59-.033s-1.167.033-1.538.033zm.66-8.69c0-.474.37-.845.844-.845.475 0 .846.371.846.845a.836.836 0 0 1-.846.845.836.836 0 0 1-.845-.845M74.443 24.173h.422c.54.83 1.048 1.235 1.86 1.235.946 0 1.32-.39 1.32-.845 0-.322-.153-.608-.457-.744l-2.096-.982c-.728-.338-1.2-.946-1.2-1.808 0-1.404 1.369-2.146 2.756-2.146.71 0 1.59.169 2.299.371v1.573h-.423c-.406-.676-1.03-1.183-1.843-1.183-.777 0-1.183.455-1.183.93 0 .439.152.727.66.962l2.13.981c.422.203.929.778.929 1.59 0 1.285-1.167 2.062-2.874 2.062-.71 0-1.59-.17-2.299-.372zM81.086 25.627c.39-.169.676-.321.676-.575v-8.57c0-.423-.152-.66-.794-.794v-.423l2.113-.777h.423v5.207c.592-.49 1.32-.812 2.198-.812 1.69 0 2.519 1.014 2.519 2.214v3.956c0 .27.27.406.71.576v.422c-.39 0-1.37-.033-1.59-.033s-1.167.033-1.538.033v-.422c.39-.17.676-.322.676-.576v-3.38c0-1.2-.39-1.742-1.437-1.742-.592 0-1.15.27-1.538.878v4.243c0 .27.27.406.71.575v.423c-.39 0-1.37-.034-1.59-.034s-1.167.034-1.538.034zM90.197 25.627c.39-.17.676-.322.676-.575v-4.175c0-.423-.152-.66-.794-.794v-.423l2.114-.777h.422v6.17c0 .27.27.406.71.575v.423c-.39 0-1.37-.033-1.59-.033s-1.166.033-1.538.033zm.658-8.69c0-.474.372-.845.846-.845s.845.371.845.845a.836.836 0 0 1-.845.845.836.836 0 0 1-.846-.845M94.68 25.627c.389-.17.676-.322.676-.575v-4.175c0-.423-.153-.66-.794-.794v-.423l2.113-.777h.355l.068.812c.591-.49 1.319-.812 2.197-.812 1.691 0 2.52 1.014 2.52 2.214v3.956c0 .27.27.406.709.575v.423c-.389 0-1.369-.033-1.589-.033-.221 0-1.167.033-1.538.033v-.422c.389-.17.676-.322.676-.576v-3.38c0-1.2-.39-1.743-1.437-1.743-.592 0-1.15.27-1.538.879v4.243c0 .27.27.406.71.575v.423c-.39 0-1.37-.034-1.59-.034s-1.167.034-1.538.034zM107.494 24.798c1.758 0 3.094.66 3.094 2.165 0 1.893-1.859 2.435-3.752 2.435-1.639 0-3.365-.423-3.365-1.911 0-.71.609-1.32 1.404-1.64-.456-.169-.946-.456-.946-1.065s.76-1.048 1.336-1.285c-.829-.44-1.336-1.216-1.336-2.23 0-1.252 1.167-2.384 3.16-2.384.474 0 1.048.1 1.505.305h2.468V20h-1.319c.322.355.491.828.491 1.268 0 1.606-1.353 2.62-3.196 2.62a4.5 4.5 0 0 1-.981-.101c-.237.101-.54.338-.54.559 0 .354.286.455.862.455h1.115zm-1.336 1.285c-.406 0-.845.456-.845 1.3 0 .677.709 1.252 1.707 1.252 1.048 0 1.724-.693 1.724-1.385 0-.71-.66-1.167-1.217-1.167zm2.233-4.75c0-.947-.474-1.69-1.336-1.69-.829 0-1.285.743-1.285 1.706 0 .947.456 1.775 1.319 1.775.864 0 1.302-.845 1.302-1.791M38.77 32.284h.905v2.137h2.435v-2.137h.906v5.361h-.906v-2.383h-2.435v2.383h-.905zM46.01 32.263h.89l1.9 5.384h-.927l-.435-1.276h-2.036l-.442 1.276h-.849zm1.16 3.311-.733-2.173h-.015l-.745 2.173zM49.893 32.284h1.92c1.275 0 2.015.514 2.015 1.609 0 .854-.443 1.34-1.188 1.521l1.26 2.233h-.97l-1.203-2.116h-.942v2.116h-.89v-5.363zm1.883 2.457c.754 0 1.16-.189 1.16-.826 0-.615-.399-.804-1.167-.804h-.986v1.63zM54.593 32.284h.92l1.385 4.18h.015l1.405-4.18h.855l-1.863 5.384h-.854zM61.303 32.263h.89l1.9 5.384h-.927l-.435-1.276h-2.036l-.442 1.276h-.849zm1.16 3.311-.733-2.173h-.015l-.745 2.173zM65.186 32.284h1.92c1.275 0 2.015.514 2.015 1.609 0 .854-.443 1.34-1.188 1.521l1.26 2.233h-.97l-1.204-2.116h-.941v2.116h-.89v-5.363zm1.883 2.457c.754 0 1.16-.189 1.16-.826 0-.615-.399-.804-1.167-.804h-.986v1.63zM70.498 32.284h1.53c1.68 0 2.781.782 2.781 2.66 0 1.912-1.123 2.703-2.782 2.703h-1.529zm1.61 4.55c1.223 0 1.795-.535 1.795-1.89 0-1.29-.58-1.82-1.811-1.82h-.688v3.71zM78.2 32.284h1.195l1.434 4.253h.015l1.392-4.253h1.217v5.361h-.877v-4h-.015c-.08.37-.197.717-.319 1.094L81.2 37.646h-.804l-1.036-2.906c-.13-.383-.21-.615-.326-1.13h-.015v4.036H78.2zM84.97 32.284h3.465v.84h-2.559v1.333h1.877v.805h-1.877v1.557h2.704v.826h-3.61zM89.775 32.284h1.53c1.681 0 2.781.782 2.781 2.66 0 1.912-1.123 2.703-2.781 2.703h-1.53zm1.61 4.551c1.224 0 1.796-.536 1.796-1.891 0-1.29-.58-1.82-1.812-1.82h-.688v3.711zM95.413 32.284h.914v5.361h-.914zM97.643 34.951c0-1.798 1.007-2.768 2.355-2.768 1.247 0 1.84.688 2.08 1.666l-.862.246c-.202-.71-.515-1.072-1.224-1.072-.906 0-1.434.704-1.434 1.92 0 1.276.543 1.98 1.449 1.98.696 0 1.087-.348 1.289-1.152l.862.196c-.261 1.066-.921 1.783-2.16 1.783-1.377-.002-2.355-.951-2.355-2.799M104.656 32.263h.891l1.898 5.384h-.926l-.435-1.276h-2.036l-.443 1.276h-.848zm1.159 3.311-.732-2.173h-.015l-.746 2.173zM108.542 32.284h.905v4.535h2.471v.826h-3.376zM114.58 36.385l.717-.377c.319.63.812.934 1.478.934.652 0 1.094-.21 1.094-.696 0-.463-.333-.68-1.216-.942-1.036-.305-1.869-.587-1.869-1.609 0-.913.746-1.514 1.834-1.514 1.058 0 1.681.522 2.007 1.152l-.659.456c-.319-.536-.776-.782-1.356-.782-.594 0-.934.217-.934.608 0 .5.383.667 1.26.927 1.015.297 1.827.63 1.827 1.638 0 .877-.746 1.565-2.021 1.565-1.069.003-1.822-.548-2.162-1.36M119.717 34.951c0-1.798 1.007-2.768 2.355-2.768 1.246 0 1.84.688 2.08 1.666l-.862.246c-.203-.71-.515-1.072-1.225-1.072-.905 0-1.433.704-1.433 1.92 0 1.276.543 1.98 1.449 1.98.695 0 1.086-.348 1.289-1.152l.862.196c-.262 1.066-.921 1.783-2.16 1.783-1.377-.002-2.355-.951-2.355-2.799M125.479 32.284h.905v2.137h2.435v-2.137h.906v5.361h-.906v-2.383h-2.435v2.383h-.905zM130.986 34.966c0-1.804 1.066-2.782 2.428-2.782 1.355 0 2.413.978 2.413 2.782s-1.058 2.782-2.413 2.782c-1.364 0-2.428-.978-2.428-2.782m3.928 0c0-1.26-.601-1.949-1.5-1.949-.914 0-1.514.688-1.514 1.949 0 1.26.6 1.964 1.514 1.964.898-.002 1.5-.704 1.5-1.964M136.826 34.966c0-1.804 1.066-2.782 2.427-2.782 1.356 0 2.414.978 2.414 2.782s-1.058 2.782-2.414 2.782c-1.361 0-2.427-.978-2.427-2.782m3.928 0c0-1.26-.601-1.949-1.501-1.949-.913 0-1.514.688-1.514 1.949 0 1.26.601 1.964 1.514 1.964.9-.002 1.501-.704 1.501-1.964M142.926 32.284h.906v4.535h2.471v.826h-3.377z"/></svg>