<svg xmlns="http://www.w3.org/2000/svg" width="250" height="252" fill="none"><path fill="#9DB9AF" d="M317.002 26.565c-8.781-16.062-25.187-24.808-48.743-25.99-23.876-1.204-47.632 5.96-56.738 9.095-72.672 25.005-135.623 77.9-172.7 145.1-17.089 30.975-28.647 64.959-34.419 99.893a.653.653 0 0 0-.167.863c.002.009.01.007.012.016C-2.346 296.13-1.12 337.98 8.36 377.903c.07.282.23.527.45.714q-.066.137-.133.262a.656.656 0 0 0 .305.879.65.65 0 0 0 .426.053.66.66 0 0 0 .456-.358c.106-.221.22-.443.334-.674.032-.016.067-.023.09-.038l88.531-49.5c57.444-32.123 116.847-65.331 162.195-115.056 19.222-21.076 34.503-44.35 45.414-69.164 7.888-17.906 31.934-79.407 10.575-118.456M212.38 12.167a177 177 0 0 1 20.522-5.709C262.553.121 294.694 1.6 310.743 21.92a201 201 0 0 1-5.522 12.309c-8.836-5.138-18.638-8.216-26.257-10.32a254 254 0 0 0-73.979-9.082 299 299 0 0 1 7.395-2.66m60.231 71.431c-20.548-13.06-43.235-22.498-67.438-28.058-22.827-5.242-45.946-6.787-68.812-4.617 20.181-14.056 41.994-25.753 64.891-34.66a252.8 252.8 0 0 1 77.37 8.915c7.57 2.088 17.296 5.147 26.021 10.227-8.06 16.216-18.599 32.097-32.032 48.193m-22.93 138.667c-16.11 16.227-33.75 30.658-52.283 43.903 19.075-36.409 24.054-79.567 13.591-119.326-.093-.349-.473-.565-.804-.467a.66.66 0 0 0-.468.802c10.605 40.295 5.222 84.097-14.713 120.699-11.307 7.986-22.922 15.542-34.715 22.813 11.221-31.807 9.817-67.7-3.848-98.515a.664.664 0 0 0-.875-.335.65.65 0 0 0-.336.873c13.544 30.544 14.922 66.145 3.767 97.668a.65.65 0 0 0 .405.84c.009-.002.01.007.019.005-11.685 7.185-23.53 14.088-35.405 20.846 7.363-27.492 5.031-58.022-6.479-84.027a.66.66 0 0 0-.641-.384 570 570 0 0 1 22.743-22.071c15.496-14.207 32.028-27.789 48.013-40.93 16.209-13.316 32.97-27.091 48.678-41.531 9.052-8.323 17.307-16.492 24.833-24.57a228.45 228.45 0 0 1-11.441 123.474.6.6 0 0 0-.041.233M90.824 330.698l-25.801 14.43c2.451-15.998.45-32.87-5.725-47.797a.63.63 0 0 0-.324-.336 595 595 0 0 1 28.39-36.709c9.138 21.788 10.355 47.23 3.33 69.801a.65.65 0 0 0 .13.611M36.65 360.989c3.51-9.575 3.699-20.375.435-30.033a.65.65 0 0 0-.352-.383 587 587 0 0 1 21.442-32.463c6.13 14.965 8.011 31.871 5.366 47.848zm6.125-43.16c-13.386-1.322-27.384 1.202-39.471 7.096a313 313 0 0 1-.273-30.979c.06-.013.123-.017.188-.049 18.537-9.432 40.612-11.55 60.597-5.809a595 595 0 0 0-20.693 29.892.67.67 0 0 0-.348-.151m21.803-30.776a.7.7 0 0 0-.308-.213c-20.153-5.814-42.42-3.745-61.18 5.654a318 318 0 0 1 4.014-37.932c26.728-15.707 60.886-18.546 89.777-7.34a593 593 0 0 0-32.303 39.831m33.191-40.821a.7.7 0 0 0-.233-.166c-28.954-11.292-63.162-8.641-90.135 6.804a316 316 0 0 1 11.018-44.439c36.77-9.901 76.85-8.833 113.005 3.025a575 575 0 0 0-33.655 34.776m-62.467-79.023c.148.058.32.066.479.005 44.27-16.883 95.956-14.292 138.267 6.92l.009-.002c-11.907 9.859-23.892 19.986-35.316 30.461a598 598 0 0 0-6.369 5.941.67.67 0 0 0-.337-.27c-36.176-11.916-76.274-13.071-113.125-3.333a306 306 0 0 1 16.392-39.722m200.131-45.068a666 666 0 0 1-10.677 9.578.65.65 0 0 0-.276-.319c-45.781-25.463-101.003-33.2-152.083-21.392 17.878-21.796 38.739-41.198 61.771-57.528 47.421-5.007 97.373 6.637 137.578 32.13-10.356 12.308-22.398 24.742-36.313 37.531M41.141 156.047c8.619-15.625 18.669-30.457 29.902-44.356 51.208-12.267 106.788-4.714 152.781 20.857-12.184 10.673-24.756 21.007-37.016 31.076-3.919 3.222-7.87 6.469-11.832 9.744a.66.66 0 0 0-.332-.414c-42.403-21.264-94.139-23.953-138.581-7.248 1.641-3.248 3.314-6.475 5.078-9.659M3.379 326.33a.3.3 0 0 0 .093-.029c11.888-5.896 25.692-8.442 38.903-7.181a578 578 0 0 0-31.901 56.145c-3.696-16.069-6.053-32.451-7.095-48.935m32.591 5.485c3.179 9.766 2.76 20.678-1.131 30.191l-22.58 12.626a573 573 0 0 1 23.711-42.817m61.565-4.863-5.437 3.042c6.958-22.763 5.677-48.336-3.536-70.261a.65.65 0 0 0-.422-.369 587 587 0 0 1 28.122-31.083.54.54 0 0 0 .052.286c11.563 26.128 13.772 56.882 6.074 84.41-8.292 4.705-16.589 9.348-24.853 13.975m161.53-114.537a329 329 0 0 1-7.178 7.597c14.533-39.136 18.157-81.42 10.441-122.458a.6.6 0 0 0-.075-.182 340 340 0 0 0 10.808-12.26.66.66 0 0 0 .317-.247.6.6 0 0 0 .092-.245c9.941-11.886 18.301-23.658 25.267-35.538a192.6 192.6 0 0 1 1.857 101.01.65.65 0 0 0 .266.698c-10.509 22.011-24.537 42.705-41.795 61.625m44.947-68.443c-.407.924-.826 1.832-1.242 2.758a193.9 193.9 0 0 0-3.114-99.212 212 212 0 0 0 6.201-11.58c.017-.005.027.002.036 0a.66.66 0 0 0 .43-.307.65.65 0 0 0 .006-.65 200 200 0 0 0 5.347-11.857 43 43 0 0 1 3 4.712c20.791 37.992-2.91 98.493-10.664 116.136"/></svg>