<svg xmlns="http://www.w3.org/2000/svg" width="184" height="46" fill="none"><g fill="#4F2984" clip-path="url(#a)"><path d="M55.224 5.7v.58l1.451 1.652v11.296l-1.964.558v.647h5.357v-.67l-1.696-.446-.424-.514v-9.42l9.375 11.162h.826V7.129l1.987-.603v-.714H64.71v.803l1.72.424.423.536v8.93-.023h-.111L57.635 5.7zm20.09 14.979c-2.656 0-5.178-1.697-5.178-5.313 0-3.594 2.7-5.402 5.179-5.402 2.611 0 5.223 1.63 5.223 5.223 0 3.46-2.768 5.492-5.224 5.492m3.17-5.18c0-2.477-1.34-4.575-3.46-4.575-1.897 0-2.857 1.652-2.857 4.13s1.183 4.642 3.415 4.642c1.92 0 2.902-1.719 2.902-4.196m28.729-1.07c0-2.479-1.384-2.97-3.013-2.97-1.362 0-2.255 1.027-2.255 1.027v6.362l.424.536 1.429.491v.558h-5.134v-.58l1.451-.558V8.647c0-1.92-.491-2.456-1.54-2.456v-.513l3.258-1.094h.224s-.112 2.277-.112 3.973v3.08s2.121-1.696 3.572-1.696c1.808 0 3.482.76 3.482 3.416v5.469l.424.535 1.429.492v.558h-5.134v-.58l1.406-.536zm20.849.334c0 3.08 1.741 4.353 3.728 4.353 1.228 0 2.723-.513 2.723-.513l.224.424c-.536.535-2.009 1.652-3.862 1.652-2.523 0-4.777-1.875-4.777-5.313 0-3.125 2.165-5.402 4.866-5.402 2.098 0 3.728 1.25 3.728 3.638 0 .625-.112 1.161-.112 1.161zm3.259-.826c1.049-.044 1.429-.245 1.429-1.317 0-.937-.67-1.63-2.076-1.63-1.473 0-2.612 1.295-2.612 3.081zm5.804 6.34c-.156-.067-.558-.29-.58-.76l-.134-2.097h.982c.268 1.428 1.228 2.366 2.5 2.366s1.786-.67 1.786-1.54c0-.849-.692-1.273-1.518-1.72l-1.116-.58c-1.607-.826-2.411-1.473-2.411-3.08 0-1.987 1.429-2.947 3.661-2.947 1.563 0 2.79.603 2.79.603l-.29 2.59h-.915c0-1.608-.67-2.21-2.009-2.21-.915 0-1.741.356-1.741 1.227 0 .714.29 1.027 2.031 1.92l1.005.513c1.808.938 2.321 1.697 2.321 3.192 0 1.808-1.808 2.902-3.572 2.902-1.16.023-2.165-.111-2.79-.38m17.345-5.514c0 3.08 1.741 4.353 3.728 4.353 1.227 0 2.723-.513 2.723-.513l.223.424c-.536.535-2.009 1.652-3.862 1.652-2.522 0-4.777-1.875-4.777-5.313 0-3.125 2.166-5.402 4.867-5.402 2.098 0 3.727 1.25 3.727 3.638 0 .625-.111 1.161-.111 1.161zm3.259-.826c1.049-.044 1.428-.245 1.428-1.317 0-.937-.669-1.63-2.076-1.63-1.473 0-2.611 1.295-2.611 3.081zm23.929 5.447-.424-.536.023-5.58c0-2.59-1.675-3.304-3.393-3.304-1.451 0-3.505 1.696-3.505 1.696 0-.937.045-1.763.045-1.763h-.179l-3.214 1.16v.536c1.227 0 1.562 1.094 1.562 3.103v4.643l-1.451.558v.58h5.067l.045-.557-1.429-.492-.424-.535v-6.34s.782-1.049 2.166-1.049c1.428 0 2.924.513 2.924 2.969l-.067 4.91-1.407.537v.58h5.068l.044-.558zm-61.297 1.16-2.366-6.562-2.701 6.563h-.938L111.7 12.44c-.38-1.026-.58-1.607-1.295-1.607v-.625h4.353v.625l-1.317.447L115.428 18l1.741-4.197.402-1.071-.603-1.72-.759-.178v-.625h4.219v.67l-1.339.402L121.321 18l2.321-6.675-1.495-.535v-.58h3.951v.624c-.915.112-1.339.357-2.054 2.166l-2.656 7.545zm-22.925-1.629s-.625.402-1.54.402c-1.005 0-1.898-.558-1.875-1.92l.089-5.781h3.281l.045-.358.223-1.808-.424-.067-.312.692-.179.157-2.59.067h-.022V7.687l-1.272.223-.558 2.5-1.808.179v.87c1.004 0 1.808.09 1.808 1.027 0 .96-.09 3.929-.09 5.134 0 2.255.871 3.103 2.3 3.103 1.228 0 2.254-.513 3.17-1.25zm54.065 0s-.625.402-1.54.402c-1.005 0-1.898-.558-1.876-1.92l.09-5.781h3.259l.044-.358.224-1.808-.424-.067-.313.692-.179.157-2.589.067V7.687l-1.272.223-.558 2.5-1.808.179v.87c1.004 0 1.808.09 1.808 1.027 0 .96-.09 3.929-.09 5.134 0 2.255.871 3.103 2.3 3.103 1.227 0 2.254-.513 3.169-1.25zm-62.28-8.84c-.022 0-.38-.134-1.094-.134-1.54 0-3.147 2.434-3.147 2.434 0-1.34.045-2.5.045-2.5h-.179l-3.147 1.16v.536c1.183 0 1.562 1.071 1.562 2.924v4.822l-1.45.558v.58h5.066v-.558l-1.428-.49-.424-.537v-4.732c0-1.45 1.138-2.277 2.388-2.277.246 0 .514.067.737.134l.335.514.401.022zm80.763 0c-.023 0-.38-.134-1.094-.134-1.54 0-3.17 2.434-3.17 2.434 0-1.34.045-2.5.045-2.5h-.179l-3.147 1.16v.536c1.183 0 1.562 1.071 1.562 2.924v4.822l-1.451.558v.58h5.068v-.558l-1.429-.49-.424-.537v-4.732c0-1.45 1.138-2.277 2.388-2.277.246 0 .514.067.737.134l.335.514.424.044zM101.141 34.23c0 3.08 1.742 4.352 3.728 4.352 1.228 0 2.724-.513 2.724-.513l.223.424c-.536.535-2.009 1.652-3.862 1.652-2.522 0-4.777-1.876-4.777-5.313 0-3.125 2.165-5.402 4.866-5.402 2.099 0 3.728 1.25 3.728 3.638 0 .625-.111 1.161-.111 1.161zm3.237-.827c1.049-.044 1.429-.245 1.429-1.317 0-.937-.67-1.63-2.076-1.63-1.473 0-2.612 1.295-2.612 3.081zm-18.215 4.911.424.536 1.429.491-.045.558H82.95v-.58l1.45-.558v-5.023c0-2.031-.401-2.723-1.584-2.723v-.536l3.214-1.16h.179s-.067 1.517-.067 3.124zm6.876-8.639v.58l-1.474.492 2.456 6.697 2.544-6.653-1.54-.535v-.58h3.907v.624c-.58 0-1.273.29-2.054 2.166l-2.79 7.545h-1.05l-3.08-8.103c-.491-1.161-1.05-1.608-1.741-1.608v-.625zm25.916 10.068c-.156-.067-.558-.29-.581-.76l-.134-2.097h.983c.267 1.428 1.227 2.366 2.5 2.366s1.786-.67 1.786-1.54c0-.849-.692-1.273-1.518-1.72l-1.117-.58c-1.607-.826-2.41-1.473-2.41-3.08 0-1.987 1.428-2.947 3.661-2.947 1.562 0 2.79.603 2.79.603l-.29 2.59h-.916c0-1.608-.669-2.21-2.009-2.21-.915 0-1.741.357-1.741 1.227 0 .714.29 1.027 2.032 1.92l1.004.513c1.808.938 2.322 1.697 2.322 3.215 0 1.808-1.808 2.902-3.572 2.902-1.161 0-2.143-.134-2.79-.402m22.969-7.835c-.513-1.161-1.049-1.608-1.741-1.608v-.625h4.777v.58l-1.473.492 2.545 6.697 2.321-6.653-1.54-.535v-.58h4.107v.624c-.58 0-1.384.29-2.098 2.166l-2.567 7.031c-1.429 3.75-3.17 5.737-5.826 5.58l-.268-2.164s.603.156 1.697.067c1.272-.09 2.522-1.384 3.058-3.08zm-61.52 6.942-.424-.536.022-5.58c0-2.59-1.674-3.304-3.393-3.304-1.45 0-3.504 1.696-3.504 1.696 0-.937.044-1.763.044-1.763h-.178l-3.215 1.16v.536c1.228 0 1.563 1.094 1.563 3.103v4.643l-1.451.558v.58h5.067l.045-.557-1.429-.492-.424-.535v-6.34s.781-1.049 2.165-1.049c1.429 0 2.924.513 2.924 2.969l-.067 4.91-1.406.537v.58h5.067l.045-.558zm58.953-.469s-.625.402-1.54.402c-1.004 0-1.897-.558-1.875-1.92l.089-5.781h2.791l.044-.358.224-1.808-.425-.067-.312.692-.179.157-2.12.111v-2.634l-1.273.223-.558 2.5-1.808.18v.87c1.005 0 1.808.089 1.808 1.026s-.089 3.93-.089 5.135c0 2.254.871 3.103 2.299 3.103 1.228 0 2.255-.514 3.17-1.25zm-22.367-8.84c-.022 0-.379-.134-1.093-.134-1.541 0-3.148 2.434-3.148 2.434 0-1.34.045-2.5.045-2.5h-.179l-3.147 1.16v.536c1.183 0 1.562 1.072 1.562 2.924v4.822l-1.451.558v.58h5.068v-.558l-1.429-.49-.424-.536v-4.733c0-1.45 1.138-2.277 2.388-2.277.246 0 .514.067.737.134l.335.514.424.044zm-31.742-1.875c-.246 0-1.384-1.25-1.384-1.495 0-.224 1.116-1.496 1.384-1.496.29 0 1.384 1.272 1.384 1.496s-1.139 1.495-1.384 1.495m45.091 10.648.424.536 1.429.491-.045.558h-5.022v-.58l1.451-.558v-5.023c0-2.031-.402-2.723-1.585-2.723v-.536l3.237-1.16h.178s-.067 1.517-.067 3.124zm-62.793-3.326c0 3.817-2.723 5.09-5.335 5.09-3.906 0-5.513-1.83-5.513-5.246v-6.43c0-1.874-.514-2.298-1.987-2.365V25.3h6.027v.67l-2.054.647v7.255c0 4.375 1.764 5.023 3.773 5.023 2.098 0 3.683-.983 3.683-4.532V26.64l-1.987-.602v-.692h5.313v.781l-1.496.246-.424.535zm61.878-7.322c-.246 0-1.384-1.25-1.384-1.495 0-.224 1.116-1.496 1.384-1.496.29 0 1.384 1.272 1.384 1.496s-1.138 1.495-1.384 1.495M24.955 28.447l2.076 2.746-1.34-2.702c.358 0 .693-.044.983-.089l1.83 1.652-1.183-1.763c.067-.023.09-.023.09-.023l-.045-.178s-.067.022-.156.044c-.157.045-.402.09-.715.134-.267.023-.558.067-.87.067h-.022c-.268 0-.559-.022-.804-.067-.134-.022-.268-.067-.38-.089-.044-.022-.089-.022-.111-.045a3.3 3.3 0 0 0-.848-.111h-.224a5 5 0 0 0-.848.134c-.045.022-.112.044-.156.067-.067.022-.134.067-.179.089-.178-.112-.402-.179-.67-.223-.044 0-.089-.023-.133-.023-.201-.022-.402-.044-.603-.044h-.245c-.068 0-.135.022-.201.022a3.5 3.5 0 0 0-.514.112 2.6 2.6 0 0 1-.402.089c-.178.022-.38.045-.58.067h-.156c-.201 0-.402-.022-.58-.022a5 5 0 0 1-.67-.09 5 5 0 0 1-.625-.134 1 1 0 0 1-.134-.044l-.045.178s.022 0 .045.023l-1.474 1.607 2.032-1.496c.223.045.49.09.781.112l-1.362 2.545 2.054-2.523c.223 0 .446-.022.67-.045l-1.072 3.438 1.965-3.638c.089-.023.2-.023.29-.045l-.491 4.241 1.317-4.219c.067 0 .134.023.2.045l.335 4.398.47-4.22c.066-.044.155-.066.222-.089l1.139 4.175-.335-4.309h.246l1.875 3.817-1.027-3.705c.178.067.38.111.58.134"/><path d="M37.146 22.754c0-8.438-6.83-15.268-15.268-15.268S6.609 14.316 6.609 22.754s6.831 15.269 15.269 15.269c8.438.022 15.268-6.83 15.268-15.269M21.878 37.666a14.87 14.87 0 0 1-10.536-4.375 14.79 14.79 0 0 1-4.375-10.537c0-4.107 1.674-7.835 4.375-10.536a14.87 14.87 0 0 1 10.536-4.375c4.107 0 7.835 1.674 10.536 4.375a14.87 14.87 0 0 1 4.375 10.536c0 4.108-1.674 7.836-4.375 10.537a14.87 14.87 0 0 1-10.536 4.375"/><path d="M21.92.923C9.823.923 0 10.745 0 22.843c0 12.1 9.822 21.922 21.92 21.922 12.1 0 21.921-9.822 21.921-21.921S34.041.924 21.921.924M36.9 37.845A21.1 21.1 0 0 1 21.92 44.05a21.1 21.1 0 0 1-14.979-6.205A21.1 21.1 0 0 1 .737 22.866 21.1 21.1 0 0 1 6.942 7.888c3.84-3.84 9.13-6.228 14.979-6.228a21.1 21.1 0 0 1 14.978 6.205 21.1 21.1 0 0 1 6.206 14.979c0 5.87-2.367 11.161-6.206 15"/><path d="M32.48 22.866c0-5.871-4.755-10.648-10.649-10.648-5.87 0-10.647 4.755-10.647 10.648 0 5.87 4.754 10.648 10.647 10.648 5.871-.023 10.648-4.778 10.648-10.648M21.83 33.134c-2.835 0-5.402-1.16-7.277-3.014a10.24 10.24 0 0 1 0-14.51 10.25 10.25 0 0 1 7.277-3.013c2.835 0 5.402 1.139 7.255 3.014a10.24 10.24 0 0 1 3.014 7.255c0 2.835-1.161 5.402-3.014 7.255a10.24 10.24 0 0 1-7.255 3.013"/><path d="M26.99 27.8q-.335.066-.87.133c-.156.022-.335.022-.49.022h-.202a4.7 4.7 0 0 1-.982-.156h-.045c-.067-.022-.156-.045-.223-.067a4 4 0 0 0-.736-.067h-.246a3.7 3.7 0 0 0-.915.156h-.023c-.089.023-.156.067-.245.112-.335-.2-.893-.29-1.407-.29h-.245a3.3 3.3 0 0 0-.737.134c-.089.022-.178.067-.29.067-.111.022-.245.044-.38.067-.156.022-.312.022-.49.022-.134 0-.268 0-.402-.022-.134 0-.29-.023-.424-.045-.201-.022-.402-.045-.58-.09-.068-.022-.135-.022-.202-.044-.268-.044-.424-.09-.424-.09l-.044.18s.133.044.334.089c.179.044.425.089.715.134l.535.067c.157.022.335.022.492.022h.312q.234 0 .469-.067c.134-.022.268-.067.402-.112a3.5 3.5 0 0 1 .558-.111h.357q.334 0 .67.067h.044c.246.044.469.134.625.223l.045.045.044-.045c.045-.022.09-.067.157-.09.022-.022.067-.022.09-.044.245-.09.557-.156.87-.156h.223c.29 0 .58.044.804.089.044.022.089.022.111.022.09.023.179.067.268.09.29.067.58.089.893.111h.111c.246 0 .47-.022.67-.044a10 10 0 0 0 .804-.134q.234-.067.268-.067l-.045-.179c.09 0-.022.022-.223.067m-8.46 6.696s.045.29.224.446c.357.29.759.358.759.358s.022-.313-.469-.603c-.402-.224-.513-.201-.513-.201m-1.116-.268s.023.29.201.446c.335.313.737.38.737.38s.045-.29-.424-.603c-.402-.245-.514-.223-.514-.223m-1.183-.424s0 .29.179.446c.312.313.714.402.714.402s.045-.29-.38-.625c-.379-.245-.513-.223-.513-.223m-1.183-.625s-.022.29.112.469c.29.334.67.446.67.446s.089-.29-.313-.625c-.357-.312-.469-.29-.469-.29m4.576 1.63s.09.29.29.424c.402.267.804.267.804.267s-.044-.312-.558-.535c-.424-.201-.536-.157-.536-.157m-2.143.401c-.602-.022-.87.223-.87.223s.335.157.87.112c.29-.022.58-.223.58-.223s-.066-.09-.58-.112m1.25.335c-.602-.022-.848.2-.848.2s.357.18.87.135c.291-.023.537-.223.537-.223s-.045-.09-.558-.112m1.384.223c-.602 0-.87.246-.87.246s.357.156.87.09a1.45 1.45 0 0 0 .559-.246s-.045-.067-.558-.09"/><path d="M29.668 33.134c-.313.134-.425.29-.47.402-2.41 1.317-4.71 1.987-6.763 2.054l-.268.044c.09-.178.313-.49.067-.558-.245-.067-.402.536-.29.58h-.022c-.045-.245-.134-.78-.246-.513-.022.09-.424.067.022.491-3.102-.133-5.223-1.049-6.987-2.031-.044-.112-.156-.268-.468-.402-.424-.178-.536-.111-.536-.111s.045.267.268.401c.268.157.536.201.692.224 1.786.982 3.951 1.92 7.12 2.053-.044.157-.423.402-.155.447.379.067.334-.402.513-.223.178.178.134.245.268.178.111-.067-.045-.312-.201-.424l.29-.045c2.076-.067 4.398-.736 6.83-2.076.135-.022.425-.044.693-.223.2-.134.245-.402.245-.402s-.178-.044-.602.134m-13.572 1.63c-.47.044-.536.156-.536.156s.178.223.424.223c.446.023.804-.178.804-.178s-.157-.246-.692-.201m-1.139-.58c-.469-.045-.558.044-.558.044s.134.246.357.313c.424.111.804-.023.804-.023s-.067-.29-.603-.335"/><path d="M24.375 35.21s.402-.044.781-.334c.201-.157.246-.447.246-.447s-.112-.044-.536.201c-.514.268-.491.58-.491.58m1.138-.29s.402-.067.737-.357c.178-.156.2-.446.2-.446s-.11-.023-.513.223c-.446.29-.424.58-.424.58m1.228-.357s.402-.067.737-.38c.178-.178.178-.446.178-.446s-.134-.022-.513.246c-.447.268-.402.58-.402.58m1.63-1.16c-.425.334-.335.625-.335.625s.401-.112.692-.447c.156-.179.134-.469.134-.469s-.134 0-.491.29m-5.268 2.053s.401 0 .803-.245c.223-.134.313-.425.313-.425s-.112-.044-.559.134c-.513.224-.558.536-.558.536m2.7-.223s.29.2.58.245c.537.067.871-.089.871-.089s-.267-.245-.87-.245c-.514 0-.58.089-.58.089m-.736.29c-.514.022-.58.09-.58.09s.267.2.535.223c.514.044.87-.112.87-.112s-.223-.223-.825-.2m-2.01.29s.269.223.559.246c.513.09.87-.067.87-.067s-.245-.246-.848-.268c-.513.022-.58.09-.58.09m4.666-1.183c-.535.045-.647.313-.647.313s.38.134.826.022c.245-.067.38-.29.38-.29s-.09-.067-.559-.045m1.139-.58c-.536.022-.648.312-.648.312s.38.134.804.045c.223-.045.38-.29.38-.29s-.068-.09-.536-.067m-19.6-.692c-.133-.179-.2-.313-.267-.402-.023-.022-.045-.045-.067-.045-.045 0-.045.023-.067.023-.023.022-.045.044-.045.067 0 .089.112.178.09.29 0 .067-.023.134-.135.2l-1.584 1.14c-.023.022-.023.022-.045.022 0-.023.022-.067.022-.09l.67-3.013c.022-.067.022-.112.022-.157 0-.044 0-.067-.022-.111-.022-.023-.045-.023-.067-.023-.067 0-.112.045-.2.112l-2.255 1.607a.36.36 0 0 1-.18.067c-.088 0-.133-.089-.245-.089-.022 0-.044 0-.067.022-.022.023-.044.045-.044.067s0 .045.022.067c.067.09.201.246.29.38.09.111.157.245.246.357.022.022.044.045.067.045.022 0 .044 0 .044-.023a.17.17 0 0 0 .045-.09c0-.11-.09-.2-.09-.356 0-.112.045-.223.224-.357l1.585-1.139-.737 3.326c0 .023-.022.067-.022.134 0 .022 0 .045.022.067.045.067.112.112.134.179.045.044.067.134.112.2.022.023.044.045.09.045.021 0 .021 0 .044-.022s.044-.045.044-.09c0-.089-.089-.178-.089-.334 0-.134.067-.335.424-.58l1.429-1.027c.156-.112.268-.157.357-.157.156 0 .2.134.335.157.022 0 .045 0 .067-.023.022-.022.044-.044.044-.067 0-.022 0-.044-.022-.067.09 0-.067-.178-.178-.312m-3.549-2.143c.715-.29 1.161-.87 1.161-1.563 0-.223-.045-.469-.134-.692-.312-.759-.915-1.205-1.63-1.205-.245 0-.49.044-.758.156-.692.29-1.094.893-1.094 1.585 0 .223.045.469.134.714.29.715.915 1.139 1.63 1.139.245 0 .468-.045.691-.134m-2.009-.982a1.4 1.4 0 0 1-.089-.514c0-.647.469-1.228 1.094-1.473a1.7 1.7 0 0 1 .625-.134c.513 0 .937.29 1.116.737.067.178.09.357.09.513 0 .647-.492 1.228-1.117 1.496q-.3.134-.603.134c-.49-.023-.915-.246-1.116-.76m1.741-3.661c.112 0 .179.067.224.134.044.067.067.156.156.156h.022c.045 0 .09-.045.09-.09-.023-.178-.067-.356-.112-.535-.067-.402-.067-.491-.067-.536 0-.022 0-.111-.09-.111h-.022c-.134.044-.089.178-.111.312s-.045.223-.223.246l-1.005.156c-.022 0-.045.022-.067.022s-.022 0-.045-.067c-.022-.2-.044-.312-.044-.38 0-.11.022-.11.178-.245l.737-.647c.223-.201.424-.402.424-.714v-.112c0-.022-.022-.09-.045-.179-.022-.067-.022-.156-.111-.178h-.022c-.045 0-.067.067-.067.089-.023.09.022.246-.313.558l-1.027.938a.97.97 0 0 0-.803-.447h-.134c-.603.09-.715.58-.715.915 0 .201.045.358.045.38.045.245.09.513.134.781.022.134.022.179.022.223v.09c.023.067.045.111.112.134.134-.045.09-.179.111-.268.023-.09.045-.179.246-.223l2.41-.38c.068-.022.09-.022.112-.022m-1.495-.246-1.206.179H2.7c-.09 0-.09-.045-.112-.201-.022-.067-.022-.156-.022-.223 0-.357.156-.67.603-.737.044 0 .089-.022.134-.022.424 0 .535.357.58.535.022.134.067.313.067.402zm-1.25-2.79c.044 0 .067-.023.09-.09 0-.111-.113-.111-.135-.133-.245-.112-.29-.09-.29-.313v-.067l.022-.781h.179l2.478.111c.111 0 .156.067.2.179.045.09.023.2.134.223.023 0 .045 0 .067-.022s.023-.045.023-.067v-.179c0-.089 0-.245.022-.468 0-.134.022-.268.045-.38 0-.09-.09-.09-.112-.09-.134.023-.111.135-.156.224-.022.09-.067.156-.223.156H5.02l-2.433-.111c-.09 0-.156 0-.178-.023v-.156l.022-.692c.022-.223.09-.245.156-.268.045 0 .09 0 .134-.022.045 0 .09-.045.09-.112 0-.089-.09-.089-.112-.089h-.402c-.045 0-.112 0-.134.045-.045.044-.045.089-.045.134 0 .089 0 .535-.044 1.406-.023.603-.067.982-.067 1.362.022.134.178.134.223.134zm-.335-4.308c.134-.023.134-.112.179-.179s.111-.134.2-.134h.067l2.367.647c.267.067.245.179.267.29v.045c0 .045 0 .134.09.157h.044c.045 0 .09-.023.09-.067s0-.067.089-.402c.067-.246.179-.58.2-.625v-.045c0-.022 0-.067-.066-.09H5.87c-.112.023-.134.112-.179.202-.045.089-.112.156-.2.156h-.068l-1.138-.313H4.24l.469-1.696c.022 0 .044.022.067.022l1.094.313c.134.044.134.111.156.178s-.022.179.09.224h.044c.111 0 .111-.112.111-.134.023-.09.045-.224.112-.514.045-.156.112-.29.134-.424v-.022c0-.067-.045-.09-.067-.09h-.022c-.112.023-.112.112-.179.179q-.068.135-.2.134c-.023 0-.045 0-.068-.022l-2.433-.67c-.179-.045-.179-.156-.179-.246v-.022c0-.044 0-.111-.066-.134H3.28c-.044 0-.111.045-.134.156-.022.09-.022.179-.067.335-.022.09-.111.313-.156.469v.067c0 .045.045.09.067.09h.022c.09-.023.112-.09.157-.157.044-.067.089-.112.178-.112.022 0 .045 0 .09.023l.937.268c.022 0 .045 0 .067.022 0 0 .022 0 .022.022l-.469 1.674v.023H3.95l-1.005-.268c-.2-.067-.178-.156-.2-.268v-.022c0-.045 0-.112-.068-.134h-.022c-.044 0-.09.044-.111.111-.045.157-.067.29-.112.424-.045.18-.112.335-.156.492v.044c.022-.044.044.023.089.023m1.384-4.577c.022 0 .022.023.045.023.111-.022.156-.156.334-.156h.067l2.768.446c.224.045.358.067.447.067a.17.17 0 0 0 .111-.045c.023-.022.023-.044.023-.067q0-.066-.067-.134l-.848-1.138 1.339.2c.067 0 .111.023.156.023a.17.17 0 0 0 .112-.044c.022-.023.022-.045.022-.067 0-.067-.045-.134-.09-.179l-1.852-2.545c-.112-.156-.134-.245-.134-.29v-.067a.17.17 0 0 0-.045-.09c-.022 0-.044-.022-.067-.022-.044 0-.066.045-.089.067-.067.09-.111.224-.178.358-.067.089-.134.178-.179.267 0 .023-.022.023-.022.045 0 .045.022.067.067.09.022 0 .022.022.044.022.112-.023.201-.157.29-.157.023 0 .045 0 .067.023.045.022.067.044.112.089l1.384 1.853c.045.067.067.111.09.134H7.52L6.472 13.2a.4.4 0 0 1-.2-.068c-.023-.022-.068-.044-.112-.111l-.491-.692c-.157-.223-.179-.313-.179-.38v-.066c0-.023-.022-.068-.067-.09h-.022c-.023 0-.045.022-.067.045-.045.067-.067.134-.156.312-.045.09-.112.157-.179.246 0 .022-.045.044-.045.09 0 .021 0 .044.045.066.022 0 .045.022.045.022.111-.022.178-.133.268-.133.022 0 .044 0 .066.022s.09.067.112.111l.357.492c0 .022.023.022.023.044h-.067L5.133 13c-.067 0-.09-.023-.134-.045s-.045-.045-.045-.09v-.089c0-.022 0-.067-.044-.089-.023-.022-.045-.022-.067-.022s-.045 0-.067.022c-.067.09-.112.201-.223.402-.023.044-.179.268-.268.402-.023.022-.023.044-.023.067 0 .022.023.067.045.089s.045.022.067.022c.179-.022.179-.268.402-.245h.044l1.228.178c.067 0 .134.023.134.023.022 0 .067.067.134.134l.536.736c.022.023.022.023.022.045h-.09l-2.388-.38c-.044 0-.089-.022-.111-.022-.045-.022-.045-.067-.045-.112v-.089c0-.022 0-.067-.045-.09-.022-.021-.044-.021-.067-.021-.022 0-.067.022-.067.044a2 2 0 0 0-.156.313c-.067.111-.156.223-.223.357-.022.022-.022.067-.022.09.022-.046.044 0 .089.021M7.03 9.808a.26.26 0 0 0 .157-.067c.067-.044.111-.066.156-.066.111 0 .223.089.312.2l1.54 1.54c.135.135.202.224.202.29v.045c-.045.112-.067.157-.067.224 0 .022 0 .044.022.067.022.022.045.044.067.044.044 0 .067-.022.09-.044.133-.134.267-.29.4-.424.246-.268.514-.492.782-.76.134-.133.223-.223.223-.424v-.044a.82.82 0 0 0-.178-.536c-.023 0-.023-.022-.067-.045-.022 0-.045 0-.045.023-.022.022-.022.044-.022.067v.156c0 .2-.067.558-.58 1.071-.112.112-.201.157-.246.157s-.112-.067-.223-.179l-.625-.625-.067-.067.022-.022.491-.514c.067-.067.134-.089.179-.089.111 0 .2.134.335.134.022 0 .044 0 .067-.022.022-.023.022-.045.022-.067s-.022-.067-.045-.067l-.268-.268-.334-.335a.17.17 0 0 0-.112-.045c-.022 0-.045 0-.067.023-.022.022-.022.044-.022.067.022.089.111.156.089.29 0 .067-.022.156-.134.268l-.38.312-.089.09s-.022-.023-.09-.067l-.624-.625c-.112-.112-.156-.157-.134-.179 0-.022.067-.112.246-.29.133-.134.446-.469.602-.469h.023c.089 0 .156.156.29.179.022 0 .044 0 .067-.023 0-.022.022-.022.022-.067 0-.089-.067-.178-.357-.468-.045-.023-.067-.067-.112-.067-.022 0-.044 0-.067.022-.111.112-.402.424-.468.491-.134.134-.335.313-.96.938-.067.067-.112.111-.112.156 0 .022.022.044.022.067.023.022.045.044.067.044m3.974-1.674c.49 0 1.027-.335 1.428-.312a.45.45 0 0 1 .402.2c.09.112.112.246.112.38 0 .268-.179.536-.424.692a1.03 1.03 0 0 1-.58.179 1.1 1.1 0 0 1-.603-.201c-.067-.045-.09-.09-.157-.112-.022 0-.044 0-.067.023-.022.022-.044.044-.044.089q0 .067.067.134l.446.446a.2.2 0 0 0 .112.023c.178 0 .513-.09.759-.268.558-.38.736-.782.736-1.116a.95.95 0 0 0-.156-.536c-.223-.313-.491-.424-.759-.424-.491 0-1.027.312-1.406.312-.156 0-.268-.044-.38-.2a.54.54 0 0 1-.089-.29c0-.224.156-.447.38-.604.178-.111.357-.178.535-.178a.76.76 0 0 1 .514.178c.022.023.089.067.156.067.022 0 .045 0 .045-.022.022-.022.044-.045.044-.09 0-.044-.022-.066-.044-.066l-.425-.491c-.022-.023-.044-.045-.089-.045-.022 0-.044 0-.067.022-.067.067-.044.112-.044.09 0 .022-.29-.023-.76.312-.312.223-.535.536-.535.893 0 .179.044.335.156.513.223.29.491.402.737.402M12.9 5.767c.023.045.045.067.09.067h.022a.12.12 0 0 0 .067-.112v-.067c0-.067-.023-.133-.023-.178 0-.112.023-.134.224-.223l.714-.313a.33.33 0 0 1 .067.156l.982 2.277c.022.023.022.067.022.09 0 .156-.2.2-.223.357v.044c.023.023.045.067.09.067.022 0 .044 0 .044-.022.045-.022.112-.067.603-.268.134-.044.245-.09.357-.134.045-.022.067-.044.045-.09 0-.021-.023-.044-.023-.044a.12.12 0 0 0-.111-.067c-.067 0-.134.023-.201.023s-.134-.023-.201-.157l-.96-2.232c-.045-.111-.067-.156-.067-.178h.022c.023-.023.067-.023.112-.045l.625-.268c.09-.045.134-.045.179-.045.089 0 .111.045.156.09.022.044.044.134.134.134h.044c.045-.023.067-.045.067-.09 0-.044-.022-.067-.022-.089l-.179-.335c-.022-.067-.066-.111-.133-.111-.023 0-.067 0-.112.022-.09.045-.491.223-1.272.558-.558.246-.916.38-1.25.513a.12.12 0 0 0-.067.112c0 .067.022.112.044.156zm3.817-1.987h.067c.201 0 .246.179.29.38l.447 2.12c.022.09.045.18.045.246a.2.2 0 0 1-.067.156c-.112.09-.179.09-.201.201 0 .045.044.067.089.067h.045c.2-.044.38-.09.558-.134.357-.09.714-.134 1.071-.2.201-.045.335-.068.447-.269.067-.133.156-.29.156-.446v-.09c0-.022-.023-.066-.09-.089h-.022c-.067.023-.044.067-.09.112-.088.156-.312.469-1.115.647-.09.023-.134.023-.179.023-.156 0-.134-.067-.2-.313l-.18-.87c0-.045-.022-.067-.022-.09s0-.022.045-.022l.692-.134h.09c.111 0 .156.067.2.156.045.067.045.179.157.201h.022c.044 0 .09-.044.09-.09v-.021c-.023-.134-.068-.246-.09-.358a3.5 3.5 0 0 0-.09-.468c-.022-.045-.022-.112-.111-.112h-.022c-.112.045-.067.156-.09.246-.022.089-.067.178-.29.223l-.513.111c-.067.023-.112.023-.112.023-.022 0 0 .022-.045-.112l-.178-.87c-.022-.09-.022-.157-.022-.179 0-.067.044-.067.379-.156.134-.023.38-.09.58-.09.09 0 .157.023.201.045.023.022.045.09.067.156.023.067.045.157.134.157h.023c.044-.023.089-.067.067-.179 0-.09-.023-.223-.067-.469-.023-.044-.023-.111-.112-.134h-.022c-.157.023-.58.134-.67.157-.201.044-.446.067-1.317.267-.112.023-.179.045-.201.134v.023c.045.044.112.044.156.044m3.37-.736c.023.134.157.111.246.134.09.022.18.067.18.268l.021 2.433c0 .156-.067.2-.156.245-.067.045-.178.045-.2.156 0 .045.044.09.088.09.18 0 .358-.023.536-.023h.134c.268 0 .357.023.402.023h.022c.023 0 .067 0 .09-.045h.022V6.28c-.022-.133-.179-.133-.29-.156-.112-.044-.224-.067-.224-.268l-.022-1.004v-.045c0-.022-.022-.022.09-.044h.223c.29 0 .2 0 .357.223l.536.826c.178.268.38.535.759.535h.178c.045-.022.112 0 .156-.044h.023v-.045c0-.044-.045-.09-.067-.09-.09-.021-.246 0-.514-.4l-.78-1.162c.312-.156.557-.468.557-.848-.022-.804-.736-.87-1.049-.87h-.134c-.245 0-.513.022-.804.022h-.044c-.179 0-.157-.023-.246-.023h-.022c0 .045-.067.067-.067.157m.871.245c0-.156.045-.111.224-.134h.022c.447 0 .848.179.848.715v.022c0 .536-.424.625-.602.625h-.268c-.067 0-.134 0-.157-.022-.022 0-.022 0-.044-.023zm2.79 3.103c.046 0 .291.045.447.067.223.045.357.09.469.112h.022c.067 0 .09-.067.09-.09V6.46c-.023-.112-.134-.112-.201-.156-.09-.045-.134-.09-.134-.201 0-.022 0-.067.022-.09l.402-1.92v-.044c.022.023.022.067.045.067l1.517 2.679c.09.134.134.178.18.2h.021c.09-.022.09-.11.134-.222l.58-2.701c.045-.157.09-.179.157-.201s.156 0 .2-.112v-.022c0-.045-.044-.09-.066-.09-.112-.022-.313-.044-.469-.089-.156-.022-.268-.09-.424-.111h-.022c-.045 0-.09.022-.09.066v.023c.023.111.134.134.224.178.089.067.178.134.178.335 0 .045 0 .112-.022.156l-.402 1.92-1.696-2.946c-.023-.023-.045-.134-.134-.157C24.71 3 24.62 3 24.553 3a3 3 0 0 0-.223-.067h-.022c-.023 0-.09 0-.112.067v.022c.023.134.134.112.223.179.09.067.18.179.201.446 0 .09-.022.201-.044.335l-.38 1.72c-.067.312-.178.379-.268.4-.089.023-.223-.021-.268.113v.022c0 .111.045.156.09.156m6.787 2.478q.468.268.803.268c.692 0 1.027-.648 1.139-.782l.781-1.25c.112-.178.201-.2.268-.2h.112c.044 0 .089-.023.111-.067 0-.023.023-.023.023-.045 0-.045-.023-.067-.045-.09-.09-.044-.156-.066-.246-.111-.156-.09-.312-.2-.468-.313h-.045c-.022 0-.067 0-.09.045-.022.022-.022.045-.022.067.023.156.224.201.224.38a.5.5 0 0 1-.067.2L32.21 8.29c-.2.312-.469.602-.87.602-.18 0-.38-.067-.626-.2-.357-.224-.558-.514-.558-.871q0-.268.201-.603l.893-1.45c.067-.09.112-.113.156-.113.067 0 .134.045.201.045a.17.17 0 0 0 .09-.045v-.044c-.023-.09-.112-.134-.134-.134-.134-.09-.268-.134-.402-.223a3 3 0 0 1-.313-.224c-.022-.022-.067-.022-.111-.022-.023 0-.045 0-.067.045 0 .022-.023.044-.023.067.023.156.224.223.201.335 0 .022 0 .044-.022.089l-.848 1.362c-.179.267-.29.58-.29.892.022.29.245.692.848 1.072m2.611.915c-.178.156-.29.201-.379.201-.112 0-.178-.09-.29-.09-.023 0-.067.023-.067.045-.022 0-.022.023-.022.067 0 .023.022.045.044.09.023.022.223.178.335.312.156.156.246.268.335.357.022.023.044.023.067.023.044 0 .067-.023.067-.045.022-.022.022-.045.022-.067-.022-.112-.156-.2-.134-.312 0-.045.023-.112.112-.201l1.384-1.362c.022-.022.022-.022.044-.022v.089l-.245 3.036v.067c0 .111.022.156.045.178 0 .023.022.023.044.023.067 0 .112-.067.179-.134l1.964-1.942c.067-.067.134-.09.179-.09.067 0 .134.045.223.045.022 0 .045-.022.067-.022.022-.023.022-.045.022-.067s-.022-.045-.022-.067c-.09-.09-.246-.223-.357-.335-.112-.112-.179-.223-.29-.313-.023-.022-.045-.022-.067-.022s-.045.022-.067.022c-.023.023-.023.045-.023.067.023.134.157.224.157.402 0 .09-.045.201-.179.335l-1.384 1.384.2-3.393v-.112c0-.022 0-.067-.021-.089-.067-.067-.134-.09-.179-.134a1.2 1.2 0 0 1-.134-.178c-.022-.023-.045-.045-.09-.045-.021 0-.044 0-.044.022-.022.023-.044.045-.022.067 0 .112.134.201.134.38 0 .134-.067.312-.335.58zm4.644 1.83L35.78 13a.4.4 0 0 1-.223.089c-.134 0-.178-.134-.312-.156-.023 0-.045 0-.067.022s-.045.045-.045.09c0 .044.023.066.045.088.044.068.111.135.268.358.111.156.223.335.29.446.022.045.045.09.111.09.023 0 .045 0 .045-.023a.17.17 0 0 0 .045-.09c0-.088-.09-.2-.09-.312 0-.044.023-.111.09-.156l2.12-1.45c.067-.046.112-.068.157-.068.111 0 .178.134.29.156.022 0 .045 0 .045-.022.022-.022.044-.045.044-.067 0-.045-.022-.067-.044-.09a5 5 0 0 0-.268-.356c-.09-.134-.179-.29-.29-.447-.023-.022-.045-.045-.067-.045s-.045.023-.067.023c-.023.022-.045.044-.045.067 0 .09.067.178.067.268.022.067 0 .134-.09.2m-.782 4.108c-.067.067-.2.178-.223.29v.045c.022.067.09.067.156.067h.201l3.058-.09h.023c.268 0 .2.09.335.134h.044c.045-.022.067-.044.067-.089 0-.022 0-.044-.022-.067-.023-.067-.067-.112-.179-.335-.044-.089-.067-.2-.111-.29-.023-.044-.045-.067-.09-.067-.022 0-.044 0-.044.023-.045.022-.067.066-.045.089 0 .067.022.134.022.178 0 .045 0 .067-.067.09-.066.044-.223.067-.312.067l-2.21.089H37.5c0-.022.09-.112.246-.268l1.45-1.585c.023-.022.09-.09.135-.111.022 0 .044-.023.044-.023.067 0 .112.09.224.09h.044c.045-.023.045-.068.045-.09s0-.022-.022-.044a3 3 0 0 0-.179-.335c-.067-.134-.111-.268-.156-.402-.023-.045-.045-.067-.09-.067-.022 0-.044 0-.044.022-.045.023-.067.067-.067.09 0 .044.022.089.022.156s-.022.134-.089.223zm3.817 1.652c0 .2-.178.223-.379.29l-2.12.491c-.112.022-.18.045-.246.045q-.1 0-.134-.067c-.112-.112-.112-.179-.201-.201-.045 0-.09.067-.09.09v.044c.045.178.112.38.157.558.09.357.134.714.223 1.071.045.201.067.335.29.447.134.067.29.134.447.156h.09c.021 0 .066 0 .088-.09v-.021c-.022-.067-.067-.045-.111-.09-.157-.09-.469-.29-.67-1.094a.8.8 0 0 1-.022-.2c0-.157.067-.134.29-.201l.848-.201c.045 0 .067-.023.09-.023s.022 0 .022.023l.156.692v.089c0 .112-.067.156-.134.2-.067.046-.178.046-.2.157v.022c0 .045.044.067.089.067h.022c.134-.022.245-.067.357-.089.156-.044.313-.067.469-.09.044-.021.111-.021.111-.11v-.023c-.044-.112-.156-.067-.245-.09-.09-.022-.179-.066-.246-.29l-.111-.513c-.023-.067-.023-.112-.023-.112 0-.022-.022 0 .112-.044l.87-.201c.09-.023.157-.045.18-.045.066 0 .066.045.155.38.023.134.112.401.112.602 0 .09-.022.157-.045.179-.022.022-.089.045-.156.067s-.134.045-.156.134v.022c0 .045.067.067.156.067.09 0 .223-.022.469-.067.044-.022.111-.022.134-.111v-.023c-.022-.156-.156-.58-.179-.67-.044-.2-.09-.446-.29-1.317-.022-.111-.045-.178-.134-.178h-.022c-.09.022-.09.112-.09.156v.045c.067.044.067.044.067.067m.402 3.683-2.433.067h-.022c-.157 0-.201-.067-.246-.134s-.044-.178-.156-.2a.096.096 0 0 0-.09.088c0 .179.023.358.045.536v.58c0 .023.023.09.09.112.156-.022.134-.178.156-.29.044-.112.067-.223.245-.223l1.005-.023h.045c.022 0 .022-.022.044.09v.268c0 .223 0 .178-.223.335l-.826.558c-.268.178-.513.379-.513.759v.022c0 .022 0 .09.022.178.022.067 0 .134.09.179.044 0 .089-.045.089-.09.022-.089 0-.245.379-.513l1.139-.803c.156.312.468.558.848.558h.022c.759-.023.848-.715.848-1.027v-.179c0-.245-.022-.513-.044-.803v-.29c0-.09-.045-.134-.112-.157h-.022c-.112.023-.09.157-.112.246-.022.067-.067.134-.268.156m.29.737c0 .446-.178.826-.714.848h-.022c-.536 0-.603-.402-.625-.603v-.469l1.205-.044c.134 0 .112.044.134.223.022 0 .022.022.022.045m-.714 3.036c-.067-.023-.134-.023-.178-.023-.536 0-.782.447-.983.849-.2.424-.38.803-.714.803h-.09c-.401-.067-.58-.402-.58-.759 0-.067 0-.134.023-.178a.98.98 0 0 1 .826-.826c.089 0 .178 0 .223-.112v-.022c0-.09-.09-.112-.179-.112h-.022l-.625.022c-.156.045-.357.425-.447.782a2.5 2.5 0 0 0-.044.402c0 .78.469 1.116.848 1.16.067.023.134.023.201.023.558 0 .804-.447 1.005-.849.2-.424.357-.803.692-.803h.089c.335.067.469.335.469.647 0 .067 0 .112-.023.179-.067.402-.312.692-.736.759-.045.022-.157 0-.201.111v.023c0 .067.067.089.111.089l.648.045h.022c.045 0 .09-.045.112-.09v-.022c0-.067-.045-.09-.045-.09 0-.022.2-.2.312-.758.023-.09.023-.179.023-.246.044-.469-.201-.915-.737-1.004m.112 3.504h-.023c-.089.023-.111.09-.156.156-.044.067-.09.112-.178.112-.023 0-.067 0-.09-.022l-2.321-.76c-.224-.088-.246-.178-.246-.267v-.112c0-.044-.022-.111-.067-.134h-.044c-.067 0-.09.045-.112.112s-.045.156-.134.446c-.067.201-.134.38-.178.492 0 .022-.023.066-.023.089 0 .044.045.09.067.09h.022c.112-.023.134-.113.179-.18s.112-.133.179-.133c.022 0 .044 0 .067.022l2.433.803c.156.067.178.134.178.224v.089c0 .045 0 .09.067.112h.045c.067 0 .09-.045.09-.112.044-.134.066-.29.11-.424.045-.156.135-.313.18-.491v-.045c.022-.044-.023-.067-.045-.067m-.87 2.188-.38-.268c-.023-.022-.045-.022-.045-.022-.022 0-.067 0-.09.044 0 .023-.022.045-.022.045 0 .067.067.111.09.134.134.134.178.178.178.245a.5.5 0 0 1-.067.201l-.357.692c-.022 0-.134-.067-.156-.067l-2.21-1.16a.18.18 0 0 1-.112-.179c0-.067.023-.134.023-.2 0-.046 0-.09-.045-.113-.022 0-.045-.022-.067-.022-.045 0-.067.022-.09.067-.021.045-.044.112-.29.58l-.2.335c0 .023-.023.023-.023.045 0 .067.067.09.067.09.023 0 .023.022.045.022.156-.023.179-.224.335-.224.044 0 .09.023.156.045l2.165 1.139q.1.066.134.066l.023.023-.067.134-.313.602c-.09.157-.156.179-.2.179-.068 0-.135-.045-.202-.067-.044 0-.089.022-.089.067 0 .022-.022.045-.022.045 0 .089.067.089.111.111l.358.157a.2.2 0 0 0 .111.022c.067 0 .112-.045.134-.112.045-.09.223-.49.625-1.25.29-.536.469-.87.647-1.183 0-.022.023-.022.023-.045a.34.34 0 0 0-.179-.178m-1.943 3.594c-.111.022-.178.156-.335.156h-.044l-1.496-.179c-.067 0-.179-.022-.223-.066l-.893-.737c-.067-.067-.09-.112-.09-.156 0-.09.09-.179.09-.268a.17.17 0 0 0-.045-.09c-.022-.022-.044-.022-.067-.022-.044 0-.067.045-.089.045a2.2 2.2 0 0 1-.245.335 9 9 0 0 1-.358.401c-.022.045-.067.067-.067.112 0 .022.023.045.023.067.022.022.044.022.067.022.134-.022.2-.134.334-.134.045 0 .112.023.179.09l.915.736c.045.023.023.067.09.201l.379 1.183c.045.112.09.223.09.335v.045c0 .022-.023.067-.023.111 0 .023 0 .067.045.09.022.022.044.022.067.022.022 0 .044 0 .067-.022.089-.112.156-.224.245-.335.067-.09.156-.156.246-.268a.17.17 0 0 0 .044-.112.17.17 0 0 0-.044-.089c-.023-.022-.045-.022-.067-.022-.134.022-.201.178-.29.178-.023 0-.045 0-.067-.022-.09-.067-.112-.156-.134-.223l-.313-.893c-.022-.045-.022-.067-.022-.09h.09l1.07.135a.4.4 0 0 1 .18.044c.021.022.021.022.021.067s-.022.112-.022.179c0 .022 0 .067.045.089.022.022.044.022.044.022.067 0 .09-.044.112-.067.045-.044.112-.156.2-.268.202-.245.269-.312.358-.401.022-.023.022-.045.022-.067 0-.045-.022-.067-.044-.09a.05.05 0 0 0-.045-.044M12.522 37.62l-.58.38-.492-.402.179.603-.514.335.625.067.201.602.223-.58.603.045-.49-.402zm5.737 1.317q0-.033 0 0c-.09 0-.29.112-.58.157-.246.022-.358-.023-.425.111v.023c0 .044.022.089.067.089h.29c.09.022.09.045.09.09 0 .044-.023.11-.045.178l-.603 2.12c-.044.157-.134.179-.223.179-.067 0-.156-.022-.223-.022a.12.12 0 0 0-.112.067v.022c0 .067.067.09.112.112.134.044.402.089.558.133.178.045.312.112.469.157.044.022.089.022.133.022.023 0 .09-.022.09-.067v-.022c-.023-.112-.134-.112-.223-.156-.09-.045-.18-.09-.18-.246 0-.045 0-.09.023-.156l.67-2.389c.045-.156.09-.2.112-.29v-.045c.067-.022.044-.067 0-.067m3.28 1.295v-.09c0-.49-.334-.758-.803-.803h-.067a.903.903 0 0 0-.915.826v.045c0 .268.134.536.38.692-.358.156-.603.446-.625.87v.09c0 .558.424.937.915.982h.09c.557 0 1.004-.402 1.048-.982v-.09c0-.401-.2-.692-.536-.893.268-.111.492-.334.514-.647m-.356 1.719v.045c-.023.38-.268.625-.625.625h-.067c-.402-.023-.648-.47-.648-.849v-.067c.023-.357.358-.67.536-.647.112.045.804.402.804.893m.044-1.741c-.022.312-.2.49-.446.49h-.045c-.268-.021-.625-.267-.625-.624v-.045c.023-.29.223-.468.514-.468h.044a.57.57 0 0 1 .558.58zm2.255.2h-.156a2 2 0 0 0-.335.09l.044-.625c0-.09.045-.09.201-.112l.514-.067c.156-.022.268 0 .335-.134.022-.067.134-.357.134-.446 0-.045-.045-.067-.067-.067h-.023c-.134.045-.067.179-.29.2l-.803.113c-.201.022-.224.156-.224.29l-.067 1.205v.023c0 .066.045.089.09.089h.022c.09-.023.245-.067.357-.09h.156c.536 0 .648.402.67.648v.156c0 .536-.38.87-.826.938h-.156c-.179 0-.268-.045-.313-.045s-.067.045-.067.09v.022c.045.089.179.134.47.156.066 0 .133 0 .222-.022.893-.112 1.116-.849 1.116-1.318v-.178c-.089-.58-.49-.915-1.004-.915m4.063 1.184c-.09 0-.179.044-.268.044s-.179-.044-.246-.245l-.781-2.322c-.045-.156-.045-.223-.067-.312-.022-.023-.022-.09-.09-.09h-.022c-.044.045-.044.067-.134.157-.067.09-.134.178-.245.29-.179.156-.268.179-.29.29v.045c.022.044.067.067.089.067h.022c.067-.023.179-.156.246-.156.022 0 .044-.023.067-.023.067 0 .09.067.134.201l.692 2.032c.022.044.022.066.022.111 0 .112-.067.156-.134.201s-.178.045-.2.156v.023c0 .044.044.067.088.067.023 0 .045 0 .09-.023.134-.044.38-.156.535-.2.157-.068.313-.09.47-.135.066-.022.156-.022.178-.134v-.022c-.067 0-.112-.022-.156-.022m5.044-4.13-.468.424-.603-.335.268.625-.469.402.603-.067.245.58.179-.624.625-.09-.536-.312zM12.41 29.273c-.067 0-.134.044-.2.044-.068 0-.113-.022-.18-.111-.066-.09-.066-.268-.066-.447 0-.178.022-.357.022-.535 0-.201-.022-.358-.09-.491-.156-.246-.312-.358-.424-.358-.022 0-.044 0-.066.023-.023 0-.045.022-.045.067 0 .022 0 .022.022.044.045.045.134.09.179.157.022.067.067.111.067.223v.044c-.023.201-.023.335-.023.425v.066c-.245-.245-.535-.379-.848-.379q-.334 0-.67.2a1.16 1.16 0 0 0-.602 1.028c0 .223.067.446.178.647.246.402.648.647 1.072.647.2 0 .424-.067.625-.178.38-.223.603-.558.647-.915.067.022.134.044.224.044a.43.43 0 0 0 .223-.067c.022-.022.067-.044.067-.089 0-.022 0-.045-.023-.067-.044 0-.067-.022-.089-.022m-1.317.893a1 1 0 0 1-.536.156c-.268 0-.513-.112-.692-.402a.94.94 0 0 1-.134-.469c0-.38.246-.759.603-.982.201-.111.38-.156.558-.156.29 0 .536.134.692.38q.135.234.134.468c-.022.402-.268.781-.625 1.005m-.335-3.55q0-.201-.067-.468c-.178-.558-.536-.715-.826-.715-.2 0-.357.067-.424.067l-.982.29c-.045.023-.09.023-.112.023-.134 0-.089-.09-.223-.112h-.022c-.045.023-.045.067-.045.09v.022c.022.067.045.111.067.178.045.112.067.246.09.38.022.045.044.045.066.067h.023c.067-.022.067-.09.067-.112v-.111c0-.067 0-.134.156-.179l1.027-.312c.111-.023.223-.045.312-.045.246 0 .491.111.603.513.022.09.045.201.045.29 0 .29-.157.536-.514.648l-1.138.335h-.067c-.045 0-.067-.023-.09-.067-.022-.023-.044-.09-.111-.09H8.57c-.045.023-.045.067-.045.09 0 .044.022.089.022.089.023.112.067.2.112.29.022.09.045.156.067.246.022.022.022.067.09.089h.021c.067-.022.067-.09.067-.112v-.089c0-.067 0-.09.067-.112l1.072-.312c.335-.112.714-.357.714-.87m-.803-2.031c.089.045.111.067.133.112.023.044.023.089.09.111a.17.17 0 0 0 .09-.044v-.023c0-.089-.023-.178-.023-.268v-.334c0-.023-.045-.067-.09-.067h-.022c-.09.022-.067.111-.067.156-.022.044-.022.09-.111.09h-.023c-.022 0-.067 0-.089-.023l-.469-.179c-.044-.022-.044-.044-.044-.111l-.045-.737v-.022c0-.067.022-.067.09-.09l.267-.111c.09-.045.246-.112.29-.112q.034 0 .067.067c.022.045.022.112.112.112.067-.023.067-.09.067-.112v-.022c0-.09-.023-.179-.023-.268 0-.134 0-.268-.022-.402 0-.022 0-.09-.067-.09h-.022c-.09.023-.067.112-.067.157a.2.2 0 0 1-.067.156 3 3 0 0 1-.357.179L7.9 23.49c-.022.023-.112.023-.156.112v.022c.044.09.111.067.513.223zm-.938-1.25.045.67-.782-.313zm-1.16-1.652c.11-.022.11-.111.11-.111.046-.09.09-.112.157-.112.045 0 .09 0 .134.022l1.496.223c.156.023.223.045.223.112.044.09.022.156.09.179h.021c.068 0 .068-.067.068-.09.022-.134.022-.268.044-.401.022-.246.09-.492.112-.737 0-.067.022-.112.022-.156a.32.32 0 0 0-.09-.224c-.066-.089-.178-.2-.312-.223H9.91c-.022 0-.045 0-.067.045v.022c.022.067.067.09.112.179.044.089.111.245.111.468 0 .09 0 .179-.022.29-.045.18-.045.18-.112.18-.022 0-.089 0-.156-.023l-.603-.09c-.067 0-.067 0-.067-.022l.067-.49c.023-.112.067-.135.134-.135.067-.022.156.023.201-.089v-.022c0-.045-.045-.09-.067-.09-.09-.022-.178-.022-.268-.022-.111-.022-.2-.045-.335-.045h-.022c-.022 0-.09 0-.09.067.023.09.09.09.135.112.044.022.09.067.09.179v.067l-.046.357c0 .044 0 .067-.022.067h-.067l-.603-.09c-.156-.022-.133 0-.156-.067 0-.044.022-.111.022-.223.023-.134.067-.469.157-.513h.156c.045 0 .112-.023.112-.067-.023-.09-.09-.112-.425-.157h-.044c-.022 0-.09.023-.09.067-.022.112-.044.402-.066.47-.023.133-.067.312-.157.915v.067c.045.044.09.111.134.111m1.517-2.098c.156.044.313.089.447.089.49 0 .915-.312 1.093-.804.112-.312.157-.558.157-.714 0-.223-.045-.312-.067-.335l-.29-.178c-.023 0-.023-.023-.045-.023s-.067.023-.067.045v.022c0 .045.022.067.045.09.066.044.2.29.2.58 0 .112-.022.246-.066.38-.157.401-.492.58-.893.58-.157 0-.313-.022-.47-.09-.446-.156-.691-.446-.691-.825 0-.112.022-.224.067-.358.134-.379.402-.513.803-.602h.023c.044 0 .089 0 .134-.067v-.023c-.045-.111-.157-.089-.29-.156-.134-.044-.201-.067-.246-.067-.022 0-.067.023-.067.045v.067c0 .044-.335.156-.536.736-.044.134-.067.29-.067.425-.044.535.29 1.004.826 1.183m-.022-3.237c.022 0 .045.022.045.022.111-.022.156-.156.223-.134.022 0 .022 0 .044.023l.938.602c.2.134.402.224.625.224.268 0 .558-.157.826-.558.134-.224.2-.402.2-.58 0-.47-.423-.715-.535-.782l-.87-.558c-.112-.09-.135-.134-.135-.179v-.09a.17.17 0 0 0-.044-.088c-.022 0-.022-.023-.045-.023-.044 0-.067.023-.067.045-.044.067-.067.112-.089.156-.067.112-.156.201-.223.313-.023.022 0 .022 0 .044 0 .023 0 .045.044.067.023.023.045.023.045.023.134-.023.156-.157.246-.157a.22.22 0 0 1 .133.045l.893.58c.224.134.402.335.402.58a.7.7 0 0 1-.156.425c-.156.223-.357.38-.58.38a.85.85 0 0 1-.425-.135l-1.004-.647c-.067-.044-.067-.067-.067-.09 0-.044.022-.088.022-.133 0-.022-.022-.067-.044-.067 0 0-.023-.022-.045-.022-.09.022-.09.089-.112.089-.067.09-.111.178-.156.268-.044.067-.111.134-.156.2-.022.023-.022.045-.022.09.067.022.067.045.089.067m1.964-2.768c.067 0 .09-.045.179-.045.09 0 .223.045.469.313.245.245.446.536.78.96.068.089.09.134.09.178 0 .067-.044.09-.067.157 0 .022.023.044.023.066.022.023.044.023.067.023.022 0 .044 0 .044-.022.045-.045.067-.09.201-.201a1.3 1.3 0 0 1 .223-.179.3.3 0 0 0 .067-.09c0-.022 0-.044-.022-.044-.022-.022-.045-.022-.067-.022-.09 0-.134.067-.201.067-.045 0-.112-.023-.223-.134l-.714-.848 1.473.58c.022 0 .067.045.111.045.023 0 .045 0 .045-.023.022-.022.022-.044.022-.067 0-.067-.044-.156-.044-.178l-.447-1.496c0-.022-.022-.044-.022-.067.022 0 .022.022.045.045l.893.915c.044.045.044.09.044.112 0 .044-.044.089-.044.156 0 .022 0 .044.022.067 0 0 .022.022.044.022.023 0 .045 0 .067-.022l.201-.201c.09-.09.179-.156.246-.201.022-.022.045-.045.067-.09 0-.022 0-.044-.022-.044-.023-.022-.045-.044-.067-.044-.09.022-.134.066-.179.066-.022 0-.067 0-.112-.066l-1.138-1.161c-.09-.09-.112-.157-.112-.201 0-.067.067-.09.067-.179 0-.022 0-.044-.022-.067-.022-.022-.045-.022-.067-.022s-.045 0-.045.022c-.044.045-.044.067-.111.112 0 0-.09.067-.134.09-.022.021-.022.044-.022.066 0 .045.022.09.022.112l.49 1.696c.023.067.023.112.046.134-.023 0-.023-.022-.067-.022l-1.72-.692c-.022 0-.044-.045-.11-.045-.023 0-.046 0-.068.022-.044.045-.09.09-.111.135-.045.044-.09.066-.134.111-.023.022-.045.045-.045.067s0 .045.022.045c.023.067.067.089.067.089m4.152-.781a.45.45 0 0 0-.067.245c0 .067.023.156.045.223.022.023.045.067.09.067.021 0 .044 0 .044-.022.022-.022.044-.044.044-.067 0-.067-.022-.134-.022-.2 0-.068.022-.112.112-.18.089-.044.2-.066.357-.066.223 0 .491.022.714.022q.235 0 .402-.067c.246-.134.357-.312.38-.402 0-.022 0-.044-.023-.044 0-.023-.022-.045-.067-.045-.022 0-.022 0-.044.022-.045.045-.09.134-.157.156a.45.45 0 0 1-.2.045h-.067c-.246-.022-.402-.022-.492-.022a1.2 1.2 0 0 0 .402-.893c0-.201-.067-.424-.178-.647a1.17 1.17 0 0 0-1.05-.648c-.2 0-.424.045-.625.156a1.236 1.236 0 0 0-.513 1.697c.223.38.558.625.915.67m-.38-2.121a.83.83 0 0 1 .447-.112c.402 0 .782.268.982.648q.135.268.134.535a.74.74 0 0 1-.424.692.83.83 0 0 1-.446.112c-.402 0-.782-.268-1.005-.647a1.1 1.1 0 0 1-.134-.514c.045-.312.157-.558.447-.714m1.965-.938h.067c.067 0 .112 0 .112.067l.29 1.072c.112.402.335.781.87.781.134 0 .268-.022.425-.067.602-.156.736-.536.736-.848 0-.179-.044-.335-.067-.402l-.268-.982c-.022-.045-.022-.09-.022-.112 0-.134.09-.111.134-.223v-.022c-.022-.045-.067-.067-.09-.067h-.022c-.067.022-.111.045-.178.067-.112.022-.246.044-.38.09-.044.021-.044.044-.067.088v.023c.023.067.09.089.112.067h.09c.066 0 .133 0 .178.156l.268 1.027c.022.09.044.2.044.29 0 .268-.111.513-.535.625-.09.022-.179.045-.268.045-.313 0-.536-.157-.648-.536l-.312-1.139v-.066c0-.045.022-.067.067-.09.022-.022.09-.022.111-.111V9.45c-.022-.044-.066-.067-.089-.044-.044 0-.09.022-.09.022-.11.022-.2.067-.29.09s-.156.022-.245.044c-.022.022-.067 0-.09.09v.022c.046.066.113.066.157.066m3.192-.714c.134.022.156.134.156.29l.09 1.496v.09c0 .089-.023.133-.045.155-.09.067-.134.045-.156.134 0 .067.067.09.09.09.133 0 .267-.023.4-.045.246-.022.492-.022.76-.022.134 0 .245 0 .357-.157.067-.089.156-.2.156-.334V10.7s0-.067-.067-.089h-.022c-.067.045-.067.09-.179.179s-.312.178-.692.2h-.067c-.2-.022-.134-.022-.156-.223l-.044-.602v-.067h.022l.491-.023h.022c.112 0 .112.045.134.112.023.045 0 .156.112.179.044 0 .09-.045.09-.09 0-.09-.023-.178-.023-.268 0-.111 0-.223-.023-.334 0-.023 0-.09-.089-.112h-.022c-.09.045-.045.112-.09.156-.022.045-.066.112-.223.112l-.357.022h-.09v-.067l-.044-.603v-.089c0-.09-.022-.067.268-.09.067 0 .156-.021.268-.021s.246.022.268.066c.022.023.022.067.022.112s.022.112.09.134c.066-.022.089-.067.089-.268v-.178c0-.045 0-.112-.09-.112h-.022c-.09 0-.402.045-.469.045-.134 0-.312 0-.937.044-.09 0-.156.023-.156.09.067.133.156.089.178.111m6.005 3.08q.301.135.536.135c.38 0 .58-.224.67-.402a.8.8 0 0 0 .066-.29c-.022-.603-.893-.849-.87-1.206 0-.044 0-.067.022-.111a.35.35 0 0 1 .335-.224q.134 0 .268.067c.245.112.38.29.38.558v.09c0 .044 0 .089.044.111h.044c.045 0 .067-.044.09-.067l.134-.424V10.3c0-.045-.023-.067-.045-.067h-.044c-.023 0-.045 0-.045.022-.023-.022-.112-.179-.469-.335-.134-.045-.245-.09-.38-.09-.245 0-.49.112-.602.38a.6.6 0 0 0-.067.268c.022.58.893.826.87 1.206 0 .044 0 .089-.022.133-.09.201-.245.268-.424.268-.09 0-.2-.022-.29-.067a.7.7 0 0 1-.424-.625v-.067c0-.044.022-.067.022-.089a.17.17 0 0 0-.045-.09h-.044c-.067 0-.09.068-.112.112l-.09.425v.022c.046.111.246.29.492.402m2.277 1.273c.223.156.424.223.602.223.47 0 .715-.402.782-.49l.602-.85c.09-.11.134-.11.18-.11h.088a.17.17 0 0 0 .09-.045c0-.023.022-.023.022-.045s-.022-.045-.045-.067c-.044-.045-.111-.067-.156-.09-.111-.066-.2-.155-.312-.222-.023 0-.023-.023-.045-.023s-.045 0-.067.023c-.022.022-.022.044-.022.044.022.112.134.156.134.246 0 .044-.023.067-.045.134l-.625.87c-.134.201-.335.38-.58.38-.134 0-.268-.045-.447-.156-.223-.157-.357-.358-.357-.58 0-.135.044-.291.156-.447l.692-.96c.045-.067.067-.067.09-.067.044 0 .089.022.156.044.022 0 .044-.022.067-.044 0-.023.022-.023.022-.045-.022-.09-.09-.09-.09-.111-.089-.067-.178-.112-.267-.179-.067-.045-.134-.112-.201-.156-.022-.023-.045-.023-.09-.023-.022 0-.044 0-.066.023 0 .022-.023.044-.023.044.023.112.134.157.134.224 0 .022 0 .022-.022.044l-.647.915c-.134.201-.246.425-.246.648 0 .29.134.58.536.848m1.518.848c-.09 0-.112-.067-.224-.089-.022 0-.044 0-.067.022 0 0-.022.023-.022.067 0 .023.023.045.023.067l.223.223c.111.112.156.201.2.268.023.023.045.023.068.023.022 0 .044-.023.067-.023.022-.022.022-.044.022-.067-.022-.089-.09-.133-.09-.223 0-.044.023-.067.068-.134l1.004-.893v.023l-.268 2.12v.09c0 .044 0 .089.023.111 0 .023.022.023.044.023.067 0 .09-.045.134-.09l1.429-1.272c.044-.045.09-.045.111-.045.045 0 .09.045.157.045.022 0 .044 0 .067-.022.022-.023.022-.023.022-.067 0-.023 0-.045-.022-.045a2.4 2.4 0 0 1-.224-.246c-.067-.067-.111-.156-.178-.245-.023-.023-.045-.023-.067-.023s-.045 0-.045.023c-.022.022-.022.044-.022.067 0 .09.09.156.09.268 0 .067-.023.134-.135.223l-.982.87.29-2.299s.023-.044.023-.089c0-.022 0-.045-.023-.067-.044-.045-.09-.067-.111-.112a.5.5 0 0 0-.09-.133c-.022-.023-.044-.023-.067-.045-.022 0-.022 0-.044.022-.023.022-.023.045-.023.067 0 .09.09.134.09.246 0 .089-.045.2-.246.402l-.915.803c-.179.134-.246.156-.29.156m3.147 1.273h.067c.067-.023.112-.023.156-.023.045 0 .067.023.134.134l.246.47a.17.17 0 0 1-.09.044l-1.517.826c-.023.022-.045.022-.067.022-.09 0-.134-.112-.246-.134h-.044c-.023 0-.045.045-.045.067s0 .045.022.045c.023.022.045.067.223.401.045.09.067.18.112.246 0 .022.045.045.067.045s.045-.023.045-.023c.022-.022.044-.044.044-.089 0-.067-.022-.111-.022-.156s.022-.067.09-.134l1.473-.804a.4.4 0 0 1 .111-.044s.023.022.045.067l.223.424c.022.067.045.089.045.134 0 .089-.112.067-.134.2 0 .023 0 .023.022.045s.045.045.067.045c.045 0 .067-.023.067-.023l.223-.133c.045-.023.067-.045.09-.112 0-.022 0-.045-.023-.09-.044-.066-.2-.312-.49-.848-.202-.38-.313-.602-.447-.825-.023-.045-.045-.045-.09-.045a.17.17 0 0 0-.111.045l-.29.111c-.023.022-.045.045-.045.09v.044c.022-.045.067-.022.09-.022m2.679 7.567v-.201a.096.096 0 0 0-.09-.09c-.089.023-.066.113-.089.135-.022.044-.022.067-.067.067h-.044a.5.5 0 0 1-.179-.045l-1.45-.513c-.023 0-.045-.023-.045-.023.022-.022.111-.044.2-.089l1.34-.647c.022-.023.067-.023.111-.023.045 0 .045.023.067.045s.023.067.09.09c.067 0 .067-.068.089-.09 0-.045-.022-.178-.022-.268v-.312a.096.096 0 0 0-.09-.09c-.089.023-.067.09-.089.134a.3.3 0 0 1-.112.134l-1.897.893c-.067.045-.2.045-.223.179v.022c.044.09.156.09.223.134l1.987.737c.111.044.134.067.134.089s.022.09.089.09c.044 0 .09-.045.09-.09 0-.09-.023-.112-.023-.268m-.134 1.027c-.112.022-.112.111-.112.111-.044.09-.089.112-.156.112-.045 0-.09 0-.134-.022l-1.495-.223c-.157-.023-.224-.045-.224-.112-.044-.09-.022-.156-.089-.179h-.022c-.067 0-.09.067-.09.09-.022.134-.022.268-.044.402-.023.245-.09.49-.134.736 0 .067-.023.112-.023.156 0 .067.023.134.09.224.067.089.178.2.312.223h.023c.022 0 .067 0 .089-.067v-.022h-.022c-.023-.045-.067-.067-.112-.157a.94.94 0 0 1-.112-.468c0-.09 0-.18.023-.313.044-.179.044-.179.111-.179.045 0 .09 0 .157.023l.602.089c.067 0 .067 0 .067.022l-.067.492c-.022.111-.067.133-.134.133h-.044c-.045 0-.112 0-.134.09v.022c0 .045.044.09.067.09.089.022.178.022.268.044l.334.067h.023c.022 0 .089 0 .089-.067-.022-.09-.09-.067-.134-.112-.044-.022-.09-.067-.09-.178v-.067l.046-.357c0-.045 0-.067.022-.067h.067l.602.089c.157.022.134.022.157.067 0 .045-.023.111-.023.223-.022.134-.067.469-.156.514h-.156a.12.12 0 0 0-.112.067v.022c.023.09.067.112.424.178h.045c.022 0 .067-.022.09-.066.022-.112.044-.402.066-.47.023-.133.067-.312.157-.915v-.066c-.045-.112-.067-.18-.112-.18m-.424 2.433h-.023c-.089.022-.089.09-.133.112-.023.044-.045.067-.112.067-.022 0-.067 0-.09-.023l-1.584-.58c-.112-.045-.112-.09-.112-.156-.022-.045.023-.134-.067-.179h-.022c-.023 0-.067.022-.067.045-.045.111-.067.245-.112.357-.089.268-.134.312-.134.357 0 0-.022.022-.022.045 0 .022.022.067.045.067h.022c.09-.023.112-.09.156-.134.045-.067.09-.112.134-.112.023 0 .045 0 .067.023l.648.245c.044.022.044 0 .044.022v.045c-.134.357-.067.268-.29.335l-.67.156c-.223.045-.446.134-.535.38 0 .022-.045.134-.045.2 0 .023 0 .045.044.067h.023c.134-.044.044-.178.446-.267l.916-.224c.022.246.178.491.424.58.089.023.156.045.223.045.469 0 .625-.58.625-.602.067-.157.111-.335.178-.514.068-.156.068-.134.09-.2v-.045c-.023-.045-.023-.09-.067-.112m-.38.692c-.089.246-.245.424-.468.424-.067 0-.112-.022-.201-.044-.246-.09-.29-.224-.29-.358 0-.067.022-.133.022-.178.022-.067.044-.156.067-.223.022-.023.022-.067.044-.067l.782.29c.067.022.044.022.067.045.022.022 0 .066-.023.111m-2.5 1.139a.4.4 0 0 1-.044-.112c0-.045.022-.09.022-.134 0-.022 0-.045-.045-.067-.022 0-.022-.022-.044-.022-.023 0-.045.022-.067.044-.045.067-.09.157-.134.224s-.112.133-.157.223c0 .022-.044.044-.044.09 0 .021.022.066.044.066.023 0 .023.022.045.022.112-.022.134-.134.201-.111.022 0 .045 0 .067.022s.067.045.067.067l.268.424c0 .022.022.022.022.045 0 .022-.022.044-.044.09l-.402.602c-.023.044-.045.044-.067.044h-.067l-.29-.067c-.09-.022-.268-.044-.313-.067-.022-.022-.022-.022-.022-.044 0-.045.022-.09.022-.134 0-.022 0-.067-.045-.09-.022 0-.022-.022-.044-.022-.067 0-.09.067-.09.067-.044.067-.089.157-.133.223-.067.112-.157.224-.224.335 0 .023-.022.023-.022.067 0 .023.022.045.045.067 0 0 .022.023.044.023.134-.023.134-.157.268-.157s.268.045.38.067l1.808.335c.022 0 .067.022.111.022.023 0 .045 0 .067-.022 0-.022.023-.022.023-.045 0-.066-.067-.133-.268-.468zm0 1.54.357-.558.447.714zM19.51 22.91c.089 0 .133-.09.133-.09v-.424c.023 0 .067.023.112.023h.022c.246-.045.358-.201.358-.447v-.067c-.023-.156-.09-.446-.335-.446h-.067c-.29.067-.357.29-.357.49v.894s0 .022.022.022c.067.045.09.045.112.045m.29-1.273c.111-.022.156.201.156.335.022.179-.045.268-.156.29-.157.045-.134-.156-.157-.267-.022-.134 0-.335.157-.358m-.268-3.058c0-.044-.022-.067-.045-.111a.17.17 0 0 0-.09-.045c-.155.022-.267.245-.29.335l-.022.044h.045c.201 0 .402-.067.402-.223m-.022.313v.044c.133.201.223.648.245.715 0 .022-.022.044-.022.089-.023.09-.112.156-.156.2l-.023.023.023.023s.044.044.133.044c.045 0 .067 0 .112-.044.067-.067.134-.112.156-.157l.023-.022v-.022l-.023-.023c-.044.023-.022 0-.044.023.111-.313.312-.849.312-.849v-.022l-.022-.022s-.045-.045-.112-.045c-.022 0-.067 0-.111.045 0 0-.067.245-.134.402-.045-.201-.09-.358-.09-.358s-.067-.111-.156-.111a.12.12 0 0 0-.111.067m1.093 3.795c.045 0 .09-.045.134-.112.067-.134.112-.469.112-.737 0-.223-.022-.38-.09-.446-.022-.022-.044-.022-.066-.022-.09 0-.201.089-.246.134v-.045c0-.023-.045-.045-.09-.045-.022 0-.066.023-.089.067 0 0-.022.335-.022.58v.201c.045.067.09.112.134.112s.067-.045.09-.067c.022-.223-.023-.558.111-.625h.022s.023 0 .023.045a.4.4 0 0 1 .022.178c0 .201-.045.47-.112.692 0-.022-.022.067.067.09m.603-.447c-.045.023-.112.023-.178.023h-.023v.022s-.045.044-.045.111c0 .045.023.09.09.112.357-.045.446-.2.469-.29v-.023c0-.178-.246-.312-.268-.334 0-.067.022-.067.044-.067.045 0 .09.022.157.022h.022a.12.12 0 0 0 .067-.112c0-.067-.067-.111-.067-.111-.045 0-.447-.023-.447.312 0 .224.29.29.268.335-.022-.044-.044-.022-.089 0m.156-2.745s-.022.022-.067.044c-.044.022-.111.022-.178.022h-.023v.023s-.044.044-.044.111c0 .045.022.09.09.112.356-.045.468-.2.468-.29v-.023c-.023-.178-.246-.312-.268-.334 0-.067.022-.067.045-.067.044 0 .089.022.156.022h.022a.12.12 0 0 0 .067-.112c0-.067-.067-.111-.067-.111-.044 0-.446-.023-.446.312 0 .157.268.246.245.29m2.97 2.99c.021.068.066.112.11.112.046 0 .09-.044.112-.067.067-.223.09-.58.224-.558.022 0 .044.023.044.112 0 .178-.111.513-.245.759v.044c0 .023 0 .09.067.112.044 0 .089-.022.156-.09.178-.2.313-.713.313-1.004 0-.067 0-.134-.045-.178-.023-.023-.045-.045-.09-.045a.42.42 0 0 0-.245.112v-.09s-.045-.044-.112-.044c-.022 0-.067.022-.111.044-.045.023-.179.625-.179.782m.468 1.563c-.134 0-.268.201-.335.29l-.022.045h.134c.178 0 .335-.044.357-.178 0-.023 0-.067-.022-.09a.12.12 0 0 0-.112-.067m-.781-1.406c.067 0 .111-.045.111-.045l.023-.022-.09-1.139h-.022s-.067-.066-.134-.066a.096.096 0 0 0-.09.089s.045.29.045.312c-.022.067-.245.536-.424.76l-.022.022.022.022c.045.045.09.045.134.045a.17.17 0 0 0 .112-.045s.09-.2.223-.447v.425c.045.067.09.089.112.089m-.402-3.125c0 .111.022.245.134.29.022.022.044.022.067.022.067 0 .134-.044.178-.067 0 .045.023.09.09.09a.54.54 0 0 0 .245-.09h.023v-.134l-.045.023h-.045c0-.023.023-.067.023-.09l.111-.58-.022-.022s-.045-.023-.09-.023c-.044 0-.089.023-.133.045 0 0-.023-.022-.045-.022-.045 0-.067.022-.179.067-.156.067-.268.268-.312.424zm.245-.134c.045-.134.134-.246.313-.246-.022.335-.112.447-.268.491-.09 0-.067-.178-.045-.245m-3.571-.223c-.023.067-.023.111-.023.178 0 .201.112.335.268.357h.067c.224 0 .357-.156.424-.401 0-.045.023-.09.023-.134 0-.157-.067-.358-.246-.38h-.089c-.29-.022-.38.179-.424.38m.223.022c.022-.156.156-.29.246-.268.111.022.089.179.044.335-.044.178-.134.268-.245.245-.112-.022-.09-.2-.045-.312m4.42-.29.044.022v-.045c-.022-.111-.111-.38-.267-.38a.17.17 0 0 0-.09.046q-.067.066-.067.133c.023.09.201.18.38.224m-.201 1.094c.112 0 .2-.09.2-.246v-.067l-.066.045c-.045.044-.067.044-.067.044s-.022 0-.022-.044v-.023c0-.134.156-.647.156-.647l.022-.045-.245-.022h-.045v.067c0 .134-.134.491-.134.692v.067c.045.112.112.179.201.179m-1.518 1.473h.067c.156 0 .223-.156.246-.223v-.045c0-.09-.067-.2-.179-.223h-.067c-.067.022-.09.067-.09.134 0 .022 0 .044.023.089.022.067.09.067.112.09a.4.4 0 0 1-.067.133zm1.273 3.147v.067c0 .134-.134.47-.134.67v.067c.022.09.111.134.178.134.112 0 .201-.09.201-.246v-.067l-.045.045c-.044.045-.067.045-.089.045 0 0-.022 0-.022-.045v-.022c0-.134.156-.603.156-.603l.022-.045-.245-.022zm1.54.58s-.023.023-.067.045c-.045.023-.112.023-.179.023h-.022v.022s-.045.045-.045.112c0 .044.023.089.09.111.357-.044.468-.2.468-.29v-.022c-.022-.179-.245-.313-.268-.335 0-.067.023-.067.045-.067.045 0 .09.022.156.022h.023a.12.12 0 0 0 .067-.111c0-.067-.067-.112-.067-.112-.045 0-.447-.022-.447.313 0 .178.268.245.246.29m-3.215-5.401c.067 0 .09-.045.112-.045 0-.022.044-.112.067-.179.022-.044.022-.089.044-.111v-.023a.8.8 0 0 1 .157.313c.022.022.044.022.089.022.09 0 .112-.067.134-.067v-.044c-.045-.224-.156-.38-.156-.402.067-.067.38-.179.38-.38q0-.066-.068-.067c-.09 0-.29.157-.402.246a.4.4 0 0 0 .045-.156c0-.045-.022-.112-.09-.112h-.021c-.224.045-.38.848-.402.915v.023h.022c.045.067.067.067.09.067m2.411 2.433h-.045v.178h.023c.067.023.111.045.2.045.045 0 .112 0 .18-.022h.022v-.201h-.045c-.09.022-.112.022-.134.022 0 .023-.022 0-.2-.022m.424 2.433c-.022-.022-.044-.045-.111-.045-.045 0-.09.023-.134.045-.023 0-.023-.022-.045-.022-.045 0-.067.022-.179.067-.156.067-.267.268-.312.424v.067c0 .111.022.245.134.312.022.023.044.023.067.023.067 0 .134-.045.178-.067 0 .044.023.089.09.089s.134-.022.245-.09h.023v-.133l-.045.022h-.045c0-.022.023-.067.023-.09zm-.513.647c-.112.023-.09-.178-.067-.245.044-.134.134-.246.312-.246-.022.357-.089.469-.245.491m-2.344-2.768c.022.023.045.023.067.023.067 0 .134-.045.178-.067 0 .044.023.089.09.089s.134-.022.245-.09h.023v-.133l-.045.022h-.045c0-.022.023-.067.023-.09l.111-.58-.022-.022s-.045-.022-.09-.022c-.044 0-.089.022-.133.044-.023 0-.023-.022-.045-.022-.044 0-.09.022-.178.067-.157.067-.268.246-.29.424v.067a.31.31 0 0 0 .11.29m.134-.446c.044-.134.134-.246.312-.246-.022.335-.111.447-.268.491-.111.023-.089-.178-.044-.245m.402 1.741c-.447.022-.603.424-.67.87 0 .068-.022.112-.022.18 0 .312.134.513.357.513.335 0 .513-.224.603-.692.022-.134.044-.246.044-.357.022-.29-.09-.514-.312-.514m-.29 1.317c-.224 0-.112-.491-.112-.491h.402c-.067.335-.157.491-.29.491m.334-.647h-.402c.067-.335.157-.491.29-.491.224 0 .112.49.112.49m.916-.023c-.045-.022-.09-.022-.134-.022-.246 0-.402.156-.47.424-.021.067-.021.112-.021.179 0 .245.2.357.446.357h.045l.044-.156v-.045h-.044c-.045 0-.224-.022-.246-.134v-.022h.067c.09 0 .2-.022.246-.134v-.045l-.268-.044c.044-.179.268-.179.312-.179h.023l.022-.022c.022-.023.022-.045.022-.067 0-.067-.044-.09-.044-.09m-3.46-.133h-.09c-.268 0-.357.2-.402.401-.022.067-.022.112-.022.179 0 .2.112.335.246.357h.044c.224 0 .335-.134.402-.402 0-.044.022-.09.022-.134.023-.178-.022-.38-.2-.401m0 .49c-.045.18-.134.268-.224.246-.134-.022-.089-.2-.067-.312.023-.157.134-.268.224-.246.111.022.089.179.067.313m-2.21-.691c0-.045-.023-.067-.045-.112-.022-.022-.045-.045-.09-.045-.133.023-.223.246-.267.358l-.022.044h.044c.201-.044.38-.111.38-.245m-1.317-4.242h.067c.223 0 .357-.156.424-.401 0-.045.022-.09.022-.134 0-.157-.067-.358-.245-.38h-.09c-.29 0-.38.2-.424.402-.022.067-.022.111-.022.178 0 .201.111.335.268.335m-.023-.49c.023-.157.157-.291.246-.269.112.023.09.179.045.335-.045.179-.134.268-.246.246-.112 0-.067-.179-.045-.313m.335-.537.09.023-.045-.09c0-.022-.022-.067-.022-.089v-.022c.022-.023.089 0 .133-.045a.17.17 0 0 0 .045-.111c0-.045-.022-.067-.045-.112-.044-.022-.067-.045-.111-.045-.112 0-.179.09-.201.179v.045c.022.089.045.223.156.267m-.469 3.773c.201-.022.313-.447.358-.67h.044c-.022.157-.067.335-.067.491 0 .09.045.201.157.201.089 0 .156-.044.133-.111 0-.09-.067-.201-.067-.335v-.045c0-.067.023-.134.023-.178h.09c.066 0 .155 0 .155-.09.023-.022.023-.044.023-.067 0-.067-.067-.089-.067-.111l-.782.022v.022s-.067.112-.067.201c0 .023.023.067.045.067s.045 0 .067-.022h.112c0 .178 0 .2-.134.335-.045.022-.179.089-.179.2 0 .023 0 .045.023.068.044-.023.089.022.133.022m.514 2.679c-.045 0-.09.044-.112.044-.022-.067-.09-.223-.09-.401v-.023c.068-.134.313-.335.313-.469a.17.17 0 0 0-.044-.089h-.045c-.09.022-.134.112-.223.223 0-.089-.022-.223-.112-.245-.022 0-.067-.022-.089-.022-.067 0-.134.022-.156.089l.067.022h.044c.045 0 .067.201.09.402-.09.134-.402.424-.402.58 0 .023 0 .045.045.067h.044c.112 0 .156-.111.313-.312 0 .134.022.357.178.357h.023c.089-.022.223-.067.223-.156 0-.023 0-.045-.023-.045-.022-.022-.022-.045-.044-.022m1.428-4.42c-.156.022-.223.29-.223.402v.044l.045-.022c.178-.067.335-.156.335-.29q0-.068-.067-.134c-.045.022-.067 0-.09 0m2.344 3.75c.045 0 .09.022.156.022h.023a.12.12 0 0 0 .067-.111c0-.067-.067-.112-.067-.112-.045 0-.447-.022-.447.313.023.223.29.29.268.334 0 0-.022.023-.067.045-.044.022-.111.022-.178.022h-.023v.023s-.044.044-.044.111c0 .045.022.09.09.112.378-.045.468-.201.468-.29v-.023c-.023-.178-.246-.312-.268-.334 0-.112 0-.112.022-.112m-3.594-2.098-.022.022.022.022c.045.045.09.045.134.045.067 0 .112-.045.112-.045l.2-.446v.424c.023.067.068.09.09.09.067 0 .112-.045.112-.045h.022l-.09-1.139s-.066-.067-.133-.067a.096.096 0 0 0-.09.09s.045.29.045.312c0 .045-.223.536-.402.737m.313-2.634c.067 0 .112-.045.112-.045s.089-.201.223-.447v.402c.022.067.067.09.089.09.067 0 .112-.045.112-.045v-.022l-.09-1.139s-.067-.067-.134-.067a.096.096 0 0 0-.089.09l.045.312c-.023.067-.246.536-.424.759l-.023.022.023.023c.067.067.111.067.156.067m2.21 4.598s.022-.022.022-.067q0-.068-.067-.134l-.022-.022-.023.022c-.066.023-.446.067-.446.067H19.8a.17.17 0 0 0-.045.112c0 .044.022.089.045.089v.022l.156-.022c-.022.2-.067.647-.067.647v.023h.067c.045 0 .134-.023.156-.112 0-.045.045-.491.045-.625z"/><path d="M19.015 19.897h.066c.224 0 .358-.156.425-.402 0-.044.022-.089.022-.134 0-.156-.067-.357-.246-.38h-.089c-.268 0-.38.202-.402.403-.022.067-.022.111-.022.178-.022.179.09.313.246.335m-.023-.513c.023-.157.156-.29.246-.268.111.022.09.178.044.335-.044.178-.134.268-.223.245-.156 0-.111-.178-.067-.312m-.49 5.246c-.023-.023-.046-.045-.112-.045a.3.3 0 0 0-.134.044s-.023-.022-.045-.022c-.045 0-.067.023-.179.067-.156.067-.245.268-.29.424v.067c0 .112.023.246.134.313.022.022.045.022.067.022.067 0 .112-.044.156-.067 0 .045.023.09.09.09a.54.54 0 0 0 .245-.09h.022V25.3l-.044.023h-.045c0-.023.023-.067.023-.09zm-.447.692c-.09.022-.09-.179-.045-.246.045-.134.134-.268.29-.245-.044.334-.111.446-.245.49"/><path d="m31.338 25.343-3.974-1.45v-.268l4.264-.112-4.264-.692v-.246l4.197-.937-4.196.134v-.29l3.794-1.652-3.794.848v-.469l3.058-2.098-3.058 1.34v-.849l2.009-2.031-2.01 1.384v-1.317l-.111.022c-.045 0-.09.022-.156.022l.96-1.428-1.496 1.518a7 7 0 0 1-1.005.067H25.4l1.094-2.612-1.697 2.544a1.7 1.7 0 0 1-.357-.089c-.089-.022-.2-.044-.29-.067l.67-3.103-1.273 3.059h-.067c-.178 0-.357 0-.535.044l.067-3.46-.76 3.639c-.044.022-.11.044-.156.067-.089-.045-.2-.112-.312-.134l-.625-3.616-.067 3.482c-.134-.022-.268-.022-.402-.022h-.178l-1.184-3.148.559 3.237c-.067.022-.112.022-.18.044-.133.045-.29.09-.445.112l-1.675-2.723 1.05 2.79h-.067c-.335 0-.67-.022-.983-.067l-1.585-1.741 1.005 1.63c-.29-.067-.469-.112-.469-.112l-.111-.022v1.093l-1.786-1.339 1.786 1.942v.938l-2.902-1.384 2.902 2.143v.513l-3.706-.982 3.706 1.763v.313l-4.175-.268 4.175 1.094v.223l-4.286.536 4.286.268v.245l-4.063 1.317 4.063-.513v.357l-3.483 1.92 3.483-1.139v.603l-2.59 2.165 2.59-1.228v.157l.067.022s.267.067.647.156c.245.045.536.112.87.134.09 0 .157.023.246.023.134 0 .268.022.402.022.178 0 .38-.022.558-.045.09-.022.178-.022.245-.044.112-.023.224-.045.313-.09.245-.089.603-.134.96-.134.49 0 .982.09 1.25.268l.044.045.045-.045c.268-.178.804-.29 1.317-.268.268 0 .514.023.714.067.045 0 .067.023.112.023.067.022.134.022.179.044.267.09.58.134.892.157h.559c.357-.023.692-.067.982-.112.178-.022.335-.067.468-.09l.067-.022v-.223l2.367 1.429-2.367-2.12v-.693l3.326 1.228-3.326-1.987v-.402zm-9.398 2.099c-.335-.179-.781-.246-1.228-.246-.38 0-.759.045-1.026.156-.313.112-.692.157-1.05.157-.513 0-1.049-.09-1.428-.157q-.435-.1-.603-.134v-10.38c.29.067 1.116.246 1.965.246.424 0 .825-.045 1.205-.179.223-.089.558-.134.915-.134.469 0 .982.09 1.272.246zm5.268-.134c-.402.09-1.027.2-1.652.2-.38 0-.78-.044-1.093-.156a3.6 3.6 0 0 0-1.072-.156c-.446 0-.915.067-1.25.223V17.062c.268-.201.826-.29 1.34-.29.357 0 .691.044.915.133.357.134.78.179 1.183.179.602 0 1.227-.09 1.63-.179z"/><path d="M18.974 24.54c-.29 0-.357.313-.357.513 0 .067-.09.737-.09.782 0 0 0 .022.023.022 0 .022.044.045.067.045.067 0 .111-.067.111-.067l.067-.402c.022.022.067.022.09.045h.022c.223 0 .335-.179.357-.447v-.067c-.022-.156-.067-.424-.29-.424m.09.536c-.023.178-.068.245-.157.268-.134.022-.112-.179-.09-.29 0-.157.045-.335.18-.335.088.022.088.223.066.357m.58.178s-.045-.044-.045-.111v-.067c0-.179.044-.558.044-.558v-.045l-.245.022h-.045l.023.045v.09c0 .133-.023.357-.023.513 0 .067 0 .134.023.156.022.067.089.112.156.112.111 0 .2-.067.223-.179l.022-.112-.067.09c-.044.022-.067.044-.067.044m-.514-3.705c-.09 0-.2.09-.245.134v-.045c0-.022-.045-.045-.09-.045-.044 0-.067.023-.111.067v.268c0 .201 0 .447.022.514.045.067.09.111.134.111s.067-.044.09-.089v-.268c0-.156.021-.312.088-.357h.023s.022 0 .022.067c.022.045.022.112.022.2 0 .202-.044.447-.089.648 0 .022 0 .112.09.134.044 0 .089-.045.133-.112.067-.133.09-.424.09-.692 0-.245-.023-.446-.09-.513-.044-.022-.067-.045-.089-.022"/></g><defs><clipPath id="a"><path fill="#fff" d="M0 .917h183.111v44.167H0z"/></clipPath></defs></svg>