<svg xmlns="http://www.w3.org/2000/svg" width="33" height="32" fill="none"><mask id="a" width="25" height="26" x="5" y="3" maskUnits="userSpaceOnUse" style="mask-type:alpha"><path fill="#C4C4C4" d="M28.548 14.4a1.82 1.82 0 0 1 0 3.2L8.256 28.766c-1.235.68-2.756-.203-2.756-1.6V4.834c0-1.397 1.52-2.28 2.756-1.6z"/></mask><g mask="url(#a)"><path fill="url(#b)" d="m6.135 28.547 12.657-12.73L6.343 3.3A1.81 1.81 0 0 0 5.5 4.834v22.332c0 .57.252 1.053.635 1.38"/><path fill="url(#c)" d="M28.548 14.4a1.82 1.82 0 0 1 0 3.2l-5.12 2.816-4.636-4.598 4.4-4.365z"/><path fill="url(#d)" d="m23.43 20.417-4.638-4.6-12.657 12.73c.556.476 1.389.622 2.121.219z"/><path fill="url(#e)" d="m6.343 3.299 12.45 12.519 4.4-4.365L8.256 3.234a1.86 1.86 0 0 0-1.913.065"/></g><defs><linearGradient id="b" x1="14.177" x2="5.571" y1="10.874" y2="19.551" gradientUnits="userSpaceOnUse"><stop stop-color="#00C3FF"/><stop offset="1" stop-color="#1BE2FA"/></linearGradient><linearGradient id="c" x1="18.792" x2="30.238" y1="15.818" y2="15.818" gradientUnits="userSpaceOnUse"><stop stop-color="#FFCE00"/><stop offset="1" stop-color="#FFEA00"/></linearGradient><linearGradient id="d" x1="5.869" x2="21.095" y1="30.1" y2="17.894" gradientUnits="userSpaceOnUse"><stop stop-color="#DE2453"/><stop offset="1" stop-color="#FE3944"/></linearGradient><linearGradient id="e" x1="6.608" x2="21.098" y1="1.901" y2="13.736" gradientUnits="userSpaceOnUse"><stop stop-color="#11D574"/><stop offset="1" stop-color="#01F176"/></linearGradient></defs></svg>