<svg xmlns="http://www.w3.org/2000/svg" viewBox="0 0 112 16" width="112" height="16" fill="none"><path fill="#FFB800" d="M15.958 6.046a.86.86 0 0 0-.732-.61l-4.618-.438L8.782.538A.85.85 0 0 0 8 0a.85.85 0 0 0-.782.54L5.392 4.997l-4.619.438a.86.86 0 0 0-.731.61.91.91 0 0 0 .249.943l3.49 3.194-1.03 4.732a.91.91 0 0 0 .332.916.82.82 0 0 0 .934.043L8 13.388l3.982 2.484a.82.82 0 0 0 .935-.042.91.91 0 0 0 .33-.916l-1.029-4.732 3.49-3.194a.91.91 0 0 0 .25-.943M39.958 6.046a.86.86 0 0 0-.732-.61l-4.618-.438-1.826-4.46A.85.85 0 0 0 32 0a.85.85 0 0 0-.782.54l-1.826 4.458-4.619.438a.86.86 0 0 0-.731.61.91.91 0 0 0 .248.943l3.491 3.194-1.03 4.732a.91.91 0 0 0 .332.916.82.82 0 0 0 .934.043L32 13.388l3.982 2.484a.82.82 0 0 0 .935-.042.91.91 0 0 0 .33-.916l-1.029-4.732 3.49-3.194a.91.91 0 0 0 .25-.943M63.958 6.046a.86.86 0 0 0-.732-.61l-4.618-.438-1.826-4.46A.85.85 0 0 0 56 0a.85.85 0 0 0-.782.54l-1.826 4.458-4.619.438a.86.86 0 0 0-.731.61.91.91 0 0 0 .248.943l3.491 3.194-1.03 4.732a.91.91 0 0 0 .332.916.82.82 0 0 0 .934.043L56 13.388l3.982 2.484a.82.82 0 0 0 .935-.042.91.91 0 0 0 .33-.916l-1.029-4.732 3.49-3.194a.91.91 0 0 0 .25-.943M87.958 6.046a.86.86 0 0 0-.732-.61l-4.618-.438-1.826-4.46A.85.85 0 0 0 80 0a.85.85 0 0 0-.782.54l-1.826 4.458-4.619.438a.86.86 0 0 0-.731.61.91.91 0 0 0 .248.943l3.491 3.194-1.03 4.732a.91.91 0 0 0 .332.916.82.82 0 0 0 .934.043L80 13.388l3.982 2.484a.82.82 0 0 0 .935-.042.91.91 0 0 0 .33-.916l-1.029-4.732 3.49-3.194a.91.91 0 0 0 .25-.943M111.958 6.046a.86.86 0 0 0-.732-.61l-4.618-.438-1.826-4.46A.85.85 0 0 0 104 0a.85.85 0 0 0-.782.54l-1.826 4.458-4.619.438a.86.86 0 0 0-.731.61.91.91 0 0 0 .248.943l3.491 3.194-1.03 4.732a.91.91 0 0 0 .332.916.823.823 0 0 0 .934.043L104 13.388l3.982 2.484a.82.82 0 0 0 .935-.042.91.91 0 0 0 .331-.916l-1.03-4.732 3.491-3.194a.91.91 0 0 0 .249-.943"/></svg>
